<?xml version="1.0" encoding="iso-8859-1"?>
<!-- Generator: Adobe Illustrator 16.0.0, SVG Export Plug-In . SVG Version: 6.00 Build 0)  -->
<!DOCTYPE svg PUBLIC "-//W3C//DTD SVG 1.1//EN" "http://www.w3.org/Graphics/SVG/1.1/DTD/svg11.dtd">
<svg version="1.1" xmlns="http://www.w3.org/2000/svg" xmlns:xlink="http://www.w3.org/1999/xlink" x="0px" y="0px"
	 width="57.692px" height="57.692px" viewBox="0 0 57.692 57.692" style="enable-background:new 0 0 57.692 57.692;"
	 xml:space="preserve">
<g id="_x30_1_x5F_soccerball">
	<g>
		<g>
			<path style="fill:#44444D;" d="M35.737,40.426H21.957c-0.8,0-1.509-0.516-1.756-1.275l-4.257-13.104
				c-0.247-0.761,0.024-1.594,0.671-2.064l11.147-8.099c0.646-0.47,1.523-0.47,2.17,0l11.146,8.099
				c0.647,0.47,0.918,1.303,0.672,2.064L37.493,39.15C37.246,39.91,36.537,40.426,35.737,40.426z M23.298,36.733h11.099
				l3.428-10.552l-8.978-6.522l-8.977,6.522L23.298,36.733z"/>
		</g>
		<g>
			<path style="fill:#44444D;" d="M28.847,11.624c-0.229,0-0.458-0.042-0.674-0.127l-6.355-2.493
				C20.868,8.631,20.4,7.56,20.772,6.61c0.372-0.949,1.441-1.418,2.393-1.044l5.681,2.229l5.623-2.207
				c0.95-0.371,2.021,0.095,2.394,1.044c0.371,0.949-0.096,2.021-1.045,2.393l-6.297,2.471
				C29.304,11.582,29.075,11.624,28.847,11.624z"/>
		</g>
		<g>
			<path style="fill:#44444D;" d="M51.293,31.842c-0.574,0-1.139-0.266-1.5-0.767l-3.838-5.326
				c-0.284-0.394-0.401-0.882-0.327-1.361l0.968-6.261c0.154-1.008,1.102-1.704,2.105-1.542c1.008,0.155,1.698,1.099,1.543,2.106
				l-0.852,5.513l3.396,4.712c0.596,0.827,0.408,1.98-0.418,2.577C52.044,31.729,51.666,31.842,51.293,31.842z"/>
		</g>
		<g>
			<path style="fill:#44444D;" d="M35.335,52.14c-0.372,0-0.747-0.112-1.072-0.345c-0.829-0.593-1.021-1.746-0.429-2.575
				l3.901-5.457c0.271-0.378,0.675-0.642,1.131-0.735l6.704-1.375c0.996-0.204,1.975,0.438,2.18,1.438
				c0.205,0.998-0.438,1.975-1.438,2.18l-5.994,1.229l-3.48,4.868C36.479,51.871,35.91,52.14,35.335,52.14z"/>
		</g>
		<g>
			<path style="fill:#44444D;" d="M22.03,51.68c-0.576,0-1.143-0.269-1.503-0.772l-3.151-4.408L11.8,45.355
				c-0.999-0.205-1.642-1.182-1.438-2.18c0.206-0.999,1.183-1.641,2.18-1.438l6.285,1.289c0.456,0.094,0.86,0.357,1.131,0.735
				l3.573,4.997c0.593,0.83,0.401,1.982-0.428,2.576C22.777,51.568,22.401,51.68,22.03,51.68z"/>
		</g>
		<g>
			<path style="fill:#44444D;" d="M6.367,32.236c-0.356,0-0.716-0.103-1.033-0.317C4.49,31.348,4.268,30.2,4.84,29.355l3.462-5.118
				l-0.958-5.995c-0.161-1.007,0.524-1.954,1.531-2.114c1.007-0.162,1.954,0.524,2.114,1.531l1.074,6.716
				c0.074,0.463-0.031,0.938-0.294,1.326l-3.872,5.723C7.541,31.952,6.959,32.236,6.367,32.236z"/>
		</g>
		<g>
			<path style="fill:#44444D;" d="M28.847,19.224c-1.02,0-1.846-0.827-1.846-1.846v-7.6c0-1.02,0.827-1.846,1.846-1.846
				s1.847,0.827,1.847,1.846v7.6C30.693,18.397,29.866,19.224,28.847,19.224z"/>
		</g>
		<g>
			<path style="fill:#44444D;" d="M39.991,27.322c-0.931,0-1.73-0.702-1.833-1.647c-0.109-1.014,0.623-1.924,1.637-2.034
				l7.459-0.807c1.016-0.108,1.924,0.624,2.033,1.637c0.109,1.014-0.623,1.924-1.637,2.034l-7.458,0.807
				C40.125,27.319,40.058,27.322,39.991,27.322z"/>
		</g>
		<g>
			<path style="fill:#44444D;" d="M39.238,46.683c-0.646,0-1.273-0.341-1.612-0.944l-3.5-6.258c-0.497-0.89-0.18-2.014,0.71-2.512
				c0.889-0.498,2.015-0.181,2.513,0.709l3.5,6.258c0.497,0.89,0.18,2.014-0.71,2.512C39.854,46.607,39.544,46.683,39.238,46.683z"
				/>
		</g>
		<g>
			<path style="fill:#44444D;" d="M18.454,46.683c-0.305,0-0.615-0.075-0.9-0.235c-0.89-0.498-1.208-1.623-0.709-2.512l3.501-6.258
				c0.497-0.89,1.622-1.207,2.512-0.709c0.89,0.498,1.208,1.623,0.709,2.512l-3.501,6.258
				C19.729,46.342,19.101,46.683,18.454,46.683z"/>
		</g>
		<g>
			<path style="fill:#44444D;" d="M17.702,27.322c-0.067,0-0.134-0.003-0.201-0.011l-7.459-0.809
				c-1.014-0.11-1.747-1.021-1.637-2.034c0.11-1.015,1.025-1.746,2.034-1.637l7.459,0.809c1.014,0.11,1.747,1.021,1.637,2.034
				C19.432,26.621,18.632,27.322,17.702,27.322z"/>
		</g>
		<g>
			<path style="fill:#44444D;" d="M28.847,57.692C12.94,57.692,0,44.752,0,28.847C0,12.941,12.94,0,28.847,0
				c15.905,0,28.846,12.941,28.846,28.847C57.692,44.752,44.752,57.692,28.847,57.692z M28.847,3.692
				c-13.87,0-25.154,11.284-25.154,25.155C3.692,42.717,14.977,54,28.847,54S54,42.717,54,28.847
				C54,14.977,42.717,3.692,28.847,3.692z"/>
		</g>
	</g>
</g>
<g id="Layer_1">
</g>
</svg>
