<?xml version="1.0" encoding="iso-8859-1"?>
<!-- Generator: Adobe Illustrator 16.0.0, SVG Export Plug-In . SVG Version: 6.00 Build 0)  -->
<!DOCTYPE svg PUBLIC "-//W3C//DTD SVG 1.1//EN" "http://www.w3.org/Graphics/SVG/1.1/DTD/svg11.dtd">
<svg version="1.1" xmlns="http://www.w3.org/2000/svg" xmlns:xlink="http://www.w3.org/1999/xlink" x="0px" y="0px"
	 width="57.692px" height="46.931px" viewBox="0 0 57.692 46.931" style="enable-background:new 0 0 57.692 46.931;"
	 xml:space="preserve">
<g id="_x30_2_x5F_field">
	<g>
		<g>
			<path style="fill:#44444D;" d="M48.653,46.931H9.039C4.055,46.931,0,42.875,0,37.892V9.039C0,4.055,4.055,0,9.039,0h39.614
				c4.983,0,9.039,4.055,9.039,9.039v28.853C57.692,42.875,53.637,46.931,48.653,46.931z M9.039,3.692
				c-2.948,0-5.347,2.398-5.347,5.347v28.853c0,2.948,2.398,5.347,5.347,5.347h39.614c2.948,0,5.347-2.398,5.347-5.347V9.039
				c0-2.948-2.398-5.347-5.347-5.347H9.039z"/>
		</g>
		<g>
			<path style="fill:#44444D;" d="M55.151,12.795c-5.558,0-10.079-4.6-10.079-10.253c0-1.02,0.827-1.846,1.847-1.846
				s1.847,0.827,1.847,1.846c0,3.618,2.864,6.561,6.386,6.561c1.02,0,1.847,0.827,1.847,1.846S56.171,12.795,55.151,12.795z"/>
		</g>
		<g>
			<path style="fill:#44444D;" d="M2.541,12.795c-1.02,0-1.846-0.827-1.846-1.846s0.827-1.846,1.846-1.846
				c3.521,0,6.386-2.943,6.386-6.561c0-1.02,0.827-1.846,1.846-1.846s1.846,0.827,1.846,1.846
				C12.62,8.195,8.098,12.795,2.541,12.795z"/>
		</g>
		<g>
			<path style="fill:#44444D;" d="M46.919,46.236c-1.02,0-1.847-0.826-1.847-1.846c0-5.654,4.521-10.254,10.079-10.254
				c1.02,0,1.847,0.826,1.847,1.846s-0.827,1.847-1.847,1.847c-3.521,0-6.386,2.943-6.386,6.562
				C48.766,45.41,47.938,46.236,46.919,46.236z"/>
		</g>
		<g>
			<path style="fill:#44444D;" d="M10.773,46.236c-1.02,0-1.846-0.826-1.846-1.846c0-3.618-2.865-6.562-6.386-6.562
				c-1.02,0-1.846-0.827-1.846-1.847s0.827-1.846,1.846-1.846c5.557,0,10.079,4.6,10.079,10.254
				C12.62,45.41,11.793,46.236,10.773,46.236z"/>
		</g>
		<g>
			<path style="fill:#44444D;" d="M28.847,34.035c-1.02,0-1.846-0.826-1.846-1.846V1.846C27,0.827,27.827,0,28.847,0
				s1.847,0.827,1.847,1.846v30.343C30.693,33.209,29.866,34.035,28.847,34.035z"/>
		</g>
		<g>
			<path style="fill:#44444D;" d="M28.847,46.931c-1.02,0-1.846-0.827-1.846-1.847v-7.883c0-1.02,0.827-1.847,1.846-1.847
				s1.847,0.827,1.847,1.847v7.883C30.693,46.104,29.866,46.931,28.847,46.931z"/>
		</g>
		<g>
			<path style="fill:#44444D;" d="M28.847,34.035c-5.729,0-10.389-4.742-10.389-10.57s4.66-10.569,10.389-10.569
				c5.728,0,10.388,4.741,10.388,10.569S34.574,34.035,28.847,34.035z M28.847,16.589c-3.692,0-6.696,3.084-6.696,6.876
				c0,3.792,3.004,6.877,6.696,6.877s6.695-3.085,6.695-6.877C35.542,19.673,32.539,16.589,28.847,16.589z"/>
		</g>
		<g>
			<path style="fill:#44444D;" d="M12.054,32.847H6.166c-1.02,0-1.846-0.827-1.846-1.847s0.827-1.846,1.846-1.846h4.042V17.777
				H6.166c-1.02,0-1.846-0.827-1.846-1.846s0.827-1.846,1.846-1.846h5.888c1.02,0,1.846,0.827,1.846,1.846V31
				C13.9,32.02,13.073,32.847,12.054,32.847z"/>
		</g>
		<g>
			<path style="fill:#44444D;" d="M51.526,32.847h-5.888c-1.02,0-1.846-0.827-1.846-1.847V15.931c0-1.02,0.826-1.846,1.846-1.846
				h5.888c1.02,0,1.847,0.827,1.847,1.846s-0.827,1.846-1.847,1.846h-4.042v11.377h4.042c1.02,0,1.847,0.826,1.847,1.846
				S52.546,32.847,51.526,32.847z"/>
		</g>
	</g>
</g>
<g id="Layer_1">
</g>
</svg>
