<?xml version="1.0" encoding="iso-8859-1"?>
<!-- Generator: Adobe Illustrator 16.0.0, SVG Export Plug-In . SVG Version: 6.00 Build 0)  -->
<!DOCTYPE svg PUBLIC "-//W3C//DTD SVG 1.1//EN" "http://www.w3.org/Graphics/SVG/1.1/DTD/svg11.dtd">
<svg version="1.1" xmlns="http://www.w3.org/2000/svg" xmlns:xlink="http://www.w3.org/1999/xlink" x="0px" y="0px"
	 width="50.273px" height="57.692px" viewBox="0 0 50.273 57.692" style="enable-background:new 0 0 50.273 57.692;"
	 xml:space="preserve">
<g id="_x30_4_x5F_medal">
	<g>
		<g>
			<path style="fill:#44444D;" d="M25.137,57.692c-9.736,0-17.657-7.921-17.657-17.655c0-9.736,7.921-17.657,17.657-17.657
				c9.736,0,17.658,7.921,17.658,17.657C42.795,49.771,34.873,57.692,25.137,57.692z M25.137,26.072
				c-7.7,0-13.964,6.264-13.964,13.965C11.172,47.736,17.437,54,25.137,54c7.701,0,13.966-6.264,13.966-13.963
				C39.103,32.336,32.838,26.072,25.137,26.072z"/>
		</g>
		<polygon style="fill:#44444D;" points="28.246,44.494 30.166,38.58 25.137,34.928 20.108,38.58 22.03,44.494 		"/>
		<path style="fill:#44444D;" d="M29.889,29.636l-0.578-0.964c-1.303-0.478-2.705-0.75-4.174-0.75c-1.468,0-2.87,0.272-4.172,0.75
			l-0.58,0.964l4.752,1.864L29.889,29.636z"/>
		<path style="fill:#44444D;" d="M35.379,33.529l-1.069-0.355l-0.78,5.045l2.861,4.229l0.814-0.777
			c0.066-0.514,0.111-1.035,0.111-1.564C37.316,37.68,36.602,35.426,35.379,33.529z"/>
		<path style="fill:#44444D;" d="M29.824,47.316l-2.967,4.152l1.014,0.496c2.842-0.652,5.297-2.299,6.995-4.553l-0.04-1.121
			L29.824,47.316z"/>
		<path style="fill:#44444D;" d="M15.448,46.291l-0.039,1.121c1.698,2.254,4.154,3.9,6.995,4.553l1.014-0.496l-2.968-4.152
			L15.448,46.291z"/>
		<path style="fill:#44444D;" d="M15.965,33.172l-1.07,0.357c-1.223,1.896-1.939,4.15-1.939,6.576c0,0.529,0.047,1.049,0.113,1.564
			l0.813,0.775l2.86-4.227L15.965,33.172z"/>
		<g>
			<path style="fill:#44444D;" d="M7.501,29.865c-0.53,0-1.055-0.227-1.42-0.666c-0.07-0.084-1.754-2.114-4.423-5.672
				C0,21.314,0,19.202,0,17.804V6.809c0-1.02,0.827-1.846,1.846-1.846S3.692,5.79,3.692,6.809v10.995c0,1.224,0,2.28,0.92,3.508
				c2.607,3.476,4.291,5.506,4.308,5.526c0.652,0.784,0.544,1.948-0.239,2.6C8.336,29.725,7.917,29.865,7.501,29.865z"/>
		</g>
		<g>
			<path style="fill:#44444D;" d="M13.013,24.625c-0.529,0-1.055-0.227-1.42-0.665c-0.284-0.342-6.997-8.411-9.666-11.969
				c-2.013-2.684-2.477-5.76-1.242-8.23C1.863,1.406,4.346,0,7.326,0h35.622c2.98,0,5.463,1.406,6.641,3.761
				c1.234,2.47,0.771,5.546-1.24,8.229c-2.67,3.559-9.383,11.627-9.668,11.969c-0.652,0.784-1.816,0.889-2.6,0.238
				c-0.783-0.652-0.891-1.816-0.238-2.6c0.07-0.083,6.938-8.339,9.552-11.822c1.171-1.563,1.497-3.153,0.892-4.363
				c-0.539-1.077-1.786-1.72-3.338-1.72H7.326c-1.551,0-2.799,0.643-3.338,1.72c-0.605,1.21-0.279,2.8,0.893,4.364
				c2.613,3.483,9.481,11.739,9.55,11.822c0.652,0.784,0.546,1.948-0.238,2.6C13.848,24.485,13.43,24.625,13.013,24.625z"/>
		</g>
		<g>
			<path style="fill:#44444D;" d="M42.771,29.865c-0.416,0-0.834-0.14-1.178-0.426c-0.785-0.652-0.893-1.816-0.24-2.6
				c0.017-0.02,1.7-2.05,4.308-5.527c0.92-1.228,0.92-2.284,0.92-3.508V6.809c0-1.02,0.827-1.846,1.847-1.846
				s1.846,0.827,1.846,1.846v10.995c0,1.398,0,3.51-1.658,5.722c-2.669,3.559-4.352,5.588-4.423,5.673
				C43.828,29.638,43.302,29.865,42.771,29.865z"/>
		</g>
		<g>
			<path style="fill:#44444D;" d="M40.412,12.982H9.862c-1.02,0-1.846-0.827-1.846-1.846S8.842,9.29,9.862,9.29h30.55
				c1.02,0,1.846,0.827,1.846,1.846S41.432,12.982,40.412,12.982z"/>
		</g>
	</g>
</g>
<g id="Layer_1">
</g>
</svg>
