<?xml version="1.0" encoding="iso-8859-1"?>
<!-- Generator: Adobe Illustrator 16.0.0, SVG Export Plug-In . SVG Version: 6.00 Build 0)  -->
<!DOCTYPE svg PUBLIC "-//W3C//DTD SVG 1.1//EN" "http://www.w3.org/Graphics/SVG/1.1/DTD/svg11.dtd">
<svg version="1.1" xmlns="http://www.w3.org/2000/svg" xmlns:xlink="http://www.w3.org/1999/xlink" x="0px" y="0px"
	 width="57.691px" height="42.711px" viewBox="0 0 57.691 42.711" style="enable-background:new 0 0 57.691 42.711;"
	 xml:space="preserve">
<g id="_x30_5_x5F_goal">
	<g>
		<g>
			<g>
				<path style="fill:#44444D;" d="M24.549,35.725c-7.922,0-14.366-6.445-14.366-14.369c0-7.922,6.444-14.367,14.366-14.367
					c7.923,0,14.368,6.445,14.368,14.367C38.917,29.279,32.472,35.725,24.549,35.725z M24.549,10.681
					c-5.886,0-10.675,4.789-10.675,10.675c0,5.887,4.789,10.676,10.675,10.676c5.887,0,10.677-4.789,10.677-10.676
					C35.226,15.47,30.436,10.681,24.549,10.681z"/>
			</g>
			<g>
				<g>
					<path style="fill:#44444D;" d="M11.218,10.521c-0.66,0-1.301-0.26-1.771-0.73c-0.46-0.46-0.729-1.1-0.729-1.77
						c0-0.65,0.27-1.3,0.729-1.76c0.931-0.93,2.61-0.93,3.54,0c0.46,0.46,0.73,1.11,0.73,1.76c0,0.66-0.271,1.31-0.73,1.77
						C12.518,10.261,11.878,10.521,11.218,10.521z"/>
				</g>
				<g>
					<path style="fill:#44444D;" d="M15.027,4.891c-0.53-1.28,0.08-2.74,1.351-3.27l0,0c1.279-0.52,2.739,0.08,3.27,1.36l0,0
						c0.53,1.27-0.08,2.73-1.36,3.26l0,0c-0.31,0.13-0.63,0.19-0.949,0.19l0,0C16.357,6.431,15.428,5.851,15.027,4.891z
						 M30.808,6.241c-1.28-0.53-1.88-1.99-1.36-3.27l0,0c0.53-1.27,2-1.88,3.271-1.35l0,0c1.279,0.53,1.88,1.99,1.359,3.27l0,0
						c-0.399,0.96-1.33,1.54-2.319,1.54l0,0C31.447,6.431,31.117,6.371,30.808,6.241z M24.548,5L24.548,5L24.548,5L24.548,5
						L24.548,5z M22.048,2.5c0-1.38,1.119-2.5,2.5-2.5l0,0c1.38,0,2.5,1.12,2.5,2.5l0,0c0,1.38-1.12,2.5-2.5,2.5l0,0
						C23.167,5,22.048,3.881,22.048,2.5z"/>
				</g>
				<g>
					<path style="fill:#44444D;" d="M37.878,10.521c-0.65,0-1.301-0.26-1.761-0.73c-0.47-0.46-0.739-1.11-0.739-1.77
						c0-0.66,0.27-1.3,0.739-1.76c0.92-0.93,2.59-0.94,3.53,0c0.47,0.46,0.74,1.11,0.74,1.76c0,0.66-0.271,1.3-0.74,1.77
						C39.178,10.261,38.537,10.521,37.878,10.521z"/>
				</g>
			</g>
			<g>
				<g>
					<path style="fill:#44444D;" d="M37.878,37.191c-0.66,0-1.301-0.271-1.771-0.74c-0.46-0.461-0.729-1.11-0.729-1.76
						c0-0.66,0.27-1.311,0.729-1.771c0.93-0.931,2.6-0.931,3.54,0c0.47,0.46,0.73,1.11,0.73,1.771c0,0.649-0.261,1.299-0.73,1.76
						C39.178,36.921,38.537,37.191,37.878,37.191z"/>
				</g>
				<g>
					<path style="fill:#44444D;" d="M22.048,40.211c0-1.381,1.109-2.5,2.5-2.5l0,0c1.38,0,2.5,1.109,2.5,2.5l0,0
						c0,1.38-1.12,2.5-2.5,2.5l0,0C23.167,42.711,22.048,41.591,22.048,40.211z M29.447,39.74c-0.52-1.279,0.08-2.74,1.36-3.27l0,0
						c1.27-0.529,2.74,0.08,3.26,1.35l0,0c0.53,1.28-0.07,2.74-1.35,3.271l0,0l0,0l0,0c-0.311,0.13-0.641,0.19-0.95,0.19l0,0
						C30.777,41.281,29.848,40.701,29.447,39.74z M16.378,41.091c-1.28-0.53-1.881-1.99-1.36-3.271l0,0
						c0.53-1.27,1.99-1.879,3.27-1.35l0,0c1.28,0.529,1.88,1.99,1.351,3.27l0,0c-0.391,0.961-1.32,1.541-2.311,1.541l0,0
						C17.018,41.281,16.688,41.221,16.378,41.091z"/>
				</g>
				<g>
					<path style="fill:#44444D;" d="M11.218,37.191c-0.66,0-1.311-0.271-1.771-0.74c-0.46-0.461-0.729-1.101-0.729-1.76
						c0-0.66,0.27-1.311,0.729-1.771c0.931-0.931,2.61-0.931,3.54,0c0.46,0.47,0.73,1.11,0.73,1.771c0,0.649-0.271,1.299-0.73,1.76
						C12.518,36.921,11.878,37.191,11.218,37.191z"/>
				</g>
			</g>
			<g>
				<polygon style="fill:#44444D;" points="26.963,24.814 28.451,20.226 24.549,17.39 20.646,20.226 22.136,24.814 				"/>
				<path style="fill:#44444D;" d="M28.237,13.284l-0.448-0.749c-1.015-0.371-2.102-0.582-3.24-0.582s-2.226,0.211-3.238,0.582
					l-0.452,0.749l3.69,1.445L28.237,13.284z"/>
				<path style="fill:#44444D;" d="M32.5,16.304l-0.831-0.275l-0.607,3.917l2.222,3.28l0.632-0.603
					c0.051-0.4,0.088-0.802,0.088-1.216C34.003,19.527,33.445,17.776,32.5,16.304z"/>
				<path style="fill:#44444D;" d="M28.185,27.004l-2.3,3.225l0.783,0.384c2.207-0.507,4.113-1.783,5.429-3.534l-0.028-0.869
					L28.185,27.004z"/>
				<path style="fill:#44444D;" d="M17.027,26.209l-0.025,0.869c1.315,1.751,3.22,3.027,5.427,3.534l0.786-0.384l-2.304-3.225
					L17.027,26.209z"/>
				<path style="fill:#44444D;" d="M17.429,16.027l-0.831,0.277c-0.947,1.473-1.504,3.223-1.504,5.104
					c0,0.414,0.038,0.815,0.09,1.214l0.63,0.604l2.221-3.28L17.429,16.027z"/>
			</g>
		</g>
		<g>
			<path style="fill:#44444D;" d="M4.649,30.033H4.454c-2.456,0-4.454-2-4.454-4.457v-8.44c0-2.458,1.998-4.458,4.454-4.458h0.195
				c2.456,0,4.454,2,4.454,4.458c0,1.02-0.826,1.846-1.846,1.846s-1.846-0.827-1.846-1.846c0-0.415-0.35-0.765-0.763-0.765H4.454
				c-0.413,0-0.763,0.35-0.763,0.765v8.44c0,0.414,0.35,0.766,0.763,0.766h0.195c0.42,0,0.763-0.344,0.763-0.766v-1.838
				c-0.798-0.204-1.387-0.928-1.387-1.789c0-1.02,0.826-1.846,1.846-1.846h1.387c1.02,0,1.846,0.827,1.846,1.846v3.626
				C9.104,28.033,7.105,30.033,4.649,30.033z"/>
		</g>
		<g>
			<g>
				<path style="fill:#44444D;" d="M44.557,30.033h-0.189c-2.459,0-4.46-2-4.46-4.457v-8.44c0-2.458,2.001-4.458,4.46-4.458h0.189
					c2.458,0,4.458,2,4.458,4.458v8.44C49.015,28.033,47.015,30.033,44.557,30.033z M44.367,16.371c-0.416,0-0.769,0.35-0.769,0.765
					v8.44c0,0.414,0.353,0.766,0.769,0.766h0.189c0.415,0,0.767-0.352,0.767-0.766v-8.44c0-0.415-0.352-0.765-0.767-0.765H44.367z"
					/>
			</g>
			<g>
				<path style="fill:#44444D;" d="M49.78,30.033c-2.458,0-4.457-2-4.457-4.457c0-1.02,0.826-1.847,1.846-1.847
					s1.846,0.827,1.846,1.847c0,0.422,0.344,0.766,0.766,0.766c1.02,0,1.846,0.826,1.846,1.846S50.8,30.033,49.78,30.033z"/>
			</g>
		</g>
		<g>
			<path style="fill:#44444D;" d="M55.846,30.033c-2.457,0-4.456-2-4.456-4.457V14.524c0-1.02,0.826-1.846,1.846-1.846
				s1.846,0.827,1.846,1.846v11.052c0,0.422,0.343,0.766,0.765,0.766c1.02,0,1.846,0.826,1.846,1.846S56.865,30.033,55.846,30.033z"
				/>
		</g>
	</g>
</g>
<g id="Layer_1">
</g>
</svg>
