<?xml version="1.0" encoding="iso-8859-1"?>
<!-- Generator: Adobe Illustrator 16.0.0, SVG Export Plug-In . SVG Version: 6.00 Build 0)  -->
<!DOCTYPE svg PUBLIC "-//W3C//DTD SVG 1.1//EN" "http://www.w3.org/Graphics/SVG/1.1/DTD/svg11.dtd">
<svg version="1.1" xmlns="http://www.w3.org/2000/svg" xmlns:xlink="http://www.w3.org/1999/xlink" x="0px" y="0px"
	 width="57.691px" height="39.127px" viewBox="0 0 57.691 39.127" style="enable-background:new 0 0 57.691 39.127;"
	 xml:space="preserve">
<g id="_x30_6_x5F_soccer_x5F_goal">
	<g>
		<g>
			<g>
				<path style="fill:#44444D;" d="M52.378,33.921c-1.02,0-1.846-0.827-1.846-1.847V7.029c0-1.84-1.498-3.337-3.338-3.337l-36.696,0
					c-1.84,0-3.338,1.497-3.338,3.337v25.044c0,1.02-0.826,1.847-1.846,1.847s-1.846-0.827-1.846-1.847V7.03
					C3.469,3.154,6.622,0,10.498,0l36.696,0c3.876,0,7.029,3.154,7.029,7.03v25.045C54.224,33.094,53.397,33.921,52.378,33.921z"/>
			</g>
		</g>
		<g>
			<path style="fill:#44444D;" d="M30.556,28.984H10.252c-1.02,0-1.846-0.826-1.846-1.846s0.826-1.847,1.846-1.847h20.304
				c1.02,0,1.846,0.827,1.846,1.847S31.575,28.984,30.556,28.984z"/>
		</g>
		<g>
			<path style="fill:#44444D;" d="M55.846,39.127h-54C0.826,39.127,0,38.301,0,37.281s0.826-1.847,1.846-1.847h54
				c1.02,0,1.846,0.827,1.846,1.847S56.865,39.127,55.846,39.127z"/>
		</g>
		<g>
			<path style="fill:#44444D;" d="M33.029,20.714H10.252c-1.02,0-1.846-0.827-1.846-1.846s0.826-1.846,1.846-1.846h22.777
				c1.02,0,1.846,0.827,1.846,1.846S34.049,20.714,33.029,20.714z"/>
		</g>
		<g>
			<path style="fill:#44444D;" d="M47.44,12.445H10.252c-1.02,0-1.846-0.827-1.846-1.846s0.826-1.846,1.846-1.846H47.44
				c1.02,0,1.846,0.827,1.846,1.846S48.46,12.445,47.44,12.445z"/>
		</g>
		<g>
			<g>
				<path style="fill:#44444D;" d="M36.839,17.305c-1.02,0-1.846-0.827-1.846-1.846V6.744c0-1.02,0.826-1.846,1.846-1.846
					s1.846,0.827,1.846,1.846v8.715C38.685,16.479,37.858,17.305,36.839,17.305z"/>
			</g>
			<g>
				<path style="fill:#44444D;" d="M28.846,33.921c-1.02,0-1.846-0.827-1.846-1.847V6.744c0-1.02,0.826-1.846,1.846-1.846
					s1.846,0.827,1.846,1.846v25.331C30.691,33.094,29.865,33.921,28.846,33.921z"/>
			</g>
			<g>
				<path style="fill:#44444D;" d="M44.83,16.96c-1.02,0-1.846-0.827-1.846-1.846v-8.37c0-1.02,0.826-1.846,1.846-1.846
					s1.846,0.827,1.846,1.846v8.37C46.676,16.133,45.85,16.96,44.83,16.96z"/>
			</g>
			<g>
				<path style="fill:#44444D;" d="M20.854,33.921c-1.02,0-1.846-0.827-1.846-1.847V6.744c0-1.02,0.826-1.846,1.846-1.846
					s1.846,0.827,1.846,1.846v25.331C22.699,33.094,21.873,33.921,20.854,33.921z"/>
			</g>
			<g>
				<path style="fill:#44444D;" d="M12.862,33.921c-1.02,0-1.846-0.827-1.846-1.847V6.744c0-1.02,0.826-1.846,1.846-1.846
					s1.846,0.827,1.846,1.846v25.331C14.708,33.094,13.882,33.921,12.862,33.921z"/>
			</g>
		</g>
		<g>
			<path style="fill:#44444D;" d="M41.49,33.502c-4.348,0-7.884-3.535-7.884-7.883c0-4.347,3.536-7.883,7.884-7.883
				c4.347,0,7.882,3.537,7.882,7.883C49.372,29.967,45.837,33.502,41.49,33.502z M41.49,21.428c-2.312,0-4.192,1.881-4.192,4.191
				s1.881,4.191,4.192,4.191c2.311,0,4.19-1.881,4.19-4.191S43.801,21.428,41.49,21.428z"/>
		</g>
	</g>
</g>
<g id="Layer_1">
</g>
</svg>
