<?xml version="1.0" encoding="iso-8859-1"?>
<!-- Generator: Adobe Illustrator 16.0.0, SVG Export Plug-In . SVG Version: 6.00 Build 0)  -->
<!DOCTYPE svg PUBLIC "-//W3C//DTD SVG 1.1//EN" "http://www.w3.org/Graphics/SVG/1.1/DTD/svg11.dtd">
<svg version="1.1" xmlns="http://www.w3.org/2000/svg" xmlns:xlink="http://www.w3.org/1999/xlink" x="0px" y="0px" width="59px"
	 height="55.753px" viewBox="0 0 59 55.753" style="enable-background:new 0 0 59 55.753;" xml:space="preserve">
<g id="_x30_7_x5F_soccer_x5F_emblem">
	<g>
		<g>
			<path style="fill:#44444D;" d="M29.499,48.03c-0.169,0-0.338-0.023-0.502-0.069c-0.223-0.063-22.248-6.646-22.248-37.249
				c0-0.501,0.203-0.98,0.563-1.329c0.36-0.348,0.829-0.53,1.349-0.516c10.828,0.381,19.434-8.228,19.52-8.315
				C28.527,0.2,29.003,0,29.498,0c0.001,0,0.002,0,0.003,0c0.496,0,0.972,0.2,1.318,0.555c0.084,0.085,8.687,8.697,19.518,8.313
				c0.991-0.04,1.875,0.759,1.911,1.779c0.037,1.019-0.76,1.875-1.778,1.911c-9.944,0.349-17.924-5.563-20.971-8.2
				c-2.846,2.463-9.998,7.789-19.029,8.191c0.752,23.833,16.068,30.603,19.037,31.692c2.896-1.029,16.687-7.004,18.785-28.028
				c0.102-1.015,1.004-1.755,2.021-1.654c1.015,0.101,1.755,1.006,1.653,2.02C49.41,42.186,30.793,47.736,30.001,47.961
				C29.837,48.007,29.668,48.03,29.499,48.03z"/>
		</g>
		<g>
			<g>
				<path style="fill:#44444D;" d="M29.5,37.951c-7.686,0-13.938-6.252-13.938-13.937S21.814,10.078,29.5,10.078
					c7.685,0,13.937,6.252,13.937,13.937S37.185,37.951,29.5,37.951z M29.5,13.771c-5.65,0-10.247,4.595-10.247,10.244
					c0,5.649,4.597,10.245,10.247,10.245c5.649,0,10.245-4.596,10.245-10.245C39.745,18.366,35.149,13.771,29.5,13.771z"/>
			</g>
			<g>
				<polygon style="fill:#44444D;" points="31.764,27.262 33.164,22.951 29.5,20.288 25.834,22.951 27.234,27.262 				"/>
				<path style="fill:#44444D;" d="M32.963,16.432l-0.422-0.703c-0.951-0.348-1.973-0.546-3.041-0.546
					c-1.07,0-2.092,0.199-3.043,0.546l-0.421,0.703l3.464,1.359L32.963,16.432z"/>
				<path style="fill:#44444D;" d="M36.965,19.269l-0.781-0.258l-0.566,3.676l2.084,3.082l0.594-0.565
					c0.047-0.376,0.081-0.755,0.081-1.141C38.376,22.294,37.854,20.652,36.965,19.269z"/>
				<path style="fill:#44444D;" d="M32.915,29.318l-2.162,3.024l0.738,0.36c2.072-0.475,3.86-1.674,5.098-3.316l-0.028-0.816
					L32.915,29.318z"/>
				<path style="fill:#44444D;" d="M22.439,28.57l-0.03,0.816c1.237,1.643,3.025,2.842,5.098,3.316l0.738-0.36l-2.162-3.024
					L22.439,28.57z"/>
				<path style="fill:#44444D;" d="M22.814,19.01l-0.78,0.258c-0.89,1.384-1.411,3.025-1.411,4.793c0,0.386,0.033,0.765,0.08,1.14
					l0.596,0.566l2.083-3.082L22.814,19.01z"/>
			</g>
		</g>
		<g>
			<g>
				<path style="fill:#44444D;" d="M56.5,18.783c-0.66,0-1.301-0.27-1.771-0.74c-0.46-0.46-0.729-1.11-0.729-1.76
					c0-0.66,0.27-1.31,0.729-1.77c0.93-0.93,2.61-0.93,3.54,0c0.46,0.46,0.73,1.11,0.73,1.77c0,0.65-0.271,1.3-0.73,1.76
					C57.8,18.513,57.159,18.783,56.5,18.783z"/>
			</g>
			<g>
				<path style="fill:#44444D;" d="M27.079,53.893c-0.35-1.34,0.45-2.709,1.78-3.06l0,0c1.34-0.351,2.7,0.44,3.061,1.78l0,0
					c0.35,1.33-0.44,2.699-1.78,3.05l0,0c-0.21,0.06-0.43,0.09-0.64,0.09l0,0C28.39,55.753,27.38,55.014,27.079,53.893z
					 M20.84,52.053c-1.181-0.709-1.57-2.25-0.86-3.43l0,0c0.71-1.189,2.25-1.57,3.43-0.859l0,0c1.19,0.709,1.57,2.25,0.86,3.43l0,0
					c-0.47,0.779-1.3,1.21-2.15,1.21l0,0C21.689,52.403,21.239,52.293,20.84,52.053z M34.729,51.193
					c-0.71-1.18-0.33-2.721,0.86-3.43l0,0c1.18-0.711,2.72-0.33,3.43,0.859l0,0c0.71,1.18,0.32,2.721-0.86,3.43l0,0l0,0l0,0
					c-0.399,0.24-0.85,0.351-1.279,0.351l0,0C36.029,52.403,35.199,51.973,34.729,51.193z M13.96,46.883L13.96,46.883L13.96,46.883
					c-1.011-0.939-1.07-2.52-0.131-3.529l0,0c0.931-1.01,2.521-1.07,3.53-0.141v0.01c1.01,0.931,1.07,2.521,0.13,3.53l0,0
					c-0.489,0.53-1.16,0.8-1.83,0.8l0,0C15.05,47.553,14.439,47.333,13.96,46.883z M41.51,46.753c-0.94-1.01-0.88-2.6,0.13-3.54l0,0
					c1.01-0.939,2.59-0.88,3.53,0.131l0,0c0.939,1.02,0.88,2.6-0.13,3.539l0,0c-0.48,0.45-1.091,0.67-1.7,0.67l0,0
					C42.67,47.553,42,47.283,41.51,46.753z M8.3,40.413c-0.8-1.13-0.53-2.69,0.6-3.49l0,0c1.12-0.79,2.68-0.53,3.48,0.601l0,0
					c0.8,1.13,0.529,2.689-0.601,3.49l0,0c-0.439,0.31-0.939,0.459-1.439,0.459l0,0C9.56,41.473,8.779,41.104,8.3,40.413z
					 M47.22,41.014c-1.13-0.801-1.4-2.36-0.601-3.49l0,0c0.79-1.131,2.351-1.4,3.48-0.601l0,0c1.13,0.8,1.4,2.36,0.6,3.48l0,0
					c-0.479,0.69-1.26,1.06-2.04,1.06l0,0C48.159,41.463,47.659,41.313,47.22,41.014z M4.079,32.943
					c-0.56-1.271,0.021-2.74,1.28-3.301l0,0c1.26-0.56,2.74,0.011,3.3,1.28l0,0c0.551,1.261-0.02,2.74-1.279,3.3l0,0
					c-0.33,0.141-0.67,0.211-1.011,0.211l0,0C5.409,34.434,4.489,33.873,4.079,32.943z M51.619,34.213
					c-1.26-0.56-1.84-2.029-1.279-3.29l0,0c0.56-1.27,2.04-1.84,3.3-1.28l0,0c1.26,0.551,1.83,2.03,1.28,3.291l0,0l0,0l0,0
					c-0.41,0.939-1.33,1.5-2.29,1.5l0,0C52.29,34.434,51.949,34.363,51.619,34.213z M1.359,24.863c-0.319-1.35,0.5-2.7,1.84-3.02
					l0,0c1.351-0.33,2.7,0.5,3.021,1.84l0,0c0.33,1.34-0.5,2.69-1.84,3.02l0,0c-0.19,0.05-0.391,0.07-0.59,0.07l0,0
					C2.659,26.773,1.64,26.003,1.359,24.863z M54.619,26.693c-1.35-0.32-2.17-1.67-1.85-3.01h0.01c0.32-1.35,1.67-2.17,3.011-1.84
					l0,0c1.34,0.32,2.17,1.67,1.85,3.01l0,0c-0.28,1.15-1.311,1.92-2.43,1.92l0,0C55.01,26.773,54.819,26.743,54.619,26.693z"/>
			</g>
			<g>
				<path style="fill:#44444D;" d="M2.5,18.773c-0.66,0-1.301-0.26-1.771-0.73C0.27,17.583,0,16.933,0,16.273
					c0-0.65,0.27-1.3,0.729-1.76c0.93-0.94,2.61-0.94,3.54,0c0.46,0.46,0.73,1.11,0.73,1.76c0,0.66-0.271,1.31-0.73,1.77
					C3.8,18.513,3.159,18.773,2.5,18.773z"/>
			</g>
		</g>
	</g>
</g>
<g id="Layer_1">
</g>
</svg>
