<?xml version="1.0" encoding="iso-8859-1"?>
<!-- Generator: Adobe Illustrator 16.0.0, SVG Export Plug-In . SVG Version: 6.00 Build 0)  -->
<!DOCTYPE svg PUBLIC "-//W3C//DTD SVG 1.1//EN" "http://www.w3.org/Graphics/SVG/1.1/DTD/svg11.dtd">
<svg version="1.1" xmlns="http://www.w3.org/2000/svg" xmlns:xlink="http://www.w3.org/1999/xlink" x="0px" y="0px"
	 width="58.707px" height="58.855px" viewBox="0 0 58.707 58.855" style="enable-background:new 0 0 58.707 58.855;"
	 xml:space="preserve">
<g id="_x30_8_x5F_soccer_x5F_logo">
	<g>
		<g>
			<path style="fill:#44444D;" d="M29.21,51.918c-12.4,0-22.488-10.087-22.488-22.486c0-12.4,10.088-22.489,22.488-22.489
				c12.403,0,22.491,10.088,22.491,22.489C51.701,41.831,41.613,51.918,29.21,51.918z M29.21,10.635
				c-10.364,0-18.797,8.432-18.797,18.796c0,10.363,8.433,18.795,18.797,18.795c10.366,0,18.799-8.432,18.799-18.795
				C48.01,19.067,39.576,10.635,29.21,10.635z"/>
		</g>
		<g>
			<path style="fill:#44444D;" d="M28.757,56.535c-0.101-1.38,0.93-2.57,2.309-2.68l0,0c1.381-0.1,2.58,0.93,2.68,2.311l0,0
				c0.102,1.379-0.93,2.58-2.309,2.68l0,0l0,0l0,0c-0.061,0-0.121,0.01-0.191,0.01l0,0C29.957,58.855,28.857,57.855,28.757,56.535z
				 M22.677,58.205c0,0,0,0,0.01,0l0,0c-1.351-0.31-2.2-1.65-1.891-2.99l0,0c0.301-1.35,1.641-2.189,2.99-1.89l0,0
				c1.34,0.31,2.19,1.64,1.88,2.99l0,0c-0.26,1.16-1.29,1.95-2.43,1.95l0,0C23.057,58.266,22.867,58.246,22.677,58.205z
				 M36.768,55.476c-0.5-1.28,0.129-2.729,1.41-3.24l0,0c1.289-0.51,2.738,0.13,3.238,1.41l0,0c0.512,1.29-0.119,2.739-1.408,3.239
				l0,0c-0.301,0.121-0.611,0.181-0.91,0.181l0,0C38.098,57.065,37.156,56.465,36.768,55.476z M14.497,54.996
				c-1.2-0.691-1.609-2.211-0.92-3.41l0,0c0.69-1.201,2.22-1.61,3.41-0.92l0,0c1.2,0.689,1.61,2.219,0.92,3.42l0,0
				c-0.46,0.799-1.3,1.25-2.17,1.25l0,0C15.317,55.336,14.887,55.226,14.497,54.996z M44.107,52.096
				c-0.871-1.08-0.691-2.66,0.389-3.521l0,0c1.08-0.86,2.65-0.69,3.512,0.39l0,0c0.869,1.08,0.689,2.65-0.391,3.521l0,0l0,0l0,0
				c-0.461,0.36-1.01,0.54-1.561,0.54l0,0C45.326,53.025,44.598,52.705,44.107,52.096z M7.617,49.525
				c-0.939-1.01-0.88-2.59,0.13-3.529l0,0c1-0.941,2.59-0.881,3.53,0.129l0,0c0.94,1.01,0.88,2.59-0.13,3.53l0,0
				c-0.48,0.45-1.09,0.67-1.7,0.67l0,0C8.777,50.325,8.107,50.055,7.617,49.525z M50.117,46.695c-1.141-0.779-1.43-2.33-0.65-3.47
				l0,0c0.779-1.15,2.33-1.44,3.471-0.66l0,0c1.139,0.78,1.43,2.34,0.66,3.479l0,0c0,0,0,0,0-0.01l0,0
				c-0.49,0.711-1.271,1.1-2.07,1.1l0,0C51.037,47.135,50.547,46.996,50.117,46.695z M2.647,42.275c-0.601-1.24-0.08-2.73,1.16-3.33
				l0,0c1.239-0.609,2.739-0.09,3.34,1.15l0,0c0.6,1.25,0.08,2.74-1.16,3.34l0,0c-0.35,0.17-0.72,0.26-1.09,0.26l0,0
				C3.967,43.695,3.077,43.176,2.647,42.275z M54.287,39.775c-1.32-0.41-2.061-1.811-1.66-3.13l0,0
				c0.41-1.32,1.811-2.06,3.131-1.649l0,0c1.318,0.409,2.059,1.809,1.648,3.129l0,0c-0.33,1.07-1.32,1.76-2.389,1.76l0,0
				C54.777,39.885,54.527,39.855,54.287,39.775z M0.046,33.885c-0.21-1.369,0.73-2.639,2.101-2.85l0,0c1.36-0.21,2.64,0.73,2.84,2.1
				l0,0c0.21,1.361-0.729,2.641-2.1,2.841l0,0c-0.12,0.021-0.25,0.03-0.37,0.03l0,0C1.296,36.006,0.227,35.125,0.046,33.885z
				 M53.707,29.436c0-0.02,0-0.04,0-0.06l0,0c0-0.02,0-0.03,0-0.05l0,0c0-1.38,1.109-2.5,2.49-2.51l0,0c1.379,0,2.51,1.11,2.51,2.49
				l0,0c0,0.01,0,0.02,0,0.02l0,0c0,0.04,0,0.07,0,0.11l0,0c0,1.38-1.109,2.5-2.5,2.5l0,0
				C54.826,31.936,53.707,30.815,53.707,29.436z M2.137,27.936c-1.37-0.2-2.311-1.47-2.11-2.84l0,0c0.2-1.36,1.47-2.31,2.84-2.1l0,0
				c1.36,0.2,2.311,1.47,2.11,2.83l0,0c-0.19,1.25-1.26,2.14-2.47,2.14l0,0C2.376,27.965,2.257,27.956,2.137,27.936z M52.598,22.115
				L52.598,22.115c-0.41-1.32,0.33-2.72,1.639-3.13l0,0c1.32-0.41,2.721,0.32,3.141,1.64l0,0c0.41,1.32-0.33,2.72-1.641,3.13l0,0
				c-0.25,0.08-0.5,0.12-0.75,0.12l0,0C53.916,23.875,52.938,23.186,52.598,22.115z M3.767,20.025c-1.24-0.6-1.771-2.09-1.17-3.33
				l0,0c0.6-1.25,2.09-1.77,3.34-1.18l0,0c1.24,0.6,1.77,2.09,1.17,3.34l0,0c-0.43,0.89-1.33,1.42-2.26,1.42l0,0
				C4.487,20.275,4.117,20.195,3.767,20.025z M49.406,15.555L49.406,15.555c-0.779-1.14-0.5-2.69,0.641-3.47l0,0
				c1.141-0.79,2.689-0.5,3.48,0.63l0,0c0.779,1.14,0.49,2.7-0.65,3.48l0,0c-0.43,0.3-0.92,0.44-1.41,0.44l0,0
				C50.666,16.635,49.887,16.255,49.406,15.555z M7.677,12.956c-1.021-0.94-1.08-2.52-0.141-3.53l0,0
				c0.94-1.02,2.521-1.08,3.53-0.14l0,0c1.02,0.93,1.08,2.51,0.14,3.53l0,0c-0.489,0.53-1.16,0.8-1.83,0.8l0,0
				C8.767,13.615,8.157,13.396,7.677,12.956z M44.416,10.226c-1.08-0.86-1.26-2.43-0.408-3.52l0,0c0.859-1.08,2.43-1.26,3.52-0.4
				l0,0c1.08,0.86,1.26,2.43,0.4,3.51l0,0c-0.49,0.62-1.221,0.95-1.961,0.95l0,0C45.428,10.766,44.877,10.585,44.416,10.226z
				 M13.487,7.345c-0.7-1.2-0.29-2.73,0.9-3.42l0,0c1.189-0.7,2.729-0.29,3.42,0.9l0,0c0.689,1.19,0.29,2.72-0.9,3.42l0,0
				c-0.399,0.23-0.83,0.34-1.26,0.34l0,0C14.787,8.585,13.947,8.135,13.487,7.345z M38.086,6.585L38.086,6.585
				c-1.289-0.5-1.93-1.94-1.43-3.23l0,0c0.51-1.29,1.951-1.93,3.24-1.43l0,0c1.291,0.5,1.92,1.95,1.43,3.24l0,0
				c-0.389,0.99-1.34,1.59-2.34,1.59l0,0C38.688,6.755,38.387,6.706,38.086,6.585z M20.687,3.686c-0.311-1.35,0.53-2.69,1.87-3l0,0
				c1.35-0.31,2.689,0.53,3,1.88l0,0c0.31,1.34-0.53,2.68-1.87,2.99l0,0c-0.19,0.05-0.38,0.07-0.561,0.07l0,0
				C21.987,5.625,20.957,4.835,20.687,3.686z M30.967,4.996L30.967,4.996c-1.38-0.1-2.41-1.29-2.32-2.67l0,0
				c0.1-1.38,1.29-2.41,2.669-2.32l0,0l0,0l0,0c1.381,0.1,2.42,1.3,2.32,2.67l0,0c-0.09,1.32-1.189,2.33-2.49,2.33l0,0
				C31.086,5.005,31.027,4.996,30.967,4.996z"/>
		</g>
		<g>
			<polygon style="fill:#44444D;" points="33.33,35.34 35.875,27.505 29.21,22.665 22.55,27.505 25.095,35.34 			"/>
			<path style="fill:#44444D;" d="M35.506,15.656l-0.766-1.277c-1.727-0.633-3.584-0.994-5.53-0.994c-1.943,0-3.8,0.361-5.526,0.994
				l-0.769,1.277l6.295,2.468L35.506,15.656z"/>
			<path style="fill:#44444D;" d="M42.779,20.813l-1.416-0.469l-1.033,6.684l3.789,5.6l1.08-1.029
				c0.086-0.682,0.148-1.369,0.148-2.074C45.348,26.312,44.398,23.326,42.779,20.813z"/>
			<path style="fill:#44444D;" d="M35.422,39.077l-3.932,5.5l1.344,0.657c3.764-0.864,7.016-3.045,9.266-6.031l-0.053-1.484
				L35.422,39.077z"/>
			<path style="fill:#44444D;" d="M16.376,37.719l-0.051,1.484c2.248,2.986,5.502,5.167,9.267,6.031l1.343-0.657l-3.933-5.5
				L16.376,37.719z"/>
			<path style="fill:#44444D;" d="M17.062,20.34l-1.418,0.473c-1.62,2.513-2.57,5.499-2.57,8.711c0,0.705,0.065,1.392,0.151,2.072
				l1.077,1.029l3.789-5.601L17.062,20.34z"/>
		</g>
	</g>
</g>
<g id="Layer_1">
</g>
</svg>
