<?xml version="1.0" encoding="iso-8859-1"?>
<!-- Generator: Adobe Illustrator 16.0.0, SVG Export Plug-In . SVG Version: 6.00 Build 0)  -->
<!DOCTYPE svg PUBLIC "-//W3C//DTD SVG 1.1//EN" "http://www.w3.org/Graphics/SVG/1.1/DTD/svg11.dtd">
<svg version="1.1" xmlns="http://www.w3.org/2000/svg" xmlns:xlink="http://www.w3.org/1999/xlink" x="0px" y="0px"
	 width="57.692px" height="41.005px" viewBox="0 0 57.692 41.005" style="enable-background:new 0 0 57.692 41.005;"
	 xml:space="preserve">
<g id="_x30_9_x5F_tshirt">
	<g>
		<g>
			<path style="fill:#44444D;" d="M53.426,16.127c-0.529,0-1.055-0.227-1.42-0.665c-2.043-2.453-8.044-9.125-11.234-10.525
				c-0.519-0.226-1.046-0.421-1.562-0.578c-0.975-0.297-1.524-1.33-1.227-2.305c0.297-0.975,1.329-1.523,2.305-1.227
				c0.649,0.198,1.309,0.442,1.961,0.726C46.813,3.556,54.035,12.128,54.843,13.1c0.652,0.783,0.547,1.947-0.237,2.6
				C54.261,15.987,53.842,16.127,53.426,16.127z"/>
		</g>
		<g>
			<path style="fill:#44444D;" d="M47.713,27.031c-0.022,0-0.045,0-0.067-0.002c-0.496-0.018-0.965-0.234-1.299-0.603l-4.437-4.88
				c-0.687-0.754-0.631-1.922,0.124-2.607c0.754-0.686,1.921-0.631,2.607,0.124l3.167,3.483l6.766-6.436
				c0.739-0.703,1.907-0.672,2.61,0.065c0.702,0.739,0.673,1.907-0.065,2.61l-8.134,7.737C48.642,26.85,48.186,27.031,47.713,27.031
				z"/>
		</g>
		<g>
			<path style="fill:#44444D;" d="M4.268,16.127c-0.417,0-0.836-0.14-1.181-0.428c-0.783-0.652-0.89-1.816-0.237-2.6
				c0.809-0.971,8.03-9.543,12.588-11.543c0.659-0.287,1.319-0.531,1.968-0.729c0.977-0.297,2.007,0.251,2.305,1.227
				s-0.252,2.007-1.227,2.305c-0.516,0.157-1.043,0.353-1.568,0.581c-3.188,1.398-9.186,8.07-11.229,10.522
				C5.322,15.9,4.797,16.127,4.268,16.127z"/>
		</g>
		<g>
			<path style="fill:#44444D;" d="M43.164,41.005H14.528c-1.02,0-1.846-0.827-1.846-1.847V15.98c0-1.02,0.826-1.846,1.846-1.846
				s1.847,0.827,1.847,1.846v21.333h24.943V15.98c0-1.02,0.826-1.846,1.846-1.846s1.847,0.827,1.847,1.846v23.178
				C45.011,40.178,44.184,41.005,43.164,41.005z"/>
		</g>
		<g>
			<path style="fill:#44444D;" d="M28.847,10.126c-6.499,0-8.402-5.374-8.501-8.216c-0.035-1.019,0.762-1.874,1.781-1.909
				c1.041-0.014,1.868,0.757,1.908,1.771c0.038,0.783,0.448,4.661,4.812,4.661c4.52,0,4.795-4.175,4.811-4.651
				c0.036-1.019,0.888-1.807,1.909-1.781c1.02,0.036,1.816,0.89,1.781,1.909C37.249,4.752,35.346,10.126,28.847,10.126z"/>
		</g>
		<g>
			<path style="fill:#44444D;" d="M9.98,27.031c-0.473,0-0.929-0.182-1.272-0.508l-8.134-7.737c-0.739-0.703-0.769-1.872-0.065-2.61
				c0.703-0.738,1.871-0.768,2.61-0.065l6.766,6.436l3.167-3.483c0.687-0.755,1.854-0.81,2.607-0.124
				c0.754,0.686,0.81,1.854,0.124,2.607l-4.438,4.88c-0.334,0.368-0.802,0.585-1.299,0.603C10.024,27.031,10.002,27.031,9.98,27.031
				z"/>
		</g>
		<g>
			<path style="fill:#44444D;" d="M23.785,30.756c-1.02,0-1.846-0.826-1.846-1.846v-7.478l-0.117,0.124
				c-0.701,0.739-1.87,0.77-2.61,0.067c-0.739-0.702-0.769-1.871-0.066-2.61l3.302-3.476c0.52-0.547,1.321-0.723,2.022-0.443
				c0.702,0.28,1.162,0.959,1.162,1.714V28.91C25.632,29.93,24.805,30.756,23.785,30.756z"/>
		</g>
		<g>
			<path style="fill:#44444D;" d="M32.482,30.756c-3.539,0-4.927-2.209-5.073-2.461c-0.513-0.881-0.214-2.012,0.668-2.523
				c0.881-0.514,2.011-0.215,2.523,0.667c0.01,0.005,0.496,0.625,1.882,0.625c0.578,0,0.991-0.153,1.265-0.468
				c0.256-0.294,0.402-0.75,0.402-1.251c0-0.829-0.444-2.063-1.667-2.063c-1.155,0-2.132,0.557-2.142,0.563
				c-0.57,0.342-1.281,0.354-1.86,0.025c-0.58-0.327-0.938-0.941-0.938-1.607v-5.453c0-1.02,0.827-1.846,1.847-1.846h5.848
				c1.02,0,1.847,0.827,1.847,1.846s-0.827,1.846-1.847,1.846h-4.002v1.039c0.391-0.065,0.81-0.105,1.248-0.105
				c3.354,0,5.358,2.927,5.358,5.756c0,1.397-0.463,2.701-1.305,3.671C35.847,29.81,34.584,30.756,32.482,30.756z"/>
		</g>
	</g>
</g>
<g id="Layer_1">
</g>
</svg>
