<?xml version="1.0" encoding="iso-8859-1"?>
<!-- Generator: Adobe Illustrator 16.0.0, SVG Export Plug-In . SVG Version: 6.00 Build 0)  -->
<!DOCTYPE svg PUBLIC "-//W3C//DTD SVG 1.1//EN" "http://www.w3.org/Graphics/SVG/1.1/DTD/svg11.dtd">
<svg version="1.1" xmlns="http://www.w3.org/2000/svg" xmlns:xlink="http://www.w3.org/1999/xlink" x="0px" y="0px"
	 width="57.675px" height="48.384px" viewBox="0 0 57.675 48.384" style="enable-background:new 0 0 57.675 48.384;"
	 xml:space="preserve">
<g id="_x31_0_x5F_shoe">
	<g>
		<g>
			<path style="fill:#44444D;" d="M8.06,47.701c-2.606,0-4.946-1.031-6.483-3.018c-2.051-2.65-2.758-7.67,1.999-13.09
				c5.512-6.283,18.706-19.8,18.838-19.936c0.522-0.534,1.313-0.702,2.008-0.423c3.921,1.572,7.393,0.653,9.616-0.394
				c4.554-2.145,7.692-6.457,8.682-9.555c0.31-0.972,1.351-1.507,2.32-1.197c0.972,0.31,1.508,1.349,1.197,2.32
				c-1.521,4.764-5.791,9.495-10.626,11.772c-3.741,1.762-7.649,2.068-11.379,0.903c-2.976,3.06-13.229,13.642-17.881,18.945
				c-2.695,3.071-3.423,6.367-1.854,8.396c1.181,1.525,3.854,2.32,7.159,0.656l37.023-18.632c3.095-1.557,5.069-4.308,5.283-7.36
				c0.255-3.622-1.948-7.242-6.204-10.194c-0.838-0.581-1.046-1.731-0.465-2.569c0.582-0.838,1.731-1.044,2.569-0.465
				c5.368,3.724,8.133,8.514,7.783,13.487c-0.307,4.364-3.038,8.251-7.307,10.399L13.315,46.378
				C11.55,47.268,9.749,47.701,8.06,47.701z"/>
		</g>
		<g>
			<path style="fill:#44444D;" d="M14.967,33.82c-0.494,0-0.987-0.197-1.35-0.587L8.949,28.23c-0.696-0.745-0.655-1.914,0.09-2.609
				c0.746-0.694,1.915-0.653,2.609,0.091l4.668,5.003c0.696,0.745,0.655,1.914-0.09,2.609C15.87,33.656,15.418,33.82,14.967,33.82z"
				/>
		</g>
		<g>
			<path style="fill:#44444D;" d="M19.557,30.132c-0.494,0-0.987-0.197-1.351-0.587l-5.2-5.578
				c-0.695-0.746-0.655-1.914,0.091-2.609c0.745-0.696,1.914-0.656,2.609,0.091l5.2,5.578c0.695,0.745,0.655,1.913-0.091,2.608
				C20.459,29.968,20.007,30.132,19.557,30.132z"/>
		</g>
		<g>
			<path style="fill:#44444D;" d="M24.146,26.439c-0.494,0-0.987-0.197-1.35-0.587l-5.72-6.13c-0.696-0.745-0.655-1.914,0.09-2.609
				c0.746-0.695,1.915-0.654,2.609,0.09l5.72,6.13c0.696,0.745,0.655,1.914-0.09,2.609C25.049,26.275,24.597,26.439,24.146,26.439z"
				/>
		</g>
		<g>
			<path style="fill:#44444D;" d="M40.116,48.384H2.693c-1.02,0-1.846-0.827-1.846-1.847s0.827-1.846,1.846-1.846h37.423
				c1.02,0,1.847,0.826,1.847,1.846S41.136,48.384,40.116,48.384z"/>
		</g>
		<g>
			<path style="fill:#44444D;" d="M49.045,48.384h-3.349c-1.02,0-1.846-0.827-1.846-1.847s0.826-1.846,1.846-1.846h3.349
				c1.02,0,1.847,0.826,1.847,1.846S50.064,48.384,49.045,48.384z"/>
		</g>
		<g>
			<path style="fill:#44444D;" d="M22.466,45.828c-0.676,0-1.327-0.373-1.651-1.018l-1.714-3.41c-0.458-0.912-0.09-2.021,0.82-2.479
				c0.911-0.459,2.021-0.092,2.479,0.82l1.714,3.41c0.458,0.91,0.09,2.021-0.82,2.479C23.027,45.764,22.745,45.828,22.466,45.828z"
				/>
		</g>
		<g>
			<path style="fill:#44444D;" d="M27.547,43.27c-0.676,0-1.326-0.373-1.651-1.018l-1.715-3.409
				c-0.458-0.911-0.091-2.021,0.82-2.479c0.91-0.459,2.02-0.09,2.479,0.82l1.715,3.409c0.458,0.911,0.091,2.021-0.82,2.479
				C28.109,43.205,27.826,43.27,27.547,43.27z"/>
		</g>
		<g>
			<path style="fill:#44444D;" d="M32.627,40.711c-0.676,0-1.326-0.372-1.651-1.017l-1.714-3.409
				c-0.458-0.91-0.091-2.021,0.82-2.479c0.91-0.46,2.02-0.092,2.479,0.819l1.715,3.409c0.458,0.91,0.091,2.021-0.819,2.479
				C33.188,40.648,32.905,40.711,32.627,40.711z"/>
		</g>
		<g>
			<path style="fill:#44444D;" d="M46.353,33.805c-0.676,0-1.327-0.372-1.651-1.017l-1.714-3.408
				c-0.458-0.911-0.091-2.021,0.82-2.479c0.909-0.459,2.021-0.091,2.479,0.82L48,31.129c0.458,0.911,0.091,2.021-0.819,2.479
				C46.914,33.742,46.631,33.805,46.353,33.805z"/>
		</g>
		<g>
			<path style="fill:#44444D;" d="M51.434,31.248c-0.676,0-1.327-0.373-1.651-1.018l-1.714-3.408
				c-0.458-0.911-0.091-2.021,0.82-2.479c0.91-0.459,2.021-0.091,2.479,0.82l1.714,3.408c0.458,0.911,0.091,2.021-0.819,2.479
				C51.995,31.184,51.712,31.248,51.434,31.248z"/>
		</g>
		<g>
			<path style="fill:#44444D;" d="M41.214,32.123c-0.676,0-1.326-0.373-1.65-1.018c-2.07-4.112-2.461-8.031-1.161-11.649
				c2.24-6.233,8.72-9.146,8.995-9.267c0.932-0.41,2.021,0.012,2.433,0.946c0.411,0.933-0.013,2.022-0.945,2.433
				c-0.049,0.022-5.329,2.425-7.016,7.159c-0.934,2.622-0.601,5.555,0.992,8.718c0.458,0.911,0.092,2.021-0.819,2.479
				C41.776,32.059,41.492,32.123,41.214,32.123z"/>
		</g>
	</g>
</g>
<g id="Layer_1">
</g>
</svg>
