<?xml version="1.0" encoding="iso-8859-1"?>
<!-- Generator: Adobe Illustrator 16.0.0, SVG Export Plug-In . SVG Version: 6.00 Build 0)  -->
<!DOCTYPE svg PUBLIC "-//W3C//DTD SVG 1.1//EN" "http://www.w3.org/Graphics/SVG/1.1/DTD/svg11.dtd">
<svg version="1.1" xmlns="http://www.w3.org/2000/svg" xmlns:xlink="http://www.w3.org/1999/xlink" x="0px" y="0px" width="46.4px"
	 height="57.692px" viewBox="0 0 46.4 57.692" style="enable-background:new 0 0 46.4 57.692;" xml:space="preserve">
<g id="_x31_1_x5F_player">
	<g>
		<g>
			<path style="fill:#44444D;" d="M22.056,34.752c-0.641,0-1.264-0.334-1.604-0.93c-0.506-0.886-0.199-2.014,0.687-2.52
				c7.405-4.232,11.352-8.945,12.426-14.833c0.479-2.625-0.075-6.518-2.393-9.296c-1.926-2.31-4.707-3.481-8.266-3.481
				c-5.556,0-9.52,3.079-10.603,8.235c-1.064,5.067,1.17,11.652,7.5,14.435c0.934,0.41,1.357,1.5,0.947,2.433
				c-0.41,0.934-1.499,1.357-2.433,0.947c-8.132-3.574-10.999-12.049-9.628-18.573C9.824,5.77,14.154,0,22.906,0
				c5.861,0,9.272,2.615,11.102,4.808c3.293,3.948,3.775,9.106,3.188,12.323C35.51,26.383,28.27,31.479,22.97,34.508
				C22.681,34.674,22.367,34.752,22.056,34.752z"/>
		</g>
		<g>
			<path style="fill:#44444D;" d="M44.555,57.692H1.846C0.827,57.692,0,56.865,0,55.846S0.827,54,1.846,54h40.853
				c-0.063-6.684-0.479-11.068-1.238-13.048c-0.976-2.548-5.247-4.925-7.902-6.125c-2.434,4.14-6.217,6.562-10.384,6.562
				c0,0,0,0,0,0c-4.117,0-7.868-2.424-10.293-6.566c-3.048,1.363-6.995,3.768-7.898,6.128c-0.991,2.577-0.945,5.04-0.897,7.647
				c0.011,0.565,0.021,1.129,0.021,1.691c0,1.02-0.827,1.847-1.846,1.847s-1.846-0.827-1.846-1.847c0-0.539-0.01-1.08-0.02-1.623
				c-0.053-2.847-0.107-5.791,1.141-9.038c2.002-5.233,10.593-8.526,11.565-8.886c0.907-0.33,1.913,0.087,2.315,0.962
				c1.751,3.808,4.579,5.992,7.758,5.993c3.191,0,6.128-2.24,7.854-5.994c0.402-0.875,1.41-1.293,2.315-0.961
				c0.973,0.359,9.562,3.652,11.565,8.889c1.338,3.482,1.492,10.922,1.492,16.215C46.4,56.865,45.574,57.692,44.555,57.692z"/>
		</g>
		<g>
			<path style="fill:#44444D;" d="M32.039,51.056c-2.723,0-4.937-2.214-4.937-4.937c0-2.721,2.214-4.936,4.937-4.936
				c2.722,0,4.937,2.215,4.937,4.936C36.976,48.842,34.761,51.056,32.039,51.056z M32.039,44.876c-0.687,0-1.244,0.558-1.244,1.243
				c0,0.687,0.558,1.244,1.244,1.244c0.686,0,1.244-0.558,1.244-1.244C33.283,45.434,32.725,44.876,32.039,44.876z"/>
		</g>
	</g>
</g>
<g id="Layer_1">
</g>
</svg>
