<?xml version="1.0" encoding="iso-8859-1"?>
<!-- Generator: Adobe Illustrator 16.0.0, SVG Export Plug-In . SVG Version: 6.00 Build 0)  -->
<!DOCTYPE svg PUBLIC "-//W3C//DTD SVG 1.1//EN" "http://www.w3.org/Graphics/SVG/1.1/DTD/svg11.dtd">
<svg version="1.1" xmlns="http://www.w3.org/2000/svg" xmlns:xlink="http://www.w3.org/1999/xlink" x="0px" y="0px"
	 width="46.401px" height="57.692px" viewBox="0 0 46.401 57.692" style="enable-background:new 0 0 46.401 57.692;"
	 xml:space="preserve">
<g id="_x31_2_x5F_referee">
	<g>
		<g>
			<path style="fill:#44444D;" d="M22.056,34.752c-0.641,0-1.264-0.334-1.604-0.93c-0.506-0.886-0.199-2.014,0.687-2.52
				c7.405-4.232,11.353-8.946,12.426-14.833c0.479-2.625-0.076-6.519-2.393-9.296c-1.927-2.31-4.708-3.48-8.267-3.48
				c-5.556,0-9.52,3.079-10.603,8.236c-1.064,5.066,1.17,11.651,7.5,14.434c0.934,0.41,1.357,1.5,0.947,2.433
				c-0.41,0.934-1.5,1.357-2.433,0.947c-8.131-3.574-10.999-12.049-9.628-18.573C9.823,5.77,14.154,0,22.905,0
				c5.86,0,9.272,2.615,11.102,4.808c3.293,3.948,3.776,9.105,3.189,12.323c-1.686,9.251-8.927,14.348-14.226,17.376
				C22.681,34.674,22.367,34.752,22.056,34.752z"/>
		</g>
		<g>
			<path style="fill:#44444D;" d="M44.555,57.692H1.846C0.827,57.692,0,56.865,0,55.846S0.827,54,1.846,54h40.855
				c-0.064-6.682-0.48-11.067-1.24-13.048c-0.975-2.548-5.247-4.925-7.902-6.125c-2.434,4.14-6.217,6.562-10.384,6.562c0,0,0,0,0,0
				c-4.117,0-7.868-2.424-10.293-6.566c-3.048,1.363-6.995,3.768-7.898,6.128c-0.99,2.577-0.944,5.04-0.896,7.647
				c0.011,0.566,0.021,1.129,0.021,1.691c0,1.02-0.827,1.847-1.846,1.847s-1.846-0.827-1.846-1.847c0-0.539-0.01-1.08-0.02-1.623
				c-0.053-2.847-0.107-5.791,1.14-9.037c2.003-5.234,10.593-8.527,11.565-8.887c0.907-0.33,1.913,0.087,2.315,0.962
				c1.751,3.808,4.579,5.992,7.758,5.993c3.191,0,6.128-2.24,7.854-5.994c0.402-0.875,1.41-1.293,2.315-0.961
				c0.973,0.359,9.562,3.652,11.565,8.889c1.338,3.484,1.493,10.924,1.493,16.215C46.401,56.865,45.574,57.692,44.555,57.692z"/>
		</g>
		<g>
			<path style="fill:#44444D;" d="M23.274,52.136c-1.02,0-1.846-0.827-1.846-1.847V39.543c0-1.02,0.827-1.847,1.846-1.847
				s1.847,0.827,1.847,1.847v10.746C25.121,51.309,24.294,52.136,23.274,52.136z"/>
		</g>
		<g>
			<path style="fill:#44444D;" d="M16.216,52.136c-1.02,0-1.846-0.827-1.846-1.847V36.688c0-1.02,0.827-1.846,1.846-1.846
				s1.846,0.826,1.846,1.846v13.602C18.062,51.309,17.235,52.136,16.216,52.136z"/>
		</g>
		<g>
			<path style="fill:#44444D;" d="M9.158,52.136c-1.02,0-1.846-0.827-1.846-1.847V34.734c0-1.02,0.827-1.846,1.846-1.846
				s1.846,0.826,1.846,1.846v15.555C11.004,51.309,10.178,52.136,9.158,52.136z"/>
		</g>
		<g>
			<path style="fill:#44444D;" d="M30.332,52.136c-1.02,0-1.847-0.827-1.847-1.847V36.688c0-1.02,0.827-1.846,1.847-1.846
				s1.846,0.826,1.846,1.846v13.602C32.178,51.309,31.352,52.136,30.332,52.136z"/>
		</g>
		<g>
			<path style="fill:#44444D;" d="M37.389,52.136c-1.02,0-1.846-0.827-1.846-1.847V34.734c0-1.02,0.826-1.846,1.846-1.846
				s1.846,0.826,1.846,1.846v15.555C39.234,51.309,38.408,52.136,37.389,52.136z"/>
		</g>
	</g>
</g>
<g id="Layer_1">
</g>
</svg>
