<?xml version="1.0" encoding="iso-8859-1"?>
<!-- Generator: Adobe Illustrator 16.0.0, SVG Export Plug-In . SVG Version: 6.00 Build 0)  -->
<!DOCTYPE svg PUBLIC "-//W3C//DTD SVG 1.1//EN" "http://www.w3.org/Graphics/SVG/1.1/DTD/svg11.dtd">
<svg version="1.1" xmlns="http://www.w3.org/2000/svg" xmlns:xlink="http://www.w3.org/1999/xlink" x="0px" y="0px"
	 width="47.688px" height="57.692px" viewBox="0 0 47.688 57.692" style="enable-background:new 0 0 47.688 57.692;"
	 xml:space="preserve">
<g id="_x31_3_x5F_commentator">
	<g>
		<g>
			<path style="fill:#44444D;" d="M23.063,35.57c-0.641,0-1.264-0.334-1.604-0.93c-0.506-0.885-0.199-2.012,0.686-2.519
				c5.906-3.38,9.052-7.124,9.899-11.781c0.383-2.1-0.272-5.476-2.268-7.867c-1.538-1.845-3.565-2.78-6.023-2.78
				c-3.424,0-5.306,1.74-6.28,3.2c-1.678,2.511-1.946,6.1-0.685,9.143c0.391,0.942-0.057,2.022-0.998,2.413
				c-0.943,0.391-2.022-0.058-2.412-0.999c-1.748-4.215-1.355-9.046,1.024-12.608c2.085-3.122,5.406-4.842,9.351-4.842
				c3.555,0,6.618,1.42,8.859,4.107c2.863,3.434,3.603,7.945,3.064,10.895c-1.39,7.633-7.342,11.83-11.698,14.323
				C23.688,35.492,23.373,35.57,23.063,35.57z"/>
		</g>
		<g>
			<path style="fill:#44444D;" d="M45.842,57.692H1.846C0.826,57.692,0,56.865,0,55.846S0.826,54,1.846,54h42.141
				c-0.067-6.464-0.497-10.77-1.282-12.813c-1.011-2.644-5.433-5.104-8.175-6.343c-2.951,5.539-7.162,8.507-11.735,8.19
				c-4.186-0.285-7.811-3.335-9.788-8.105c-2.792,1.272-6.985,3.654-7.983,6.257c-1.021,2.667-0.974,5.263-0.924,8.012
				c0.011,0.584,0.021,1.164,0.021,1.739c0,1.02-0.826,1.847-1.846,1.847s-1.846-0.827-1.846-1.847c0-0.553-0.011-1.111-0.021-1.672
				c-0.052-2.842-0.11-6.063,1.168-9.4c2.059-5.371,10.883-8.754,11.883-9.121c0.479-0.176,1.011-0.147,1.467,0.082
				s0.797,0.638,0.941,1.127c1.283,4.35,4.034,7.184,7.18,7.398c3.355,0.232,6.616-2.552,8.905-7.634
				c0.398-0.886,1.413-1.31,2.321-0.974c1,0.367,9.825,3.75,11.88,9.122c1.376,3.585,1.535,10.837,1.535,15.979
				C47.688,56.865,46.861,57.692,45.842,57.692z"/>
		</g>
		<g>
			<path style="fill:#44444D;" d="M14.504,30.027c-1.44,0-2.716-0.324-3.817-0.971c-1.862-1.094-2.728-2.842-3.126-4.114
				c-1.793-0.325-2.948-1.197-3.642-1.955c-1.097-1.197-1.7-2.827-1.7-4.59c0-3.28,2.151-6.66,5.828-7.372
				C9.476,6.597,13.981,0,23.393,0c9.729,0,14.467,6.35,16.001,10.624c3.922,0.689,6.22,4.22,6.22,7.645
				c0,1.807-0.626,3.474-1.763,4.694c-0.896,0.963-2.546,2.111-5.308,2.111c-1.02,0-1.846-0.827-1.846-1.846
				s0.826-1.846,1.846-1.846c1.151,0,2.028-0.314,2.606-0.935c0.497-0.535,0.771-1.308,0.771-2.177c0-1.975-1.38-4.073-3.937-4.073
				c-0.859,0-1.605-0.594-1.799-1.431c-0.087-0.363-2.3-9.072-12.793-9.072c-10.046,0-12.005,9.028-12.084,9.412
				c-0.176,0.859-0.932,1.477-1.809,1.477c-2.614,0-3.589,2.341-3.589,3.816c0,0.838,0.26,1.583,0.73,2.097
				c0.539,0.588,1.356,0.887,2.429,0.887c0.966,0,1.769,0.745,1.841,1.708c0.001,0.003,0.199,1.953,1.668,2.797
				c1.454,0.836,3.893,0.506,7.046-0.952c0.926-0.429,2.022-0.025,2.451,0.9c0.428,0.925,0.024,2.023-0.9,2.451
				C18.666,29.445,16.437,30.027,14.504,30.027z"/>
		</g>
		<path style="fill:#44444D;" d="M23.547,26.339c0,1.377-1.119,2.5-2.498,2.5c-1.381,0-2.498-1.123-2.498-2.5
			c0-1.379,1.117-2.5,2.498-2.5C22.428,23.839,23.547,24.96,23.547,26.339z"/>
	</g>
</g>
<g id="Layer_1">
</g>
</svg>
