<?xml version="1.0" encoding="iso-8859-1"?>
<!-- Generator: Adobe Illustrator 16.0.0, SVG Export Plug-In . SVG Version: 6.00 Build 0)  -->
<!DOCTYPE svg PUBLIC "-//W3C//DTD SVG 1.1//EN" "http://www.w3.org/Graphics/SVG/1.1/DTD/svg11.dtd">
<svg version="1.1" xmlns="http://www.w3.org/2000/svg" xmlns:xlink="http://www.w3.org/1999/xlink" x="0px" y="0px"
	 width="57.692px" height="41.914px" viewBox="0 0 57.692 41.914" style="enable-background:new 0 0 57.692 41.914;"
	 xml:space="preserve">
<g id="_x31_4_x5F_team">
	<g>
		<g>
			<path style="fill:#44444D;" d="M28.213,23.479c-0.601,0-1.189-0.293-1.544-0.832c-0.561-0.852-0.324-1.997,0.527-2.557
				c3.926-2.582,6.02-5.444,6.588-9.008c0.262-1.667-0.088-4.206-1.475-5.827c-0.899-1.052-2.088-1.563-3.631-1.563
				c-3.025,0-4.264,2.148-4.732,3.428c-1.133,3.09-0.197,6.933,2.174,8.94c0.778,0.659,0.875,1.824,0.217,2.602
				c-0.658,0.778-1.822,0.876-2.602,0.217c-3.552-3.005-4.921-8.485-3.257-13.028C21.821,2.187,24.887,0,28.679,0
				c2.613,0,4.839,0.987,6.437,2.855c2.306,2.696,2.688,6.428,2.316,8.804c-0.979,6.128-5.152,9.507-8.206,11.515
				C28.913,23.38,28.561,23.479,28.213,23.479z"/>
		</g>
		<g>
			<path style="fill:#44444D;" d="M43.004,41.914H14.687c-1.02,0-1.846-0.826-1.846-1.846s0.826-1.847,1.846-1.847H41.05
				c-0.068-5.933-0.467-8.396-0.806-9.413c-0.504-1.507-2.573-3.06-4.386-4.074c-1.64,2.58-4.241,4.117-7.131,4.117
				c-0.001,0-0.002,0-0.004,0c-2.856-0.001-5.434-1.539-7.063-4.117c-1.812,1.016-3.883,2.568-4.386,4.074
				c-0.635,1.907-0.613,3.176-0.583,4.932c0.007,0.401,0.014,0.818,0.014,1.26c0,1.02-0.826,1.847-1.846,1.847
				S13.014,36.02,13.014,35c0-0.42-0.007-0.814-0.014-1.195c-0.032-1.881-0.063-3.656,0.771-6.164
				c1.396-4.176,7.312-6.783,7.981-7.067c0.458-0.192,0.973-0.195,1.431-0.003c0.458,0.191,0.819,0.558,1.004,1.019
				c0.893,2.235,2.589,3.569,4.538,3.57c0.001,0,0.001,0,0.002,0c1.96,0,3.726-1.368,4.607-3.571
				c0.185-0.46,0.546-0.828,1.004-1.018c0.459-0.191,0.975-0.188,1.43,0.004c0.67,0.284,6.583,2.891,7.978,7.065
				c0.858,2.575,0.994,7.848,1.006,11.833c0.063,0.187,0.098,0.388,0.098,0.597C44.85,41.088,44.023,41.914,43.004,41.914z"/>
		</g>
		<g>
			<g>
				<path style="fill:#44444D;" d="M46.221,26.32c-1.02,0-1.846-0.827-1.846-1.847s0.826-1.847,1.846-1.847
					c2.56,0,4.643-2.678,4.643-5.971c0-3.29-2.083-5.965-4.643-5.965c-1.312,0-2.61,0.756-3.39,1.974
					c-0.572,0.893-1.346,2.792-0.107,5.48c0.427,0.926,0.021,2.022-0.904,2.449c-0.924,0.427-2.021,0.022-2.449-0.904
					c-1.441-3.13-1.313-6.416,0.352-9.016c1.474-2.302,3.903-3.676,6.499-3.676c4.596,0,8.334,4.333,8.334,9.658
					C54.555,21.985,50.816,26.32,46.221,26.32z"/>
			</g>
			<g>
				<path style="fill:#44444D;" d="M55.846,40.153h-7.295c-1.02,0-1.846-0.827-1.846-1.847s0.826-1.846,1.846-1.846h5.333
					c-0.093-1.213-0.25-2.8-0.502-4.141c-0.39-2.09-1.511-3.264-2.384-3.882c-0.832-0.589-1.028-1.741-0.439-2.573
					s1.739-1.03,2.574-0.439c1.17,0.828,3.229,2.738,3.878,6.215c0.531,2.834,0.674,6.443,0.68,6.596
					c0.02,0.502-0.167,0.99-0.515,1.352S56.348,40.153,55.846,40.153z"/>
			</g>
			<g>
				<path style="fill:#44444D;" d="M11.471,26.32c-4.596,0-8.335-4.335-8.335-9.664c0-5.325,3.739-9.658,8.335-9.658
					c2.596,0,5.025,1.374,6.499,3.675c1.665,2.6,1.794,5.886,0.353,9.016c-0.428,0.927-1.525,1.331-2.449,0.905
					c-0.926-0.426-1.331-1.523-0.904-2.449c1.238-2.689,0.464-4.588-0.108-5.481c-0.779-1.218-2.079-1.974-3.39-1.974
					c-2.561,0-4.644,2.676-4.644,5.965c0,3.292,2.083,5.971,4.644,5.971c1.02,0,1.846,0.827,1.846,1.847S12.49,26.32,11.471,26.32z"
					/>
			</g>
			<g>
				<path style="fill:#44444D;" d="M9.139,40.153H1.846c-0.501,0-0.981-0.204-1.329-0.565s-0.534-0.848-0.516-1.35
					c0.006-0.152,0.144-3.764,0.678-6.6c0.594-3.184,2.334-5.06,3.688-6.072c0.817-0.609,1.974-0.444,2.584,0.373
					c0.61,0.816,0.443,1.974-0.373,2.584c-0.828,0.619-1.895,1.78-2.271,3.795c-0.253,1.346-0.41,2.932-0.502,4.143h5.333
					c1.02,0,1.846,0.826,1.846,1.846S10.158,40.153,9.139,40.153z"/>
			</g>
		</g>
	</g>
</g>
<g id="Layer_1">
</g>
</svg>
