<?xml version="1.0" encoding="iso-8859-1"?>
<!-- Generator: Adobe Illustrator 16.0.0, SVG Export Plug-In . SVG Version: 6.00 Build 0)  -->
<!DOCTYPE svg PUBLIC "-//W3C//DTD SVG 1.1//EN" "http://www.w3.org/Graphics/SVG/1.1/DTD/svg11.dtd">
<svg version="1.1" xmlns="http://www.w3.org/2000/svg" xmlns:xlink="http://www.w3.org/1999/xlink" x="0px" y="0px"
	 width="41.387px" height="57.694px" viewBox="0 0 41.387 57.694" style="enable-background:new 0 0 41.387 57.694;"
	 xml:space="preserve">
<g id="_x31_5_x5F_card">
	<g>
		<g>
			<g>
				<path style="fill:#44444D;" d="M27.012,40.787c-0.793,0-1.599-0.115-2.396-0.356l-6.062-1.846
					c-0.975-0.297-1.525-1.329-1.228-2.304c0.297-0.977,1.33-1.525,2.304-1.229l6.06,1.846c2.409,0.73,4.969-0.633,5.705-3.041
					l6.101-20.044c0.732-2.411-0.631-4.968-3.039-5.7l-13.87-4.221c-1.163-0.354-2.397-0.23-3.478,0.346
					c-1.08,0.577-1.868,1.532-2.22,2.691L9.623,24.207c-0.297,0.976-1.328,1.525-2.304,1.228s-1.525-1.329-1.228-2.304l5.266-17.275
					c0.637-2.101,2.063-3.833,4.014-4.875c1.952-1.042,4.188-1.262,6.291-0.62l13.869,4.221c4.355,1.324,6.821,5.948,5.497,10.307
					l-6.102,20.047C33.841,38.492,30.554,40.787,27.012,40.787z"/>
			</g>
		</g>
		<g>
			<path style="fill:#44444D;" d="M18.889,50.416c-1.088,0-2.14-0.343-2.971-0.916c-2.009-1.385-2.629-3.779-1.543-5.958
				c0.735-1.469,2.037-3.653,2.093-3.745c0.522-0.873,1.654-1.16,2.531-0.639c0.875,0.522,1.161,1.656,0.639,2.531
				c-0.013,0.021-1.287,2.159-1.96,3.503c-0.255,0.511-0.142,0.938,0.336,1.269c0.107,0.074,1.074,0.696,1.93-0.233
				c0.402-0.435,1.238-1.554,2.945-4.425c0.521-0.875,1.652-1.164,2.53-0.643c0.877,0.521,1.164,1.654,0.644,2.529
				c-1.546,2.6-2.628,4.201-3.407,5.043C21.563,49.919,20.199,50.416,18.889,50.416z"/>
		</g>
		<g>
			<path style="fill:#44444D;" d="M25.012,52.141c-0.925,0-1.867-0.295-2.713-0.9c-1.844-1.32-2.814-4.05-1.102-6.715
				c0.55-0.857,1.692-1.106,2.551-0.555c0.857,0.551,1.106,1.693,0.555,2.551c-0.641,0.997-0.112,1.531,0.145,1.715
				c0.253,0.183,0.746,0.405,1.177-0.138c0.287-0.36,0.614-0.76,0.965-1.188c1.608-1.96,3.812-4.646,4.608-6.842
				c0.426-1.164-0.173-1.872-0.45-2.122c-0.756-0.684-0.814-1.852-0.131-2.607c0.683-0.757,1.85-0.816,2.607-0.131
				c1.706,1.543,2.26,3.889,1.443,6.123c-1.012,2.787-3.446,5.754-5.224,7.921c-0.337,0.411-0.651,0.795-0.928,1.142
				C27.604,51.543,26.326,52.141,25.012,52.141z"/>
		</g>
		<g>
			<path style="fill:#44444D;" d="M26.484,57.694H3.694c-0.838,0-1.57-0.564-1.785-1.374c-1.567-5.934-2.252-12.086-1.744-15.678
				c0.365-2.6,2.113-11.355,9.273-14.779c1.309-0.625,2.348-1.184,3.265-1.676c2.588-1.39,4.457-2.393,6.625-1.025
				c1.21,0.771,1.924,2.036,2.019,3.567c0.134,2.181-0.938,5.771-6.584,10.747c0.977,2.306,2.093,6.985-1.664,12.052
				c-0.605,0.82-1.762,0.991-2.582,0.383c-0.819-0.607-0.99-1.764-0.383-2.582c3.657-4.932,0.823-9.232,0.794-9.275
				c-0.534-0.789-0.381-1.854,0.353-2.459c4.851-4.006,6.477-7.088,6.381-8.638c-0.03-0.498-0.24-0.631-0.31-0.675
				c-0.294-0.187-0.915,0.092-2.9,1.159c-0.906,0.487-2.034,1.093-3.421,1.755c-5.5,2.629-6.908,9.822-7.209,11.963
				c-0.395,2.787,0.143,7.914,1.313,12.844h21.35c1.02,0,1.846,0.826,1.846,1.846S27.504,57.694,26.484,57.694z"/>
		</g>
	</g>
</g>
<g id="Layer_1">
</g>
</svg>
