<?xml version="1.0" encoding="iso-8859-1"?>
<!-- Generator: Adobe Illustrator 16.0.0, SVG Export Plug-In . SVG Version: 6.00 Build 0)  -->
<!DOCTYPE svg PUBLIC "-//W3C//DTD SVG 1.1//EN" "http://www.w3.org/Graphics/SVG/1.1/DTD/svg11.dtd">
<svg version="1.1" xmlns="http://www.w3.org/2000/svg" xmlns:xlink="http://www.w3.org/1999/xlink" x="0px" y="0px"
	 width="57.699px" height="46.504px" viewBox="0 0 57.699 46.504" style="enable-background:new 0 0 57.699 46.504;"
	 xml:space="preserve">
<g id="_x31_6_x5F_whistle">
	<g>
		<g>
			<path style="fill:#44444D;" d="M12.934,46.504c-1.81,0-3.65-0.686-5.362-2.023c-5.647-4.413-8.781-14.967-7.134-24.027
				c0.873-4.804,2.905-7.949,6.041-9.347c6.656-3.126,13.305-5.378,17.753-6.01c2.449-0.348,4.624-0.04,6.461,0.917
				C37,9.292,56.256,26.211,57.072,26.93c0.766,0.673,0.84,1.84,0.166,2.605c-0.672,0.764-1.84,0.84-2.605,0.166
				C54.436,29.527,34.9,12.362,28.991,9.289c-1.159-0.602-2.542-0.777-4.239-0.537C20.647,9.334,14.39,11.47,8.016,14.463
				c-2.015,0.898-3.295,3.069-3.945,6.651C2.694,28.682,5.339,38.05,9.846,41.571c1.517,1.187,2.978,1.524,4.335,1.007
				c2.177-0.828,3.913-3.727,4.645-7.752c0.169-0.929,0.318-2.908,0.361-3.592c0.039-0.606,0.373-1.155,0.895-1.467
				c0.521-0.313,1.161-0.35,1.715-0.096l16.293,7.439l0.193-2.655c-2.988-2.202-13.794-10.022-23.857-15.482
				c-0.896-0.486-1.228-1.607-0.742-2.503c0.486-0.896,1.605-1.229,2.504-0.742c12.004,6.514,24.992,16.278,25.123,16.376
				c0.5,0.378,0.775,0.983,0.729,1.608l-0.459,6.314c-0.045,0.604-0.381,1.146-0.9,1.455s-1.156,0.343-1.707,0.09l-16.327-7.454
				c-0.055,0.501-0.118,0.985-0.188,1.368c-0.979,5.389-3.518,9.231-6.964,10.543C14.661,46.347,13.8,46.504,12.934,46.504z"/>
		</g>
		<g>
			<path style="fill:#44444D;" d="M40.199,35.426c-0.771,0-1.49-0.487-1.75-1.259c-0.326-0.966,0.195-2.013,1.16-2.339l15.654-5.264
				c0.969-0.323,2.014,0.195,2.338,1.162c0.326,0.967-0.195,2.014-1.16,2.338l-15.654,5.264
				C40.592,35.395,40.395,35.426,40.199,35.426z"/>
		</g>
		<g>
			<path style="fill:#44444D;" d="M39.738,41.74c-0.771,0-1.49-0.487-1.75-1.258c-0.324-0.967,0.195-2.014,1.162-2.339l15.652-5.261
				c0.965-0.324,2.012,0.196,2.338,1.161c0.324,0.967-0.195,2.013-1.162,2.339l-15.652,5.261
				C40.133,41.709,39.934,41.74,39.738,41.74z"/>
		</g>
		<g>
			<path style="fill:#44444D;" d="M15.049,46.061c-0.764,0-1.478-0.477-1.743-1.238c-0.336-0.963,0.173-2.016,1.136-2.352
				l12.694-4.426c0.967-0.338,2.016,0.173,2.351,1.135c0.336,0.963-0.173,2.016-1.136,2.352l-12.694,4.426
				C15.456,46.027,15.25,46.061,15.049,46.061z"/>
		</g>
		<g>
			<path style="fill:#44444D;" d="M30.223,21.814c-0.752,0-1.459-0.464-1.733-1.212c-0.351-0.958,0.142-2.018,1.1-2.368l5.483-2.005
				c0.955-0.348,2.018,0.143,2.367,1.1c0.35,0.958-0.143,2.018-1.1,2.368l-5.482,2.005C30.648,21.777,30.434,21.814,30.223,21.814z"
				/>
		</g>
		<g>
			<path style="fill:#44444D;" d="M9.569,12.606c-3.475,0-6.302-2.828-6.302-6.303S6.094,0,9.569,0c3.477,0,6.305,2.828,6.305,6.303
				S13.045,12.606,9.569,12.606z M9.569,3.692c-1.439,0-2.61,1.171-2.61,2.611s1.171,2.611,2.61,2.611
				c1.44,0,2.613-1.171,2.613-2.611S11.009,3.692,9.569,3.692z"/>
		</g>
	</g>
</g>
<g id="Layer_1">
</g>
</svg>
