<?xml version="1.0" encoding="iso-8859-1"?>
<!-- Generator: Adobe Illustrator 16.0.0, SVG Export Plug-In . SVG Version: 6.00 Build 0)  -->
<!DOCTYPE svg PUBLIC "-//W3C//DTD SVG 1.1//EN" "http://www.w3.org/Graphics/SVG/1.1/DTD/svg11.dtd">
<svg version="1.1" xmlns="http://www.w3.org/2000/svg" xmlns:xlink="http://www.w3.org/1999/xlink" x="0px" y="0px"
	 width="57.692px" height="49.932px" viewBox="0 0 57.692 49.932" style="enable-background:new 0 0 57.692 49.932;"
	 xml:space="preserve">
<g id="_x31_7_x5F_camera">
	<g>
		<g>
			<path style="fill:#44444D;" d="M55.846,49.932h-54C0.827,49.932,0,49.105,0,48.086V7.293c0-1.02,0.827-1.846,1.846-1.846h54
				c1.02,0,1.847,0.827,1.847,1.846S56.865,9.14,55.846,9.14H3.692v37.1H54v-33.44c0-1.02,0.826-1.846,1.846-1.846
				s1.847,0.827,1.847,1.846v35.287C57.692,49.105,56.865,49.932,55.846,49.932z"/>
		</g>
		<g>
			<path style="fill:#44444D;" d="M47.121,17.156h-5.594c-1.02,0-1.846-0.827-1.846-1.846s0.826-1.846,1.846-1.846h5.594
				c1.02,0,1.846,0.827,1.846,1.846S48.141,17.156,47.121,17.156z"/>
		</g>
		<g>
			<path style="fill:#44444D;" d="M12.89,3.692H7.297c-1.02,0-1.846-0.827-1.846-1.846S6.278,0,7.297,0h5.592
				c1.02,0,1.846,0.827,1.846,1.846S13.909,3.692,12.89,3.692z"/>
		</g>
		<g>
			<g>
				<path style="fill:#44444D;" d="M23.155,44.348c-9.187,0-16.66-7.472-16.66-16.656c0-9.187,7.474-16.661,16.66-16.661
					c9.187,0,16.663,7.474,16.663,16.661C39.817,36.876,32.342,44.348,23.155,44.348z M23.155,14.723
					c-7.15,0-12.968,5.818-12.968,12.968c0,7.148,5.817,12.964,12.968,12.964c7.152,0,12.97-5.815,12.97-12.964
					C36.125,20.541,30.307,14.723,23.155,14.723z"/>
			</g>
			<g>
				<polygon style="fill:#44444D;" points="25.878,31.592 27.562,26.408 23.155,23.209 18.749,26.408 20.434,31.592 				"/>
				<path style="fill:#44444D;" d="M27.319,18.572l-0.505-0.844c-1.142-0.419-2.371-0.658-3.659-0.658
					c-1.287,0-2.512,0.239-3.653,0.658l-0.511,0.844l4.164,1.633L27.319,18.572z"/>
				<path style="fill:#44444D;" d="M32.131,21.982l-0.938-0.311l-0.684,4.422l2.506,3.705l0.714-0.682
					c0.058-0.451,0.099-0.908,0.099-1.371C33.828,25.619,33.201,23.645,32.131,21.982z"/>
				<path style="fill:#44444D;" d="M27.263,34.063L24.662,37.7l0.889,0.437c2.489-0.573,4.642-2.016,6.13-3.988l-0.037-0.984
					L27.263,34.063z"/>
				<path style="fill:#44444D;" d="M14.666,33.164l-0.033,0.984c1.486,1.973,3.639,3.415,6.128,3.988L21.65,37.7l-2.602-3.638
					L14.666,33.164z"/>
				<path style="fill:#44444D;" d="M15.119,21.67l-0.936,0.312c-1.073,1.662-1.701,3.637-1.701,5.764c0,0.463,0.043,0.92,0.1,1.369
					l0.712,0.683l2.506-3.706L15.119,21.67z"/>
			</g>
		</g>
	</g>
</g>
<g id="Layer_1">
</g>
</svg>
