<?xml version="1.0" encoding="iso-8859-1"?>
<!-- Generator: Adobe Illustrator 16.0.0, SVG Export Plug-In . SVG Version: 6.00 Build 0)  -->
<!DOCTYPE svg PUBLIC "-//W3C//DTD SVG 1.1//EN" "http://www.w3.org/Graphics/SVG/1.1/DTD/svg11.dtd">
<svg version="1.1" xmlns="http://www.w3.org/2000/svg" xmlns:xlink="http://www.w3.org/1999/xlink" x="0px" y="0px"
	 width="57.692px" height="50.551px" viewBox="0 0 57.692 50.551" style="enable-background:new 0 0 57.692 50.551;"
	 xml:space="preserve">
<g id="_x31_8_x5F_change">
	<g>
		<g>
			<g>
				<path style="fill:#44444D;" d="M46.22,19.32c-1.02,0-1.846-0.827-1.846-1.846s0.826-1.846,1.846-1.846
					c2.561,0,4.643-2.678,4.643-5.97c0-3.29-2.082-5.965-4.643-5.965c-1.311,0-2.609,0.756-3.39,1.974
					c-0.571,0.893-1.346,2.792-0.107,5.48c0.427,0.926,0.021,2.022-0.905,2.449c-0.925,0.428-2.021,0.022-2.448-0.905
					c-1.441-3.13-1.313-6.416,0.352-9.016C41.195,1.374,43.624,0,46.22,0c4.596,0,8.335,4.333,8.335,9.658
					C54.555,14.985,50.815,19.32,46.22,19.32z"/>
			</g>
			<g>
				<path style="fill:#44444D;" d="M55.846,33.154h-7.295c-1.02,0-1.846-0.826-1.846-1.846s0.826-1.847,1.846-1.847h5.333
					c-0.093-1.214-0.251-2.8-0.502-4.142c-0.39-2.09-1.511-3.263-2.383-3.879c-0.832-0.588-1.03-1.741-0.442-2.573
					c0.589-0.832,1.742-1.029,2.573-0.442c1.171,0.828,3.232,2.735,3.882,6.216c0.53,2.833,0.673,6.443,0.679,6.595
					c0.02,0.501-0.166,0.989-0.515,1.351C56.828,32.949,56.348,33.154,55.846,33.154z"/>
			</g>
			<g>
				<path style="fill:#44444D;" d="M11.47,19.32c-4.596,0-8.336-4.334-8.336-9.663C3.134,4.332,6.874,0,11.47,0
					c2.597,0,5.026,1.374,6.501,3.675c1.665,2.6,1.793,5.886,0.353,9.016c-0.427,0.926-1.522,1.332-2.449,0.905
					c-0.926-0.426-1.331-1.522-0.904-2.449c1.237-2.689,0.463-4.588-0.108-5.48c-0.78-1.218-2.08-1.975-3.392-1.975
					c-2.561,0-4.644,2.676-4.644,5.965c0,3.292,2.083,5.97,4.644,5.97c1.02,0,1.847,0.827,1.847,1.846S12.489,19.32,11.47,19.32z"/>
			</g>
			<g>
				<path style="fill:#44444D;" d="M9.139,33.154H1.846c-0.501,0-0.981-0.204-1.329-0.565c-0.348-0.36-0.534-0.849-0.516-1.35
					c0.006-0.152,0.146-3.764,0.678-6.6c0.596-3.185,2.335-5.061,3.689-6.073c0.816-0.61,1.973-0.443,2.584,0.374
					c0.61,0.816,0.442,1.974-0.374,2.584c-0.828,0.618-1.894,1.779-2.271,3.795c-0.252,1.342-0.409,2.929-0.501,4.142h5.332
					c1.02,0,1.846,0.827,1.846,1.847S10.158,33.154,9.139,33.154z"/>
			</g>
		</g>
		<g>
			<g>
				<path style="fill:#44444D;" d="M27.345,22.059c-0.406,0-0.814-0.133-1.155-0.407c-0.795-0.638-0.922-1.8-0.283-2.595
					l4.033-5.021l-4.861-3.904c-0.795-0.639-0.921-1.801-0.283-2.596c0.639-0.794,1.802-0.919,2.596-0.283l6.301,5.061
					c0.382,0.307,0.626,0.752,0.679,1.239c0.054,0.487-0.089,0.975-0.396,1.356l-5.189,6.46
					C28.42,21.823,27.885,22.059,27.345,22.059z"/>
			</g>
			<g>
				<path style="fill:#44444D;" d="M31.457,50.551c-0.406,0-0.814-0.133-1.155-0.406l-6.3-5.061c-0.794-0.639-0.921-1.8-0.283-2.595
					l5.188-6.46c0.64-0.795,1.801-0.922,2.595-0.284c0.795,0.638,0.922,1.8,0.284,2.595l-4.031,5.021l4.86,3.904
					c0.795,0.639,0.921,1.801,0.283,2.596C32.532,50.314,31.997,50.551,31.457,50.551z"/>
			</g>
			<g>
				<path style="fill:#44444D;" d="M21.331,43.211c-0.308,0-0.619-0.076-0.906-0.238c-5.17-2.92-8.381-8.418-8.381-14.348
					c0-9.08,7.387-16.467,16.466-16.467c1.118,0,2.234,0.113,3.317,0.334c0.999,0.205,1.643,1.18,1.438,2.179
					c-0.205,0.999-1.186,1.641-2.18,1.438c-0.839-0.172-1.706-0.259-2.576-0.259c-7.043,0-12.773,5.73-12.773,12.775
					c0,4.601,2.492,8.866,6.504,11.133c0.888,0.501,1.201,1.627,0.7,2.515C22.601,42.873,21.976,43.211,21.331,43.211z"/>
			</g>
			<g>
				<path style="fill:#44444D;" d="M28.51,45.091c-1.065,0-2.131-0.103-3.166-0.305c-1.001-0.196-1.653-1.165-1.458-2.166
					s1.162-1.654,2.166-1.458c0.803,0.156,1.63,0.236,2.458,0.236c7.044,0,12.775-5.73,12.775-12.773
					c0-4.392-2.216-8.424-5.927-10.787c-0.86-0.547-1.113-1.688-0.565-2.548c0.547-0.86,1.688-1.114,2.548-0.566
					c4.782,3.043,7.637,8.24,7.637,13.901C44.978,37.704,37.59,45.091,28.51,45.091z"/>
			</g>
		</g>
	</g>
</g>
<g id="Layer_1">
</g>
</svg>
