<?xml version="1.0" encoding="iso-8859-1"?>
<!-- Generator: Adobe Illustrator 16.0.0, SVG Export Plug-In . SVG Version: 6.00 Build 0)  -->
<!DOCTYPE svg PUBLIC "-//W3C//DTD SVG 1.1//EN" "http://www.w3.org/Graphics/SVG/1.1/DTD/svg11.dtd">
<svg version="1.1" xmlns="http://www.w3.org/2000/svg" xmlns:xlink="http://www.w3.org/1999/xlink" x="0px" y="0px"
	 width="54.055px" height="57.692px" viewBox="0 0 54.055 57.692" style="enable-background:new 0 0 54.055 57.692;"
	 xml:space="preserve">
<g id="_x31_9_x5F_strategy">
	<g>
		<g>
			<path style="fill:#44444D;" d="M22.688,44.365c-3.712,0-6.732-3.021-6.732-6.732c0-3.713,3.02-6.732,6.732-6.732
				s6.732,3.02,6.732,6.732C29.42,41.345,26.4,44.365,22.688,44.365z M22.688,34.592c-1.676,0-3.04,1.364-3.04,3.041
				c0,1.676,1.363,3.039,3.04,3.039s3.04-1.363,3.04-3.039C25.728,35.956,24.364,34.592,22.688,34.592z"/>
		</g>
		<g>
			<path style="fill:#44444D;" d="M33.716,57.692c-3.712,0-6.731-3.02-6.731-6.731c0-3.713,3.02-6.732,6.731-6.732
				s6.731,3.02,6.731,6.732C40.447,54.673,37.428,57.692,33.716,57.692z M33.716,47.921c-1.676,0-3.039,1.363-3.039,3.04
				c0,1.676,1.363,3.039,3.039,3.039s3.039-1.363,3.039-3.039C36.755,49.284,35.392,47.921,33.716,47.921z"/>
		</g>
		<g>
			<path style="fill:#44444D;" d="M9.088,54.643c-3.712,0-6.732-3.02-6.732-6.732s3.02-6.732,6.732-6.732s6.732,3.02,6.732,6.732
				S12.8,54.643,9.088,54.643z M9.088,44.87c-1.676,0-3.04,1.364-3.04,3.04s1.363,3.04,3.04,3.04s3.04-1.364,3.04-3.04
				S10.765,44.87,9.088,44.87z"/>
		</g>
		<g>
			<g>
				<path style="fill:#44444D;" d="M43.031,35.949c-0.473,0-0.945-0.181-1.306-0.541l-7.395-7.394c-0.721-0.721-0.721-1.89,0-2.611
					c0.722-0.722,1.89-0.721,2.61,0l7.395,7.394c0.722,0.721,0.722,1.891,0.001,2.611C43.976,35.769,43.504,35.949,43.031,35.949z"
					/>
			</g>
			<g>
				<path style="fill:#44444D;" d="M35.636,35.949c-0.473,0-0.945-0.181-1.306-0.541c-0.721-0.721-0.721-1.891,0-2.611l7.395-7.394
					c0.722-0.721,1.89-0.721,2.611,0c0.721,0.721,0.721,1.89-0.001,2.611l-7.395,7.394C36.58,35.769,36.107,35.949,35.636,35.949z"
					/>
			</g>
		</g>
		<g>
			<g>
				<path style="fill:#44444D;" d="M30.811,11.087c-0.473,0-0.945-0.18-1.306-0.541L22.11,3.152c-0.721-0.721-0.721-1.89,0-2.611
					c0.722-0.722,1.89-0.721,2.611,0l7.395,7.394c0.722,0.721,0.722,1.89,0.001,2.611C31.755,10.907,31.283,11.087,30.811,11.087z"
					/>
			</g>
			<g>
				<path style="fill:#44444D;" d="M23.415,11.087c-0.473,0-0.945-0.18-1.306-0.541c-0.721-0.721-0.721-1.89,0-2.611l7.395-7.394
					c0.722-0.721,1.89-0.721,2.611,0c0.721,0.721,0.721,1.89-0.001,2.611l-7.395,7.394C24.359,10.907,23.887,11.087,23.415,11.087z"
					/>
			</g>
		</g>
		<g>
			<g>
				<path style="fill:#44444D;" d="M9.241,19.541c-0.473,0-0.945-0.18-1.306-0.541l-7.394-7.394c-0.721-0.721-0.721-1.89,0-2.611
					c0.721-0.721,1.889-0.721,2.611,0l7.394,7.394c0.721,0.721,0.721,1.89,0,2.611C10.186,19.36,9.713,19.541,9.241,19.541z"/>
			</g>
			<g>
				<path style="fill:#44444D;" d="M1.846,19.541c-0.473,0-0.945-0.18-1.305-0.541c-0.721-0.721-0.721-1.89,0-2.611l7.394-7.394
					c0.722-0.722,1.89-0.721,2.611,0c0.721,0.721,0.721,1.89,0,2.611L3.152,19C2.791,19.36,2.319,19.541,1.846,19.541z"/>
			</g>
		</g>
		<g>
			<g>
				<path style="fill:#44444D;" d="M43.854,48.594c-0.589,0-1.169-0.281-1.526-0.806c-0.574-0.843-0.357-1.991,0.484-2.565
					c3.82-2.607,7.809-8.614,7.536-15.643c-0.178-4.618-2.316-11.229-11.489-16.501c-0.884-0.508-1.188-1.636-0.681-2.521
					c0.507-0.883,1.635-1.189,2.521-0.681c10.637,6.112,13.125,14.01,13.339,19.559c0.328,8.477-4.356,15.568-9.145,18.835
					C44.575,48.49,44.213,48.594,43.854,48.594z"/>
			</g>
			<g>
				<path style="fill:#44444D;" d="M40.019,21.892c-0.996,0-1.816-0.793-1.845-1.794l-0.24-8.567
					c-0.028-1.019,0.774-1.869,1.794-1.897l8.567-0.24c1.036-0.003,1.868,0.774,1.896,1.793c0.029,1.019-0.774,1.869-1.793,1.897
					l-6.723,0.188l0.188,6.722c0.029,1.019-0.774,1.869-1.793,1.897C40.054,21.892,40.036,21.892,40.019,21.892z"/>
			</g>
		</g>
		<g>
			<g>
				<path style="fill:#44444D;" d="M7.042,39.939c-0.894,0-1.679-0.649-1.821-1.56c-0.793-5.056,0.349-9.894,3.215-13.624
					c3.325-4.327,8.897-7.016,16.113-7.775c1.017-0.101,1.923,0.629,2.029,1.643c0.107,1.014-0.629,1.922-1.643,2.029
					c-6.274,0.66-10.84,2.798-13.572,6.354c-2.244,2.92-3.13,6.756-2.496,10.802c0.158,1.007-0.53,1.952-1.538,2.11
					C7.233,39.933,7.137,39.939,7.042,39.939z"/>
			</g>
			<g>
				<path style="fill:#44444D;" d="M20.25,27.963c-0.33,0-0.664-0.088-0.965-0.274c-0.868-0.534-1.139-1.671-0.605-2.54l3.523-5.728
					L16.475,15.9c-0.869-0.534-1.14-1.671-0.606-2.54s1.672-1.14,2.54-0.606l7.301,4.489c0.417,0.257,0.715,0.668,0.829,1.145
					c0.113,0.477,0.033,0.979-0.224,1.396l-4.49,7.301C21.476,27.651,20.871,27.963,20.25,27.963z"/>
			</g>
		</g>
	</g>
</g>
<g id="Layer_1">
</g>
</svg>
