<?xml version="1.0" encoding="iso-8859-1"?>
<!-- Generator: Adobe Illustrator 16.0.0, SVG Export Plug-In . SVG Version: 6.00 Build 0)  -->
<!DOCTYPE svg PUBLIC "-//W3C//DTD SVG 1.1//EN" "http://www.w3.org/Graphics/SVG/1.1/DTD/svg11.dtd">
<svg version="1.1" xmlns="http://www.w3.org/2000/svg" xmlns:xlink="http://www.w3.org/1999/xlink" x="0px" y="0px"
	 width="45.447px" height="57.692px" viewBox="0 0 45.447 57.692" style="enable-background:new 0 0 45.447 57.692;"
	 xml:space="preserve">
<g id="_x32_0_x5F_strategy_x5F_board">
	<g>
		<g>
			<path style="fill:#44444D;" d="M37.264,12.308c-0.932,0-1.732-0.704-1.834-1.651c-0.037-0.352-0.229-0.948-1.098-0.986
				c-0.985-0.043-1.846-0.028-2.842-0.009c-0.944,0.016-1.992,0.036-3.349,0.011c-1.007-0.018-1.813-0.839-1.813-1.846
				c0-0.68-0.626-4.133-3.605-4.133c-2.98,0-3.607,3.454-3.607,4.133c0,1.006-0.806,1.828-1.813,1.846
				c-1.357,0.025-2.404,0.005-3.348-0.011c-0.996-0.02-1.856-0.035-2.84,0.009c-0.87,0.038-1.063,0.635-1.101,0.987
				c-0.108,1.014-1.022,1.747-2.031,1.64c-1.014-0.108-1.748-1.018-1.64-2.031C6.604,7.85,8.5,6.088,10.957,5.981
				c1.098-0.048,2.053-0.03,3.067-0.013c0.502,0.009,1.036,0.019,1.634,0.021C16.357,3.125,18.65,0,22.724,0
				c4.073,0,6.366,3.125,7.065,5.99c0.598-0.002,1.132-0.012,1.635-0.021c1.014-0.019,1.972-0.036,3.068,0.013
				c2.458,0.107,4.354,1.869,4.609,4.285c0.107,1.014-0.627,1.923-1.641,2.031C37.395,12.304,37.329,12.308,37.264,12.308z"/>
		</g>
		<g>
			<path style="fill:#44444D;" d="M43.602,57.692H1.846C0.827,57.692,0,56.865,0,55.846V15.204c0-1.02,0.827-1.846,1.846-1.846
				h7.712c0.632,0,1.221,0.324,1.559,0.858l3.183,5.021h16.848l3.18-5.021c0.339-0.535,0.928-0.858,1.561-0.858h7.713
				c1.02,0,1.846,0.827,1.846,1.846v40.642C45.447,56.865,44.621,57.692,43.602,57.692z M3.692,54h38.063V17.05h-4.851l-3.182,5.021
				c-0.338,0.535-0.927,0.858-1.559,0.858H13.285c-0.632,0-1.221-0.324-1.559-0.858L8.542,17.05h-4.85V54z"/>
		</g>
		<g>
			<path style="fill:#44444D;" d="M14.799,51.162c-1.717,0-3.307-0.776-4.362-2.131c-0.908-1.165-1.307-2.613-1.124-4.079
				c0.183-1.464,0.925-2.771,2.091-3.677c0.98-0.764,2.153-1.166,3.393-1.166c1.718,0,3.308,0.776,4.363,2.131
				c0.907,1.166,1.306,2.615,1.122,4.08c-0.184,1.466-0.926,2.771-2.092,3.676C17.213,50.758,16.04,51.162,14.799,51.162z
				 M14.796,43.801c-0.41,0-0.799,0.135-1.125,0.389c-0.387,0.301-0.634,0.734-0.695,1.221c-0.061,0.486,0.072,0.966,0.373,1.352
				c0.35,0.45,0.879,0.709,1.45,0.709c0.286,0,0.712-0.068,1.123-0.388c0.389-0.302,0.635-0.735,0.696-1.221
				c0.061-0.487-0.071-0.968-0.372-1.354C15.896,44.059,15.368,43.801,14.796,43.801z"/>
		</g>
		<g>
			<g>
				<path style="fill:#44444D;" d="M19.585,40.635c-0.349,0-0.701-0.099-1.014-0.305c-0.851-0.562-1.086-1.707-0.525-2.558
					c3.165-4.8,10.11-9.688,19.269-7.669c0.996,0.22,1.625,1.205,1.406,2.201c-0.22,0.996-1.205,1.629-2.201,1.404
					c-7.33-1.614-12.871,2.273-15.391,6.096C20.774,40.343,20.186,40.635,19.585,40.635z"/>
			</g>
			<g>
				<path style="fill:#44444D;" d="M31.745,38.326c-0.511,0-1.019-0.211-1.384-0.623c-0.676-0.764-0.604-1.932,0.16-2.606
					l3.79-3.351l-3.349-3.788c-0.676-0.764-0.604-1.93,0.16-2.605c0.762-0.675,1.93-0.604,2.605,0.16l4.572,5.17
					c0.324,0.367,0.489,0.848,0.459,1.336c-0.029,0.489-0.253,0.945-0.619,1.271l-5.174,4.573
					C32.616,38.174,32.18,38.326,31.745,38.326z"/>
			</g>
		</g>
		<g>
			<g>
				<path style="fill:#44444D;" d="M34.26,49.877c-0.473,0-0.945-0.18-1.306-0.541l-5.507-5.507c-0.721-0.721-0.721-1.89,0-2.61
					c0.721-0.722,1.89-0.722,2.61,0l5.507,5.507c0.721,0.721,0.721,1.89,0,2.61C35.204,49.697,34.732,49.877,34.26,49.877z"/>
			</g>
			<g>
				<path style="fill:#44444D;" d="M28.752,49.877c-0.473,0-0.945-0.18-1.306-0.541c-0.722-0.721-0.722-1.89,0-2.61l5.507-5.507
					c0.721-0.722,1.89-0.722,2.61,0c0.722,0.721,0.722,1.89,0,2.61l-5.507,5.507C29.696,49.697,29.225,49.877,28.752,49.877z"/>
			</g>
		</g>
		<g>
			<g>
				<path style="fill:#44444D;" d="M15.66,36.093c-0.473,0-0.945-0.181-1.305-0.541l-5.507-5.507c-0.721-0.721-0.721-1.89,0-2.61
					c0.721-0.722,1.89-0.722,2.61,0l5.507,5.507c0.721,0.721,0.721,1.89,0,2.61C16.604,35.912,16.132,36.093,15.66,36.093z"/>
			</g>
			<g>
				<path style="fill:#44444D;" d="M10.152,36.093c-0.473,0-0.945-0.181-1.305-0.541c-0.721-0.721-0.721-1.89,0-2.61l5.507-5.507
					c0.721-0.722,1.89-0.722,2.61,0c0.721,0.721,0.721,1.89,0,2.61l-5.507,5.507C11.097,35.912,10.625,36.093,10.152,36.093z"/>
			</g>
		</g>
	</g>
</g>
<g id="Layer_1">
</g>
</svg>
