<?xml version="1.0" encoding="iso-8859-1"?>
<!-- Generator: Adobe Illustrator 16.0.0, SVG Export Plug-In . SVG Version: 6.00 Build 0)  -->
<!DOCTYPE svg PUBLIC "-//W3C//DTD SVG 1.1//EN" "http://www.w3.org/Graphics/SVG/1.1/DTD/svg11.dtd">
<svg version="1.1" xmlns="http://www.w3.org/2000/svg" xmlns:xlink="http://www.w3.org/1999/xlink" x="0px" y="0px"
	 width="50.375px" height="57.692px" viewBox="0 0 50.375 57.692" style="enable-background:new 0 0 50.375 57.692;"
	 xml:space="preserve">
<g id="_x32_1_x5F_strategy_x5F_board2">
	<g>
		<g>
			<path style="fill:#44444D;" d="M48.529,33.31c-1.02,0-1.846-0.826-1.846-1.846V3.693H3.691v27.771
				c0,1.02-0.826,1.846-1.846,1.846S0,32.483,0,31.464V1.847C0,0.827,0.826,0,1.846,0h46.684c1.02,0,1.846,0.827,1.846,1.846v29.617
				C50.375,32.483,49.549,33.31,48.529,33.31z"/>
		</g>
		<g>
			<path style="fill:#44444D;" d="M25.188,56.155c-1.02,0-1.846-0.826-1.846-1.846V34.206c0-1.02,0.826-1.847,1.846-1.847
				s1.846,0.827,1.846,1.847V54.31C27.034,55.329,26.208,56.155,25.188,56.155z"/>
		</g>
		<g>
			<path style="fill:#44444D;" d="M38.884,57.692c-0.489,0-0.978-0.193-1.341-0.576L25.188,44.065L12.834,57.116
				c-0.702,0.74-1.869,0.771-2.61,0.071c-0.74-0.701-0.772-1.869-0.071-2.61L23.848,40.11c0.697-0.737,1.984-0.737,2.682,0
				l13.695,14.467c0.701,0.741,0.669,1.909-0.071,2.61C39.796,57.525,39.34,57.692,38.884,57.692z"/>
		</g>
		<g>
			<path style="fill:#44444D;" d="M42.962,36.052H7.413c-1.02,0-1.846-0.826-1.846-1.846s0.826-1.847,1.846-1.847h35.549
				c1.02,0,1.846,0.827,1.846,1.847S43.981,36.052,42.962,36.052z"/>
		</g>
		<g>
			<path style="fill:#44444D;" d="M12.268,29.86c-1.717,0-3.307-0.776-4.362-2.13c-0.908-1.166-1.307-2.614-1.124-4.08
				c0.183-1.464,0.926-2.77,2.091-3.677c0.979-0.763,2.153-1.166,3.393-1.166c1.718,0,3.308,0.776,4.362,2.13
				c0.907,1.166,1.306,2.615,1.123,4.081c-0.184,1.465-0.927,2.771-2.092,3.676C14.682,29.456,13.508,29.86,12.268,29.86z
				 M12.265,22.499c-0.41,0-0.799,0.134-1.125,0.388c-0.387,0.301-0.634,0.735-0.694,1.221c-0.061,0.486,0.071,0.966,0.372,1.352
				c0.351,0.45,0.879,0.708,1.45,0.708c0.285,0,0.712-0.067,1.122-0.387c0.39-0.302,0.636-0.735,0.696-1.221
				c0.061-0.487-0.071-0.967-0.372-1.354C13.364,22.757,12.836,22.499,12.265,22.499z"/>
		</g>
		<g>
			<g>
				<path style="fill:#44444D;" d="M19.075,19.549c-0.353,0-0.709-0.101-1.024-0.312c-0.848-0.567-1.075-1.713-0.508-2.561
					c2.202-3.295,6.274-5.7,10.892-6.434c5.086-0.808,10.154,0.529,14.27,3.764c0.802,0.63,0.94,1.791,0.311,2.592
					s-1.791,0.941-2.592,0.31c-3.298-2.592-7.349-3.665-11.409-3.02c-3.565,0.567-6.785,2.421-8.402,4.839
					C20.256,19.262,19.671,19.549,19.075,19.549z"/>
			</g>
			<g>
				<path style="fill:#44444D;" d="M34.918,19.179c-0.806,0-1.547-0.532-1.775-1.346c-0.277-0.981,0.294-2.001,1.275-2.278
					l4.868-1.372l-1.372-4.867c-0.277-0.981,0.294-2.001,1.275-2.278c0.982-0.276,2.002,0.294,2.277,1.276l1.873,6.644
					c0.134,0.471,0.073,0.976-0.166,1.403s-0.639,0.742-1.109,0.875l-6.645,1.873C35.252,19.156,35.084,19.179,34.918,19.179z"/>
			</g>
		</g>
		<g>
			<g>
				<path style="fill:#44444D;" d="M30.845,29.21c-0.473,0-0.945-0.18-1.306-0.541l-5.507-5.507c-0.721-0.721-0.721-1.89,0-2.61
					c0.721-0.722,1.891-0.722,2.611,0l5.507,5.507c0.721,0.721,0.721,1.89,0,2.61C31.79,29.03,31.317,29.21,30.845,29.21z"/>
			</g>
			<g>
				<path style="fill:#44444D;" d="M25.337,29.21c-0.473,0-0.945-0.18-1.306-0.541c-0.721-0.721-0.721-1.89,0-2.61l5.507-5.507
					c0.721-0.722,1.891-0.722,2.611,0c0.721,0.721,0.721,1.89,0,2.61l-5.507,5.507C26.282,29.03,25.81,29.21,25.337,29.21z"/>
			</g>
		</g>
		<g>
			<g>
				<path style="fill:#44444D;" d="M14.149,15.383c-0.473,0-0.945-0.18-1.306-0.541L7.337,9.335c-0.721-0.721-0.721-1.89,0-2.61
					c0.721-0.722,1.891-0.722,2.611,0l5.507,5.507c0.721,0.721,0.721,1.89,0,2.61C15.095,15.203,14.622,15.383,14.149,15.383z"/>
			</g>
			<g>
				<path style="fill:#44444D;" d="M8.642,15.383c-0.473,0-0.945-0.18-1.306-0.541c-0.721-0.721-0.721-1.89,0-2.61l5.507-5.507
					c0.721-0.722,1.891-0.722,2.611,0c0.721,0.721,0.721,1.89,0,2.61l-5.507,5.507C9.587,15.203,9.114,15.383,8.642,15.383z"/>
			</g>
		</g>
	</g>
</g>
<g id="Layer_1">
</g>
</svg>
