<?xml version="1.0" encoding="iso-8859-1"?>
<!-- Generator: Adobe Illustrator 16.0.0, SVG Export Plug-In . SVG Version: 6.00 Build 0)  -->
<!DOCTYPE svg PUBLIC "-//W3C//DTD SVG 1.1//EN" "http://www.w3.org/Graphics/SVG/1.1/DTD/svg11.dtd">
<svg version="1.1" xmlns="http://www.w3.org/2000/svg" xmlns:xlink="http://www.w3.org/1999/xlink" x="0px" y="0px"
	 width="37.492px" height="57.694px" viewBox="0 0 37.492 57.694" style="enable-background:new 0 0 37.492 57.694;"
	 xml:space="preserve">
<g id="_x32_2_x5F_corner">
	<g>
		<g>
			<path style="fill:#44444D;" d="M1.848,57.694c-0.728,0-1.417-0.433-1.71-1.147c-0.386-0.943,0.066-2.021,1.01-2.408
				l29.275-11.977L1.147,30.186c-0.943-0.386-1.396-1.464-1.01-2.408c0.387-0.943,1.461-1.397,2.408-1.009l33.452,13.686
				c0.693,0.284,1.146,0.959,1.146,1.708c0,0.75-0.453,1.426-1.146,1.709L2.546,57.557C2.317,57.649,2.08,57.694,1.848,57.694z"/>
		</g>
		<g>
			<path style="fill:#44444D;" d="M19.724,50.354c-0.231,0-0.467-0.043-0.695-0.137c-6.615-2.693-7.603-6.203-7.603-8.055
				s0.988-5.361,7.603-8.055c0.948-0.383,2.021,0.07,2.406,1.014c0.385,0.945-0.069,2.021-1.014,2.406
				c-3.32,1.352-5.303,3.085-5.303,4.635c0,1.551,1.982,3.283,5.303,4.635c0.944,0.385,1.398,1.463,1.014,2.406
				C21.143,49.92,20.452,50.354,19.724,50.354z"/>
		</g>
		<g>
			<path style="fill:#44444D;" d="M35.646,37.928c-1.02,0-1.846-0.826-1.846-1.846V1.848c0-1.02,0.826-1.846,1.846-1.846
				s1.846,0.827,1.846,1.846v34.234C37.491,37.102,36.665,37.928,35.646,37.928z"/>
		</g>
		<g>
			<path style="fill:#44444D;" d="M12.085,13.385c-0.727,0-1.415-0.431-1.708-1.145c-0.388-0.943,0.062-2.021,1.005-2.41
				L34.943,0.14c0.943-0.389,2.021,0.063,2.409,1.005c0.388,0.943-0.062,2.021-1.005,2.41l-23.562,9.691
				C12.557,13.34,12.318,13.385,12.085,13.385z"/>
		</g>
		<g>
			<path style="fill:#44444D;" d="M30.725,21.051c-0.233,0-0.472-0.045-0.701-0.139l-18.642-7.666
				c-0.943-0.388-1.393-1.467-1.005-2.41c0.387-0.943,1.464-1.394,2.409-1.005l18.642,7.666c0.943,0.388,1.393,1.467,1.005,2.41
				C32.14,20.62,31.451,21.051,30.725,21.051z"/>
		</g>
	</g>
</g>
<g id="Layer_1">
</g>
</svg>
