<?xml version="1.0" encoding="iso-8859-1"?>
<!-- Generator: Adobe Illustrator 16.0.0, SVG Export Plug-In . SVG Version: 6.00 Build 0)  -->
<!DOCTYPE svg PUBLIC "-//W3C//DTD SVG 1.1//EN" "http://www.w3.org/Graphics/SVG/1.1/DTD/svg11.dtd">
<svg version="1.1" xmlns="http://www.w3.org/2000/svg" xmlns:xlink="http://www.w3.org/1999/xlink" x="0px" y="0px"
	 width="50.426px" height="57.691px" viewBox="0 0 50.426 57.691" style="enable-background:new 0 0 50.426 57.691;"
	 xml:space="preserve">
<g id="_x32_3_x5F_flag">
	<g>
		<g>
			<path style="fill:#44444D;" d="M48.58,35.914H7.809c-1.02,0-1.846-0.826-1.846-1.846V4.299c0-1.02,0.826-1.846,1.846-1.846
				s1.846,0.827,1.846,1.846v27.924h37.08V9.884c0-1.02,0.826-1.846,1.846-1.846s1.846,0.827,1.846,1.846v24.185
				C50.426,35.088,49.6,35.914,48.58,35.914z"/>
		</g>
		<g>
			<path style="fill:#44444D;" d="M48.58,6.145H7.809c-1.02,0-1.846-0.827-1.846-1.846s0.826-1.846,1.846-1.846H48.58
				c1.02,0,1.846,0.827,1.846,1.846S49.6,6.145,48.58,6.145z"/>
		</g>
		<g>
			<path style="fill:#44444D;" d="M1.846,57.691C0.826,57.691,0,56.865,0,55.846v-54C0,0.826,0.826,0,1.846,0
				s1.846,0.827,1.846,1.846v54C3.691,56.865,2.865,57.691,1.846,57.691z"/>
		</g>
		<rect x="7.809" y="4.299" style="fill:#44444D;" width="20.385" height="14.884"/>
		<rect x="28.193" y="19.183" style="fill:#44444D;" width="20.389" height="14.885"/>
	</g>
</g>
<g id="Layer_1">
</g>
</svg>
