<?xml version="1.0" encoding="iso-8859-1"?>
<!-- Generator: Adobe Illustrator 16.0.0, SVG Export Plug-In . SVG Version: 6.00 Build 0)  -->
<!DOCTYPE svg PUBLIC "-//W3C//DTD SVG 1.1//EN" "http://www.w3.org/Graphics/SVG/1.1/DTD/svg11.dtd">
<svg version="1.1" xmlns="http://www.w3.org/2000/svg" xmlns:xlink="http://www.w3.org/1999/xlink" x="0px" y="0px"
	 width="55.518px" height="57.683px" viewBox="0 0 55.518 57.683" style="enable-background:new 0 0 55.518 57.683;"
	 xml:space="preserve">
<g id="_x32_4_x5F_soccer_x5F_logo2">
	<g>
		<g>
			<path style="fill:#44444D;" d="M27.76,57.683c-1.299,0-2.599-0.369-3.611-1.106l-2.331-1.691
				c-1.066-0.777-3.237-1.482-4.559-1.482h-2.883c-2.5,0-5.064-1.863-5.84-4.243l-0.891-2.743c-0.408-1.252-1.752-3.102-2.818-3.879
				l-2.333-1.692c-2.024-1.472-3.004-4.487-2.229-6.866l0.891-2.741c0.408-1.255,0.408-3.538,0-4.792l-0.891-2.743
				c-0.774-2.378,0.205-5.394,2.229-6.865l2.334-1.695c1.065-0.774,2.409-2.624,2.817-3.879l0.891-2.74
				c0.775-2.379,3.34-4.242,5.84-4.242h2.883c1.319,0,3.491-0.706,4.556-1.481l2.336-1.697c2.023-1.472,5.194-1.472,7.218,0.001
				l2.333,1.694c1.067,0.776,3.239,1.482,4.558,1.482h2.885c2.501,0,5.065,1.864,5.838,4.243l0.892,2.738
				c0.407,1.254,1.75,3.104,2.818,3.881l2.332,1.692c2.023,1.47,3.003,4.485,2.231,6.865l-0.893,2.744
				c-0.407,1.253-0.407,3.538,0,4.793l0.893,2.74c0.771,2.381-0.208,5.396-2.231,6.865l-2.334,1.695
				c-0.826,0.6-1.98,0.415-2.579-0.41c-0.599-0.824-0.415-1.979,0.409-2.578l2.334-1.694c0.739-0.536,1.172-1.867,0.89-2.737
				l-0.893-2.74c-0.654-2.018-0.654-5.059,0-7.075l0.893-2.744c0.282-0.868-0.15-2.199-0.89-2.736l-2.334-1.694
				c-1.718-1.251-3.504-3.712-4.157-5.726l-0.892-2.738c-0.283-0.871-1.413-1.692-2.327-1.692h-2.885
				c-2.12,0-5.013-0.941-6.729-2.188l-2.333-1.695c-0.74-0.538-2.138-0.538-2.876-0.001l-2.335,1.696
				c-1.712,1.247-4.604,2.188-6.728,2.188h-2.883c-0.914,0-2.045,0.822-2.329,1.692l-0.89,2.739
				c-0.657,2.017-2.444,4.478-4.158,5.724l-2.335,1.695c-0.739,0.537-1.171,1.866-0.888,2.735l0.891,2.743
				c0.656,2.016,0.656,5.058,0,7.075L3.776,35.12c-0.283,0.87,0.148,2.2,0.888,2.737l2.334,1.693
				c1.715,1.249,3.502,3.709,4.158,5.723l0.892,2.744c0.283,0.869,1.415,1.693,2.328,1.693h2.883c2.125,0,5.019,0.94,6.729,2.188
				l2.331,1.691c0.742,0.54,2.138,0.539,2.876,0.002l2.337-1.695c1.711-1.246,4.604-2.186,6.727-2.186h2.885
				c0.913,0,2.044-0.822,2.326-1.693l0.893-2.743c0.315-0.97,1.357-1.503,2.327-1.185c0.97,0.316,1.5,1.357,1.185,2.327
				l-0.893,2.742c-0.771,2.379-3.336,4.243-5.838,4.243h-2.885c-1.32,0-3.491,0.706-4.557,1.48l-2.336,1.695
				C30.355,57.314,29.058,57.682,27.76,57.683z"/>
		</g>
		<g>
			<g>
				<path style="fill:#44444D;" d="M27.758,49.279c-11.271,0-20.438-9.168-20.438-20.438c0-11.271,9.168-20.44,20.438-20.44
					c11.271,0,20.441,9.169,20.441,20.44C48.199,40.111,39.029,49.279,27.758,49.279z M27.758,12.094
					c-9.234,0-16.747,7.513-16.747,16.748c0,9.232,7.513,16.744,16.747,16.744c9.235,0,16.75-7.512,16.75-16.744
					C44.508,19.607,36.993,12.094,27.758,12.094z"/>
			</g>
			<g>
				<polygon style="fill:#44444D;" points="31.468,34.162 33.761,27.105 27.758,22.747 21.759,27.105 24.052,34.162 				"/>
				<path style="fill:#44444D;" d="M33.428,16.435l-0.688-1.151c-1.557-0.57-3.229-0.896-4.981-0.896
					c-1.751,0-3.422,0.325-4.979,0.896l-0.691,1.151l5.67,2.222L33.428,16.435z"/>
				<path style="fill:#44444D;" d="M39.98,21.077l-1.276-0.422l-0.93,6.021l3.413,5.044l0.972-0.927
					c0.078-0.615,0.133-1.234,0.133-1.869C42.292,26.031,41.438,23.342,39.98,21.077z"/>
				<path style="fill:#44444D;" d="M33.353,37.528l-3.541,4.955l1.209,0.592c3.391-0.779,6.32-2.742,8.347-5.433l-0.048-1.337
					L33.353,37.528z"/>
				<path style="fill:#44444D;" d="M16.198,36.306l-0.046,1.337c2.024,2.69,4.956,4.653,8.346,5.433l1.21-0.592l-3.541-4.955
					L16.198,36.306z"/>
				<path style="fill:#44444D;" d="M16.815,20.652l-1.277,0.425c-1.459,2.264-2.313,4.954-2.313,7.847
					c0,0.635,0.058,1.254,0.136,1.867l0.969,0.927l3.414-5.045L16.815,20.652z"/>
			</g>
		</g>
	</g>
</g>
<g id="Layer_1">
</g>
</svg>
