<?xml version="1.0" encoding="iso-8859-1"?>
<!-- Generator: Adobe Illustrator 16.0.0, SVG Export Plug-In . SVG Version: 6.00 Build 0)  -->
<!DOCTYPE svg PUBLIC "-//W3C//DTD SVG 1.1//EN" "http://www.w3.org/Graphics/SVG/1.1/DTD/svg11.dtd">
<svg version="1.1" xmlns="http://www.w3.org/2000/svg" xmlns:xlink="http://www.w3.org/1999/xlink" x="0px" y="0px"
	 width="57.692px" height="46.506px" viewBox="0 0 57.692 46.506" style="enable-background:new 0 0 57.692 46.506;"
	 xml:space="preserve">
<g id="_x32_5_x5F_diagram">
	<g>
		<g>
			<path style="fill:#44444D;" d="M55.846,46.506h-54C0.827,46.506,0,45.68,0,44.66V1.846C0,0.826,0.827,0,1.846,0
				s1.846,0.826,1.846,1.846v40.969h52.153c1.02,0,1.847,0.826,1.847,1.846S56.865,46.506,55.846,46.506z"/>
		</g>
		<g>
			<path style="fill:#44444D;" d="M13.731,46.207c-1.02,0-1.846-0.826-1.846-1.846V18.865c0-1.02,0.827-1.846,1.846-1.846h7.713
				c1.02,0,1.846,0.826,1.846,1.846s-0.827,1.846-1.846,1.846h-5.867v23.65C15.577,45.381,14.75,46.207,13.731,46.207z"/>
		</g>
		<g>
			<path style="fill:#44444D;" d="M51.709,46.207c-1.02,0-1.846-0.826-1.846-1.846v-23.65h-5.867c-1.02,0-1.846-0.826-1.846-1.846
				s0.826-1.846,1.846-1.846h7.713c1.02,0,1.847,0.826,1.847,1.846v25.496C53.556,45.381,52.729,46.207,51.709,46.207z"/>
		</g>
		<g>
			<path style="fill:#44444D;" d="M26.438,46.207c-1.02,0-1.846-0.826-1.846-1.846V3.065c0-1.02,0.827-1.846,1.846-1.846h11.978
				c1.02,0,1.847,0.826,1.847,1.846v36.052c0,1.02-0.827,1.846-1.847,1.846s-1.847-0.826-1.847-1.846V4.911h-8.285v39.45
				C28.284,45.381,27.457,46.207,26.438,46.207z"/>
		</g>
		<g>
			<path style="fill:#44444D;" d="M8.668,33.78H1.846C0.827,33.78,0,32.954,0,31.935s0.827-1.846,1.846-1.846h6.822
				c1.02,0,1.846,0.826,1.846,1.846S9.688,33.78,8.668,33.78z"/>
		</g>
	</g>
</g>
<g id="Layer_1">
</g>
</svg>
