<?xml version="1.0" encoding="iso-8859-1"?>
<!-- Generator: Adobe Illustrator 16.0.0, SVG Export Plug-In . SVG Version: 6.00 Build 0)  -->
<!DOCTYPE svg PUBLIC "-//W3C//DTD SVG 1.1//EN" "http://www.w3.org/Graphics/SVG/1.1/DTD/svg11.dtd">
<svg version="1.1" xmlns="http://www.w3.org/2000/svg" xmlns:xlink="http://www.w3.org/1999/xlink" x="0px" y="0px"
	 width="57.692px" height="48.623px" viewBox="0 0 57.692 48.623" style="enable-background:new 0 0 57.692 48.623;"
	 xml:space="preserve">
<g id="_x32_6_x5F_scoreboard">
	<g>
		<g>
			<path style="fill:#44444D;" d="M55.846,39.733h-54C0.827,39.733,0,38.907,0,37.888V1.846C0,0.826,0.827,0,1.846,0h54
				c1.02,0,1.847,0.826,1.847,1.846s-0.827,1.846-1.847,1.846H3.692v32.351H54V7.498c0-1.02,0.826-1.846,1.846-1.846
				s1.847,0.826,1.847,1.846v30.39C57.692,38.907,56.865,39.733,55.846,39.733z"/>
		</g>
		<g>
			<path style="fill:#44444D;" d="M39.639,48.623H18.054c-1.02,0-1.846-0.826-1.846-1.846s0.827-1.846,1.846-1.846h21.585
				c1.02,0,1.846,0.826,1.846,1.846S40.658,48.623,39.639,48.623z"/>
		</g>
		<g>
			<g>
				<path style="fill:#44444D;" d="M23.689,48.623c-1.02,0-1.846-0.826-1.846-1.846v-4.041c0-1.02,0.827-1.846,1.846-1.846
					s1.846,0.826,1.846,1.846v4.041C25.536,47.797,24.709,48.623,23.689,48.623z"/>
			</g>
			<g>
				<path style="fill:#44444D;" d="M34.003,48.623c-1.02,0-1.847-0.826-1.847-1.846v-4.041c0-1.02,0.827-1.846,1.847-1.846
					s1.847,0.826,1.847,1.846v4.041C35.85,47.797,35.022,48.623,34.003,48.623z"/>
			</g>
		</g>
		<g>
			<g>
				<g>
					<path style="fill:#44444D;" d="M10.054,10.891c-0.66,0-1.3-0.27-1.77-0.739c-0.46-0.461-0.73-1.11-0.73-1.761
						c0-0.66,0.27-1.31,0.73-1.77c0.93-0.931,2.61-0.931,3.54,0c0.46,0.46,0.73,1.109,0.73,1.77c0,0.65-0.27,1.3-0.73,1.761
						C11.354,10.621,10.714,10.891,10.054,10.891z"/>
				</g>
				<g>
					<path style="fill:#44444D;" d="M13.504,8.391c0-1.38,1.12-2.5,2.49-2.5l0,0c1.39,0,2.5,1.12,2.5,2.5l0,0
						c0,1.38-1.11,2.5-2.5,2.5l0,0C14.624,10.891,13.504,9.771,13.504,8.391z"/>
				</g>
				<g>
					<path style="fill:#44444D;" d="M21.944,10.891c-0.66,0-1.3-0.27-1.77-0.739c-0.46-0.461-0.73-1.11-0.73-1.761
						c0-0.66,0.27-1.31,0.73-1.77c0.93-0.931,2.61-0.931,3.54,0c0.46,0.46,0.73,1.109,0.73,1.77c0,0.65-0.27,1.3-0.73,1.761
						C23.244,10.621,22.604,10.891,21.944,10.891z"/>
				</g>
				<g>
					<path style="fill:#44444D;" d="M19.444,14.131c0-1.38,1.12-2.5,2.5-2.5l0,0c1.38,0,2.5,1.12,2.5,2.5l0,0
						c0,1.38-1.12,2.5-2.5,2.5l0,0C20.564,16.631,19.444,15.511,19.444,14.131z"/>
				</g>
				<g>
					<path style="fill:#44444D;" d="M21.944,22.371c-0.66,0-1.3-0.271-1.77-0.74c-0.46-0.46-0.73-1.11-0.73-1.77
						c0-0.65,0.27-1.301,0.73-1.761c0.93-0.93,2.6-0.939,3.54,0c0.46,0.46,0.73,1.11,0.73,1.761c0,0.659-0.27,1.31-0.73,1.77
						C23.244,22.101,22.604,22.371,21.944,22.371z"/>
				</g>
				<g>
					<path style="fill:#44444D;" d="M13.494,19.861c0-1.381,1.12-2.5,2.51-2.5l0,0c1.37,0,2.49,1.119,2.49,2.5l0,0
						c0,1.38-1.12,2.51-2.49,2.51l0,0C14.614,22.371,13.494,21.241,13.494,19.861z"/>
				</g>
				<g>
					<path style="fill:#44444D;" d="M10.054,22.371c-0.66,0-1.3-0.271-1.77-0.74c-0.46-0.46-0.73-1.11-0.73-1.77
						c0-0.65,0.27-1.301,0.73-1.761c0.93-0.93,2.61-0.93,3.54,0c0.46,0.46,0.73,1.11,0.73,1.761c0,0.659-0.27,1.31-0.73,1.77
						C11.354,22.101,10.714,22.371,10.054,22.371z"/>
				</g>
				<g>
					<path style="fill:#44444D;" d="M7.554,25.601c0-1.38,1.12-2.5,2.5-2.5l0,0c1.38,0,2.5,1.12,2.5,2.5l0,0
						c0,1.38-1.12,2.5-2.5,2.5l0,0C8.674,28.101,7.554,26.98,7.554,25.601z"/>
				</g>
				<g>
					<path style="fill:#44444D;" d="M10.054,33.841c-0.66,0-1.3-0.26-1.77-0.729c-0.46-0.46-0.73-1.11-0.73-1.771
						s0.27-1.3,0.73-1.76c0.93-0.94,2.61-0.93,3.54,0c0.46,0.46,0.73,1.1,0.73,1.76s-0.27,1.311-0.73,1.771
						C11.354,33.581,10.714,33.841,10.054,33.841z"/>
				</g>
				<g>
					<path style="fill:#44444D;" d="M13.494,31.341c0-1.38,1.12-2.5,2.5-2.5l0,0c1.39,0,2.5,1.12,2.5,2.5l0,0
						c0,1.38-1.11,2.5-2.5,2.5l0,0C14.614,33.841,13.494,32.721,13.494,31.341z"/>
				</g>
				<g>
					<path style="fill:#44444D;" d="M21.944,33.841c-0.66,0-1.3-0.26-1.77-0.729c-0.46-0.46-0.73-1.11-0.73-1.771
						s0.27-1.3,0.73-1.77c0.93-0.92,2.6-0.931,3.54,0.01c0.46,0.46,0.73,1.109,0.73,1.76c0,0.66-0.27,1.3-0.73,1.771
						C23.244,33.581,22.604,33.841,21.944,33.841z"/>
				</g>
			</g>
			<g>
				<g>
					<path style="fill:#44444D;" d="M35.744,33.841c-0.65,0-1.301-0.26-1.76-0.729c-0.471-0.46-0.74-1.11-0.74-1.771
						s0.27-1.3,0.74-1.76c0.92-0.94,2.6-0.94,3.529,0c0.471,0.46,0.74,1.109,0.74,1.76c0,0.66-0.27,1.3-0.74,1.771
						C37.044,33.581,36.404,33.841,35.744,33.841z"/>
				</g>
				<g>
					<path style="fill:#44444D;" d="M39.193,31.341c0-1.38,1.121-2.5,2.5-2.5l0,0c1.381,0,2.5,1.12,2.5,2.5l0,0
						c0,1.38-1.119,2.5-2.5,2.5l0,0C40.314,33.841,39.193,32.721,39.193,31.341z"/>
				</g>
				<g>
					<path style="fill:#44444D;" d="M47.634,33.841c-0.649,0-1.3-0.26-1.76-0.729c-0.47-0.471-0.74-1.11-0.74-1.771
						c0-0.65,0.271-1.3,0.74-1.76c0.93-0.94,2.61-0.93,3.53,0c0.47,0.46,0.729,1.1,0.729,1.76s-0.26,1.3-0.729,1.771
						C48.943,33.581,48.294,33.841,47.634,33.841z"/>
				</g>
				<g>
					<path style="fill:#44444D;" d="M45.134,25.601c0-1.38,1.12-2.5,2.5-2.5l0,0c1.38,0,2.5,1.12,2.5,2.5l0,0
						c0,1.38-1.12,2.5-2.5,2.5l0,0C46.254,28.101,45.134,26.98,45.134,25.601z M45.134,19.861c0-1.381,1.12-2.5,2.5-2.5l0,0
						c1.38,0,2.5,1.119,2.5,2.5l0,0c0,1.38-1.12,2.5-2.5,2.5l0,0C46.254,22.361,45.134,21.241,45.134,19.861z M45.134,14.121
						c0-1.38,1.12-2.5,2.5-2.5l0,0c1.38,0,2.5,1.12,2.5,2.5l0,0c0,1.39-1.12,2.51-2.5,2.51l0,0
						C46.254,16.631,45.134,15.511,45.134,14.121z"/>
				</g>
				<g>
					<path style="fill:#44444D;" d="M47.634,10.891c-0.649,0-1.3-0.27-1.76-0.739c-0.47-0.461-0.74-1.11-0.74-1.761
						c0-0.66,0.271-1.31,0.74-1.77c0.93-0.931,2.6-0.931,3.53,0c0.47,0.46,0.729,1.109,0.729,1.77c0,0.65-0.26,1.3-0.729,1.761
						C48.943,10.621,48.294,10.891,47.634,10.891z"/>
				</g>
				<g>
					<path style="fill:#44444D;" d="M39.193,8.391c0-1.38,1.121-2.5,2.5-2.5l0,0c1.381,0,2.5,1.12,2.5,2.5l0,0
						c0,1.38-1.119,2.5-2.5,2.5l0,0C40.314,10.891,39.193,9.771,39.193,8.391z"/>
				</g>
				<g>
					<path style="fill:#44444D;" d="M35.744,10.891c-0.65,0-1.301-0.27-1.76-0.739c-0.471-0.461-0.74-1.11-0.74-1.761
						c0-0.66,0.27-1.31,0.74-1.77c0.93-0.931,2.6-0.931,3.529,0c0.471,0.46,0.73,1.109,0.73,1.77c0,0.65-0.26,1.3-0.73,1.761
						C37.054,10.621,36.404,10.891,35.744,10.891z"/>
				</g>
				<g>
					<path style="fill:#44444D;" d="M33.244,25.601c0-1.38,1.119-2.5,2.5-2.5l0,0c1.38,0,2.51,1.12,2.51,2.5l0,0
						c0,1.38-1.13,2.5-2.51,2.5l0,0C34.363,28.101,33.244,26.98,33.244,25.601z M33.244,19.871c0-1.391,1.119-2.5,2.5-2.5l0,0
						c1.38,0,2.51,1.109,2.51,2.5l0,0c0,1.38-1.13,2.49-2.51,2.49l0,0C34.363,22.361,33.244,21.251,33.244,19.871z M33.244,14.121
						c0-1.38,1.119-2.49,2.5-2.49l0,0c1.38,0,2.51,1.11,2.51,2.49l0,0c0,1.39-1.13,2.51-2.51,2.51l0,0
						C34.363,16.631,33.244,15.511,33.244,14.121z"/>
				</g>
			</g>
			<g>
				<g>
					<path style="fill:#44444D;" d="M28.844,18.361c-0.66,0-1.3-0.261-1.77-0.73c-0.46-0.46-0.73-1.11-0.73-1.77
						c0-0.66,0.27-1.301,0.73-1.771c0.94-0.93,2.61-0.92,3.54,0c0.471,0.47,0.73,1.12,0.73,1.771c0,0.659-0.26,1.3-0.73,1.77
						C30.145,18.101,29.504,18.361,28.844,18.361z"/>
				</g>
				<g>
					<path style="fill:#44444D;" d="M28.844,26.371c-0.65,0-1.3-0.271-1.77-0.73c-0.46-0.47-0.73-1.109-0.73-1.77
						s0.27-1.311,0.73-1.771c0.93-0.93,2.61-0.93,3.54,0c0.461,0.46,0.73,1.11,0.73,1.771s-0.27,1.3-0.73,1.77
						C30.145,26.101,29.504,26.371,28.844,26.371z"/>
				</g>
			</g>
		</g>
	</g>
</g>
<g id="Layer_1">
</g>
</svg>
