<?xml version="1.0" encoding="iso-8859-1"?>
<!-- Generator: Adobe Illustrator 16.0.0, SVG Export Plug-In . SVG Version: 6.00 Build 0)  -->
<!DOCTYPE svg PUBLIC "-//W3C//DTD SVG 1.1//EN" "http://www.w3.org/Graphics/SVG/1.1/DTD/svg11.dtd">
<svg version="1.1" xmlns="http://www.w3.org/2000/svg" xmlns:xlink="http://www.w3.org/1999/xlink" x="0px" y="0px"
	 width="57.692px" height="47.506px" viewBox="0 0 57.692 47.506" style="enable-background:new 0 0 57.692 47.506;"
	 xml:space="preserve">
<g id="_x32_7_x5F_standings">
	<g>
		<g>
			<g>
				<g>
					<path style="fill:#44444D;" d="M18.972,18.85h-2.479c-1.02,0-1.846-0.826-1.846-1.846s0.827-1.846,1.846-1.846h0.633V7.046
						h-0.633c-1.02,0-1.846-0.826-1.846-1.846s0.827-1.846,1.846-1.846h2.479c1.02,0,1.846,0.826,1.846,1.846v11.804
						C20.818,18.023,19.992,18.85,18.972,18.85z"/>
				</g>
				<g>
					<path style="fill:#44444D;" d="M34.13,15.957H23.597c-1.02,0-1.846-0.826-1.846-1.846v-6.02c0-1.02,0.827-1.846,1.846-1.846
						H34.13c1.02,0,1.847,0.826,1.847,1.846v6.02C35.977,15.131,35.149,15.957,34.13,15.957z M25.443,12.266h6.84V9.938h-6.84
						V12.266z"/>
				</g>
				<g>
					<g>
						<path style="fill:#44444D;" d="M12.379,9.709H1.846C0.827,9.709,0,8.883,0,7.863V1.846C0,0.826,0.827,0,1.846,0h10.533
							c1.02,0,1.846,0.826,1.846,1.846v6.018C14.226,8.883,13.399,9.709,12.379,9.709z M3.692,6.018h6.841V3.691H3.692V6.018z"/>
					</g>
					<g>
						<path style="fill:#44444D;" d="M12.379,22.203H1.846C0.827,22.203,0,21.377,0,20.357v-6.017c0-1.02,0.827-1.846,1.846-1.846
							h10.533c1.02,0,1.846,0.826,1.846,1.846v6.017C14.226,21.377,13.399,22.203,12.379,22.203z M3.692,18.512h6.841v-2.325H3.692
							V18.512z"/>
					</g>
				</g>
			</g>
			<g>
				<g>
					<path style="fill:#44444D;" d="M18.972,44.151h-2.479c-1.02,0-1.846-0.826-1.846-1.846s0.827-1.846,1.846-1.846h0.633v-8.112
						h-0.633c-1.02,0-1.846-0.826-1.846-1.846s0.827-1.846,1.846-1.846h2.479c1.02,0,1.846,0.826,1.846,1.846v11.804
						C20.818,43.325,19.992,44.151,18.972,44.151z"/>
				</g>
				<g>
					<path style="fill:#44444D;" d="M34.13,41.259H23.597c-1.02,0-1.846-0.826-1.846-1.846v-6.018c0-1.02,0.827-1.846,1.846-1.846
						H34.13c1.02,0,1.847,0.826,1.847,1.846v6.018C35.977,40.433,35.149,41.259,34.13,41.259z M25.443,37.567h6.84v-2.326h-6.84
						V37.567z"/>
				</g>
				<g>
					<g>
						<path style="fill:#44444D;" d="M12.379,35.012H1.846C0.827,35.012,0,34.186,0,33.166v-6.018c0-1.02,0.827-1.846,1.846-1.846
							h10.533c1.02,0,1.846,0.826,1.846,1.846v6.018C14.226,34.186,13.399,35.012,12.379,35.012z M3.692,31.32h6.841v-2.326H3.692
							V31.32z"/>
					</g>
					<g>
						<path style="fill:#44444D;" d="M12.379,47.506H1.846C0.827,47.506,0,46.68,0,45.66v-6.019c0-1.02,0.827-1.846,1.846-1.846
							h10.533c1.02,0,1.846,0.826,1.846,1.846v6.019C14.226,46.68,13.399,47.506,12.379,47.506z M3.692,43.814h6.841v-2.327H3.692
							V43.814z"/>
					</g>
				</g>
			</g>
		</g>
		<g>
			<path style="fill:#44444D;" d="M40.688,37.873h-2.479c-1.02,0-1.847-0.826-1.847-1.846s0.827-1.846,1.847-1.846h0.633V13.324
				h-0.633c-1.02,0-1.847-0.826-1.847-1.846s0.827-1.846,1.847-1.846h2.479c1.02,0,1.847,0.826,1.847,1.846v24.549
				C42.535,37.047,41.708,37.873,40.688,37.873z"/>
		</g>
		<g>
			<path style="fill:#44444D;" d="M55.846,28.608H45.313c-1.02,0-1.846-0.826-1.846-1.846v-6.019c0-1.02,0.826-1.846,1.846-1.846
				h10.533c1.02,0,1.847,0.826,1.847,1.846v6.019C57.692,27.782,56.865,28.608,55.846,28.608z M47.159,24.917H54V22.59h-6.841
				V24.917z"/>
		</g>
	</g>
</g>
<g id="Layer_1">
</g>
</svg>
