<?xml version="1.0" encoding="iso-8859-1"?>
<!-- Generator: Adobe Illustrator 16.0.0, SVG Export Plug-In . SVG Version: 6.00 Build 0)  -->
<!DOCTYPE svg PUBLIC "-//W3C//DTD SVG 1.1//EN" "http://www.w3.org/Graphics/SVG/1.1/DTD/svg11.dtd">
<svg version="1.1" xmlns="http://www.w3.org/2000/svg" xmlns:xlink="http://www.w3.org/1999/xlink" x="0px" y="0px"
	 width="57.692px" height="50.32px" viewBox="0 0 57.692 50.32" style="enable-background:new 0 0 57.692 50.32;"
	 xml:space="preserve">
<g id="_x32_8_x5F_calendar">
	<g>
		<g>
			<path style="fill:#44444D;" d="M50.654,50.32H1.846C0.827,50.32,0,49.494,0,48.475V6.086C0,5.066,0.827,4.24,1.846,4.24h7.145
				c1.02,0,1.846,0.826,1.846,1.846s-0.827,1.846-1.846,1.846H3.692v38.697h45.116V7.932h-4.928c-1.02,0-1.847-0.826-1.847-1.846
				s0.827-1.846,1.847-1.846h6.773c1.02,0,1.846,0.826,1.846,1.846v42.389C52.5,49.494,51.674,50.32,50.654,50.32z"/>
		</g>
		<g>
			<path style="fill:#44444D;" d="M33.573,7.932H19.171c-1.02,0-1.846-0.826-1.846-1.846s0.827-1.846,1.846-1.846h14.402
				c1.02,0,1.847,0.826,1.847,1.846S34.593,7.932,33.573,7.932z"/>
		</g>
		<g>
			<path style="fill:#44444D;" d="M14.107,11.744c-1.02,0-1.846-0.826-1.846-1.846V1.846c0-1.02,0.827-1.846,1.846-1.846
				s1.846,0.826,1.846,1.846v8.053C15.954,10.918,15.127,11.744,14.107,11.744z"/>
		</g>
		<g>
			<path style="fill:#44444D;" d="M38.725,11.744c-1.02,0-1.847-0.826-1.847-1.846V1.846c0-1.02,0.827-1.846,1.847-1.846
				s1.846,0.826,1.846,1.846v8.053C40.57,10.918,39.744,11.744,38.725,11.744z"/>
		</g>
		<g>
			<path style="fill:#44444D;" d="M55.846,50.32c-1.02,0-1.846-0.826-1.846-1.846V6.086c0-1.02,0.826-1.846,1.846-1.846
				s1.847,0.826,1.847,1.846v42.389C57.692,49.494,56.865,50.32,55.846,50.32z"/>
		</g>
		<g>
			<g>
				<path style="fill:#44444D;" d="M26.25,41.896c-8.06,0-14.618-6.557-14.618-14.617c0-8.06,6.558-14.616,14.618-14.616
					c8.061,0,14.62,6.557,14.62,14.616C40.869,35.34,34.311,41.896,26.25,41.896z M26.25,16.354
					c-6.024,0-10.925,4.901-10.925,10.925c0,6.024,4.901,10.926,10.925,10.926c6.025,0,10.926-4.901,10.926-10.926
					C37.176,21.256,32.274,16.354,26.25,16.354z"/>
			</g>
			<g>
				<polygon style="fill:#44444D;" points="28.642,30.708 30.121,26.157 26.25,23.343 22.378,26.157 23.858,30.708 				"/>
				<path style="fill:#44444D;" d="M29.907,19.271l-0.445-0.742c-1.003-0.368-2.082-0.578-3.213-0.578
					c-1.129,0-2.208,0.21-3.212,0.578l-0.446,0.742l3.658,1.434L29.907,19.271z"/>
				<path style="fill:#44444D;" d="M34.135,22.267l-0.824-0.273l-0.6,3.885l2.201,3.253l0.629-0.596
					c0.051-0.397,0.084-0.797,0.084-1.206C35.625,25.463,35.074,23.728,34.135,22.267z"/>
				<path style="fill:#44444D;" d="M29.859,32.881l-2.285,3.197l0.781,0.381c2.187-0.504,4.077-1.77,5.386-3.505l-0.032-0.862
					L29.859,32.881z"/>
				<path style="fill:#44444D;" d="M18.791,32.092l-0.029,0.862c1.308,1.735,3.198,3.001,5.385,3.505l0.781-0.381l-2.285-3.197
					L18.791,32.092z"/>
				<path style="fill:#44444D;" d="M19.19,21.992l-0.824,0.274c-0.942,1.461-1.492,3.196-1.492,5.063
					c0,0.409,0.036,0.808,0.086,1.204l0.626,0.597l2.202-3.253L19.19,21.992z"/>
			</g>
		</g>
	</g>
</g>
<g id="Layer_1">
</g>
</svg>
