<?xml version="1.0" encoding="iso-8859-1"?>
<!-- Generator: Adobe Illustrator 16.0.0, SVG Export Plug-In . SVG Version: 6.00 Build 0)  -->
<!DOCTYPE svg PUBLIC "-//W3C//DTD SVG 1.1//EN" "http://www.w3.org/Graphics/SVG/1.1/DTD/svg11.dtd">
<svg version="1.1" xmlns="http://www.w3.org/2000/svg" xmlns:xlink="http://www.w3.org/1999/xlink" x="0px" y="0px"
	 width="57.692px" height="45.039px" viewBox="0 0 57.692 45.039" style="enable-background:new 0 0 57.692 45.039;"
	 xml:space="preserve">
<g id="_x32_9_x5F_stats">
	<g>
		<g>
			<path style="fill:#44444D;" d="M55.847,45.039h-54C0.827,45.039,0,44.213,0,43.193V3.029c0-1.02,0.826-1.846,1.846-1.846
				S3.692,2.01,3.692,3.029v38.318h52.155c1.02,0,1.846,0.826,1.846,1.846S56.866,45.039,55.847,45.039z"/>
		</g>
		<g>
			<path style="fill:#44444D;" d="M49.596,31.226c-2.179,0-4.36-0.785-6.572-2.354c-0.832-0.59-1.028-1.742-0.438-2.574
				c0.591-0.831,1.743-1.027,2.573-0.438c3.356,2.379,6.117,2.229,9.532-0.515c0.795-0.639,1.957-0.513,2.595,0.282
				c0.64,0.795,0.513,1.956-0.282,2.595C54.512,30.226,52.056,31.226,49.596,31.226z"/>
		</g>
		<g>
			<path style="fill:#44444D;" d="M1.845,28.873c-0.214,0-0.431-0.038-0.643-0.117C0.248,28.4-0.239,27.34,0.116,26.385
				c0.111-0.3,2.794-7.407,8.702-12.536c0.771-0.667,1.937-0.585,2.604,0.185s0.586,1.936-0.185,2.604
				C6.063,21.13,3.6,27.606,3.577,27.672C3.298,28.414,2.594,28.873,1.845,28.873z"/>
		</g>
		<g>
			<g>
				<path style="fill:#44444D;" d="M28.85,31.617c-8.717,0-15.809-7.092-15.809-15.809S20.133,0,28.85,0
					c8.718,0,15.81,7.092,15.81,15.809S37.568,31.617,28.85,31.617z M28.85,3.691c-6.682,0-12.117,5.436-12.117,12.117
					s5.436,12.117,12.117,12.117c6.682,0,12.119-5.436,12.119-12.117S35.532,3.691,28.85,3.691z"/>
			</g>
			<g>
				<polygon style="fill:#44444D;" points="31.467,19.558 33.086,14.58 28.85,11.506 24.616,14.58 26.235,19.558 				"/>
				<path style="fill:#44444D;" d="M32.851,7.05l-0.488-0.81c-1.096-0.402-2.274-0.632-3.512-0.632
					c-1.235,0-2.415,0.229-3.511,0.632l-0.487,0.81l3.998,1.569L32.851,7.05z"/>
				<path style="fill:#44444D;" d="M37.474,10.327l-0.903-0.299l-0.654,4.246l2.407,3.56l0.684-0.654
					c0.058-0.434,0.096-0.871,0.096-1.318C39.103,13.821,38.5,11.925,37.474,10.327z"/>
				<path style="fill:#44444D;" d="M32.796,21.932l-2.499,3.494l0.854,0.418c2.393-0.551,4.459-1.935,5.887-3.833l-0.033-0.942
					L32.796,21.932z"/>
				<path style="fill:#44444D;" d="M20.696,21.068l-0.032,0.942c1.428,1.898,3.494,3.282,5.887,3.833l0.854-0.418l-2.499-3.494
					L20.696,21.068z"/>
				<path style="fill:#44444D;" d="M21.131,10.028l-0.9,0.299c-1.029,1.598-1.632,3.494-1.632,5.534
					c0,0.447,0.038,0.885,0.096,1.316l0.684,0.655l2.407-3.559L21.131,10.028z"/>
			</g>
		</g>
		<g>
			<path style="fill:#44444D;" d="M8.411,45.039c-1.02,0-1.846-0.826-1.846-1.846v-4.429c0-1.02,0.826-1.846,1.846-1.846
				s1.846,0.826,1.846,1.846v4.429C10.256,44.213,9.43,45.039,8.411,45.039z"/>
		</g>
		<g>
			<path style="fill:#44444D;" d="M14.975,45.039c-1.02,0-1.846-0.826-1.846-1.846v-4.429c0-1.02,0.826-1.846,1.846-1.846
				s1.846,0.826,1.846,1.846v4.429C16.821,44.213,15.995,45.039,14.975,45.039z"/>
		</g>
		<g>
			<path style="fill:#44444D;" d="M21.54,45.039c-1.02,0-1.846-0.826-1.846-1.846v-4.429c0-1.02,0.826-1.846,1.846-1.846
				s1.846,0.826,1.846,1.846v4.429C23.385,44.213,22.559,45.039,21.54,45.039z"/>
		</g>
		<g>
			<path style="fill:#44444D;" d="M28.104,45.039c-1.02,0-1.846-0.826-1.846-1.846v-7.429c0-1.02,0.826-1.846,1.846-1.846
				s1.846,0.826,1.846,1.846v7.429C29.95,44.213,29.124,45.039,28.104,45.039z"/>
		</g>
		<g>
			<path style="fill:#44444D;" d="M34.669,45.039c-1.02,0-1.846-0.826-1.846-1.846v-4.429c0-1.02,0.826-1.846,1.846-1.846
				s1.846,0.826,1.846,1.846v4.429C36.515,44.213,35.688,45.039,34.669,45.039z"/>
		</g>
		<g>
			<path style="fill:#44444D;" d="M41.233,45.039c-1.02,0-1.846-0.826-1.846-1.846v-4.429c0-1.02,0.826-1.846,1.846-1.846
				s1.846,0.826,1.846,1.846v4.429C43.079,44.213,42.253,45.039,41.233,45.039z"/>
		</g>
		<g>
			<path style="fill:#44444D;" d="M47.798,45.039c-1.02,0-1.846-0.826-1.846-1.846v-4.429c0-1.02,0.826-1.846,1.846-1.846
				s1.846,0.826,1.846,1.846v4.429C49.644,44.213,48.817,45.039,47.798,45.039z"/>
		</g>
	</g>
</g>
<g id="Layer_1">
</g>
</svg>
