<?xml version="1.0" encoding="iso-8859-1"?>
<!-- Generator: Adobe Illustrator 16.0.0, SVG Export Plug-In . SVG Version: 6.00 Build 0)  -->
<!DOCTYPE svg PUBLIC "-//W3C//DTD SVG 1.1//EN" "http://www.w3.org/Graphics/SVG/1.1/DTD/svg11.dtd">
<svg version="1.1" xmlns="http://www.w3.org/2000/svg" xmlns:xlink="http://www.w3.org/1999/xlink" x="0px" y="0px"
	 width="57.691px" height="50.686px" viewBox="0 0 57.691 50.686" style="enable-background:new 0 0 57.691 50.686;"
	 xml:space="preserve">
<g id="_x33_0_x5F_diagram_x5F_successfull">
	<g>
		<g>
			<path style="fill:#44444D;" d="M55.846,50.686h-54C0.826,50.686,0,49.859,0,48.84V10.846C0,9.826,0.826,9,1.846,9
				s1.846,0.826,1.846,1.846v36.148h52.154c1.02,0,1.846,0.826,1.846,1.846S56.865,50.686,55.846,50.686z"/>
		</g>
		<g>
			<path style="fill:#44444D;" d="M39.606,50.387c-1.02,0-1.846-0.826-1.846-1.846V18.418c0-1.02,0.826-1.846,1.846-1.846h10.595
				c1.02,0,1.846,0.826,1.846,1.846V43.83c0,1.02-0.826,1.846-1.846,1.846s-1.846-0.826-1.846-1.846V20.264h-6.903v28.277
				C41.452,49.561,40.626,50.387,39.606,50.387z"/>
		</g>
		<g>
			<path style="fill:#44444D;" d="M20.726,50.387c-1.02,0-1.846-0.826-1.846-1.846v-18.6c0-1.02,0.826-1.846,1.846-1.846h10.596
				c1.02,0,1.846,0.826,1.846,1.846V43.83c0,1.02-0.826,1.846-1.846,1.846s-1.846-0.826-1.846-1.846V31.787h-6.904v16.754
				C22.571,49.561,21.745,50.387,20.726,50.387z"/>
		</g>
		<g>
			<path style="fill:#44444D;" d="M1.846,50.387C0.826,50.387,0,49.561,0,48.541V35.27c0-1.02,0.826-1.846,1.846-1.846H12.44
				c1.02,0,1.846,0.826,1.846,1.846v8.561c0,1.02-0.826,1.846-1.846,1.846s-1.846-0.826-1.846-1.846v-6.715H3.691v11.426
				C3.691,49.561,2.865,50.387,1.846,50.387z"/>
		</g>
		<g>
			<path style="fill:#44444D;" d="M1.844,32.136c-0.88,0-1.658-0.632-1.815-1.527c-0.177-1.004,0.494-1.961,1.498-2.138
				c0.298-0.053,29.896-5.489,44.056-27.62c0.445-0.694,1.295-1.01,2.085-0.773c0.789,0.236,1.326,0.969,1.315,1.793l-0.085,6.521
				c-0.013,1.011-0.837,1.821-1.845,1.821c-0.009,0-0.017,0-0.025,0c-1.02-0.013-1.835-0.851-1.821-1.87l0.009-0.688
				C29.437,27.131,3.35,31.9,2.164,32.107C2.057,32.126,1.949,32.136,1.844,32.136z"/>
		</g>
		<g>
			<path style="fill:#44444D;" d="M40.32,4.851c-0.884,0-1.665-0.637-1.818-1.537c-0.171-1.006,0.506-1.959,1.511-2.13l6.814-1.158
				c1.005-0.169,1.959,0.506,2.13,1.511c0.171,1.006-0.506,1.959-1.511,2.13l-6.814,1.158C40.527,4.842,40.423,4.851,40.32,4.851z"
				/>
		</g>
	</g>
</g>
<g id="Layer_1">
</g>
</svg>
