<?xml version="1.0" encoding="iso-8859-1"?>
<!-- Generator: Adobe Illustrator 16.0.0, SVG Export Plug-In . SVG Version: 6.00 Build 0)  -->
<!DOCTYPE svg PUBLIC "-//W3C//DTD SVG 1.1//EN" "http://www.w3.org/Graphics/SVG/1.1/DTD/svg11.dtd">
<svg version="1.1" xmlns="http://www.w3.org/2000/svg" xmlns:xlink="http://www.w3.org/1999/xlink" x="0px" y="0px"
	 width="50.586px" height="57.691px" viewBox="0 0 50.586 57.691" style="enable-background:new 0 0 50.586 57.691;"
	 xml:space="preserve">
<g id="_x33_1_x5F_list">
	<g>
		<g>
			<path style="fill:#44444D;" d="M48.74,57.691H1.846C0.826,57.691,0,56.865,0,55.846v-54C0,0.826,0.826,0,1.846,0H48.74
				c1.02,0,1.846,0.826,1.846,1.846S49.76,3.691,48.74,3.691H3.691V54h43.203V7.975c0-1.02,0.826-1.846,1.846-1.846
				s1.846,0.826,1.846,1.846v47.871C50.586,56.865,49.76,57.691,48.74,57.691z"/>
		</g>
		<g>
			<path style="fill:#44444D;" d="M43.096,17.258H7.648c-1.02,0-1.846-0.826-1.846-1.846s0.826-1.846,1.846-1.846h35.447
				c1.02,0,1.846,0.826,1.846,1.846S44.115,17.258,43.096,17.258z"/>
		</g>
		<g>
			<path style="fill:#44444D;" d="M43.096,30.873H7.648c-1.02,0-1.846-0.826-1.846-1.846s0.826-1.846,1.846-1.846h35.447
				c1.02,0,1.846,0.826,1.846,1.846S44.115,30.873,43.096,30.873z"/>
		</g>
		<g>
			<path style="fill:#44444D;" d="M43.096,44.49H7.648c-1.02,0-1.846-0.826-1.846-1.846s0.826-1.846,1.846-1.846h35.447
				c1.02,0,1.846,0.826,1.846,1.846S44.115,44.49,43.096,44.49z"/>
		</g>
		<g>
			<path style="fill:#44444D;" d="M35.115,52.694c-1.02,0-1.846-0.826-1.846-1.846V7.413c0-1.02,0.826-1.846,1.846-1.846
				s1.846,0.826,1.846,1.846v43.436C36.961,51.868,36.135,52.694,35.115,52.694z"/>
		</g>
	</g>
</g>
<g id="Layer_1">
</g>
</svg>
