<?xml version="1.0" encoding="iso-8859-1"?>
<!-- Generator: Adobe Illustrator 16.0.0, SVG Export Plug-In . SVG Version: 6.00 Build 0)  -->
<!DOCTYPE svg PUBLIC "-//W3C//DTD SVG 1.1//EN" "http://www.w3.org/Graphics/SVG/1.1/DTD/svg11.dtd">
<svg version="1.1" xmlns="http://www.w3.org/2000/svg" xmlns:xlink="http://www.w3.org/1999/xlink" x="0px" y="0px"
	 width="57.691px" height="40.826px" viewBox="0 0 57.691 40.826" style="enable-background:new 0 0 57.691 40.826;"
	 xml:space="preserve">
<g id="_x33_2_x5F_ticket">
	<g>
		<g>
			<path style="fill:#44444D;" d="M55.846,40.826h-54C0.826,40.826,0,40,0,38.98V27.396c0-1.02,0.826-1.846,1.846-1.846
				c2.831,0,5.135-2.305,5.135-5.137c0-2.833-2.304-5.139-5.135-5.139C0.826,15.275,0,14.449,0,13.43V1.846C0,0.826,0.826,0,1.846,0
				h54c1.02,0,1.846,0.826,1.846,1.846s-0.826,1.846-1.846,1.846H3.691v8.087c3.984,0.851,6.98,4.4,6.98,8.636
				s-2.996,7.783-6.98,8.635v8.086H54v-8.087c-3.983-0.851-6.979-4.398-6.979-8.634S50.017,12.63,54,11.778V7.659
				c0-1.02,0.826-1.846,1.846-1.846s1.846,0.826,1.846,1.846v5.771c0,1.02-0.826,1.846-1.846,1.846
				c-2.831,0-5.134,2.306-5.134,5.139c0,2.832,2.303,5.137,5.134,5.137c1.02,0,1.846,0.826,1.846,1.846V38.98
				C57.691,40,56.865,40.826,55.846,40.826z"/>
		</g>
		<g>
			<g>
				<path style="fill:#44444D;" d="M18.801,7.612c-0.649,0-1.3-0.27-1.76-0.729c-0.47-0.471-0.74-1.11-0.74-1.771
					s0.271-1.3,0.74-1.77c0.92-0.931,2.61-0.92,3.53,0c0.47,0.47,0.729,1.109,0.729,1.77s-0.26,1.3-0.729,1.771
					C20.111,7.343,19.461,7.612,18.801,7.612z"/>
			</g>
			<g>
				<path style="fill:#44444D;" d="M16.301,28.063c0-1.38,1.12-2.5,2.5-2.5l0,0c1.38,0,2.5,1.12,2.5,2.5l0,0
					c0,1.38-1.12,2.5-2.5,2.5l0,0C17.421,30.563,16.301,29.442,16.301,28.063z M16.301,20.412c0-1.38,1.12-2.5,2.5-2.5l0,0
					c1.38,0,2.5,1.12,2.5,2.5l0,0c0,1.38-1.12,2.5-2.5,2.5l0,0C17.421,22.912,16.301,21.792,16.301,20.412z M16.301,12.763
					c0-1.38,1.12-2.5,2.5-2.5l0,0c1.38,0,2.5,1.12,2.5,2.5l0,0c0,1.38-1.12,2.5-2.5,2.5l0,0
					C17.421,15.263,16.301,14.143,16.301,12.763z"/>
			</g>
			<g>
				<path style="fill:#44444D;" d="M18.801,38.213c-0.649,0-1.3-0.271-1.76-0.73c-0.47-0.47-0.74-1.11-0.74-1.77
					c0-0.66,0.271-1.301,0.74-1.771c0.92-0.93,2.61-0.93,3.53,0c0.47,0.47,0.729,1.11,0.729,1.771c0,0.659-0.26,1.3-0.729,1.77
					C20.111,37.942,19.461,38.213,18.801,38.213z"/>
			</g>
		</g>
	</g>
</g>
<g id="Layer_1">
</g>
</svg>
