<?xml version="1.0" encoding="iso-8859-1"?>
<!-- Generator: Adobe Illustrator 16.0.0, SVG Export Plug-In . SVG Version: 6.00 Build 0)  -->
<!DOCTYPE svg PUBLIC "-//W3C//DTD SVG 1.1//EN" "http://www.w3.org/Graphics/SVG/1.1/DTD/svg11.dtd">
<svg version="1.1" xmlns="http://www.w3.org/2000/svg" xmlns:xlink="http://www.w3.org/1999/xlink" x="0px" y="0px"
	 width="45.501px" height="57.691px" viewBox="0 0 45.501 57.691" style="enable-background:new 0 0 45.501 57.691;"
	 xml:space="preserve">
<g id="_x33_3_x5F_press">
	<g>
		<g>
			<g>
				<path style="fill:#44444D;" d="M25.354,32.239c-0.619,0-1.224-0.312-1.573-0.877c-0.535-0.868-0.266-2.006,0.602-2.541
					c4.043-2.494,6.455-6.814,6.455-11.558c0-7.483-6.089-13.572-13.574-13.572c-7.483,0-13.572,6.089-13.572,13.572
					c0,4.606,2.308,8.86,6.172,11.379c0.854,0.557,1.096,1.7,0.539,2.555c-0.557,0.854-1.699,1.095-2.555,0.539
					C2.934,28.533,0,23.123,0,17.264C0,7.744,7.745,0,17.264,0c9.521,0,17.267,7.744,17.267,17.264c0,6.033-3.069,11.528-8.21,14.7
					C26.02,32.15,25.685,32.239,25.354,32.239z"/>
			</g>
			<g>
				<path style="fill:#44444D;" d="M21.172,19.117l1.07-3.293l-4.978-3.615l-4.975,3.615l1.049,3.23
					C13.338,19.055,17.37,16.422,21.172,19.117z"/>
				<path style="fill:#44444D;" d="M21.966,6.975l-0.571-0.953c-1.291-0.473-2.678-0.744-4.131-0.744
					c-1.452,0-2.838,0.271-4.128,0.744l-0.574,0.953l4.702,1.844L21.966,6.975z"/>
				<path style="fill:#44444D;" d="M27.399,10.826l-1.059-0.35l-0.771,4.992l2.83,4.182l0.806-0.768
					c0.064-0.51,0.11-1.023,0.11-1.551C29.316,14.934,28.608,12.703,27.399,10.826z"/>
				<path style="fill:#44444D;" d="M7.678,23.453L7.64,24.563c0.8,1.063,1.588,1.861,2.689,2.609c0-1.523,0.292-3.105,0.292-3.105
					L7.678,23.453z"/>
				<path style="fill:#44444D;" d="M26.85,23.453l0.039,1.109c-0.801,1.063-1.588,1.861-2.689,2.609
					c0-1.523-0.292-3.105-0.292-3.105L26.85,23.453z"/>
				<path style="fill:#44444D;" d="M8.19,10.473l-1.059,0.354c-1.21,1.877-1.919,4.107-1.919,6.506c0,0.527,0.048,1.039,0.112,1.547
					l0.805,0.77l2.831-4.182L8.19,10.473z"/>
			</g>
		</g>
		<g>
			<path style="fill:#44444D;" d="M43.654,57.691H13.407c-1.02,0-1.846-0.826-1.846-1.846S12.388,54,13.407,54h30.247
				c1.02,0,1.847,0.826,1.847,1.846S44.674,57.691,43.654,57.691z"/>
		</g>
		<g>
			<path style="fill:#44444D;" d="M43.654,53.01c-1.02,0-1.846-0.826-1.846-1.846V39.367c0-1.813-1.002-2.457-1.86-2.457
				c-0.465,0-0.896,0.182-1.216,0.513c-0.416,0.43-0.637,1.103-0.637,1.944c0,1.02-0.826,1.846-1.846,1.846
				s-1.846-0.826-1.846-1.846c-0.001-2.784-2.061-3.259-3.036-2.188c-0.441,0.485-0.675,1.241-0.675,2.188
				c0,1.02-0.826,1.846-1.846,1.846s-1.846-0.826-1.846-1.846c0-2.714-2.078-3.164-3.047-2.116c-0.434,0.469-0.663,1.2-0.663,2.116
				c0,1.02-0.827,1.846-1.846,1.846s-1.846-0.826-1.846-1.846V26.307c0-2.348-1.23-3.417-2.373-3.417
				c-1.142,0-2.294,1.057-2.294,3.417v24.857c0,1.02-0.827,1.846-1.846,1.846s-1.846-0.826-1.846-1.846V26.307
				c0-4.667,3.012-7.109,5.987-7.109c3.014,0,6.065,2.442,6.065,7.109v7.06c1.812-0.679,4.007-0.308,5.527,1.139
				c1.986-1.979,5.451-2.09,7.542,0.079c0.985-0.884,2.245-1.366,3.588-1.366c2.759,0,5.553,2.112,5.553,6.149v11.797
				C45.501,52.184,44.674,53.01,43.654,53.01z"/>
		</g>
	</g>
</g>
<g id="Layer_1">
</g>
</svg>
