<?xml version="1.0" encoding="iso-8859-1"?>
<!-- Generator: Adobe Illustrator 16.0.0, SVG Export Plug-In . SVG Version: 6.00 Build 0)  -->
<!DOCTYPE svg PUBLIC "-//W3C//DTD SVG 1.1//EN" "http://www.w3.org/Graphics/SVG/1.1/DTD/svg11.dtd">
<svg version="1.1" xmlns="http://www.w3.org/2000/svg" xmlns:xlink="http://www.w3.org/1999/xlink" x="0px" y="0px" width="43.8px"
	 height="57.691px" viewBox="0 0 43.8 57.691" style="enable-background:new 0 0 43.8 57.691;" xml:space="preserve">
<g id="_x33_5_x5F_phone">
	<g>
		<g>
			<g>
				<path style="fill:#44444D;" d="M35.953,57.691H7.846C3.52,57.691,0,54.172,0,49.846v-42C0,3.52,3.52,0,7.846,0h28.107
					C40.279,0,43.8,3.52,43.8,7.846v42C43.8,54.172,40.279,57.691,35.953,57.691z M7.846,3.691c-2.291,0-4.154,1.864-4.154,4.154v42
					c0,2.29,1.863,4.154,4.154,4.154h28.107c2.291,0,4.154-1.864,4.154-4.154v-42c0-2.29-1.863-4.154-4.154-4.154H7.846z"/>
			</g>
		</g>
		<g>
			<g>
				<g>
					<path style="fill:#44444D;" d="M35.694,51.447H8.106c-1.02,0-1.846-0.826-1.846-1.846s0.827-1.846,1.846-1.846h27.588
						c1.02,0,1.847,0.826,1.847,1.846S36.714,51.447,35.694,51.447z"/>
				</g>
			</g>
			<g>
				<g>
					<path style="fill:#44444D;" d="M35.694,9.936H8.106c-1.02,0-1.846-0.826-1.846-1.846s0.827-1.846,1.846-1.846h27.588
						c1.02,0,1.847,0.826,1.847,1.846S36.714,9.936,35.694,9.936z"/>
				</g>
			</g>
		</g>
		<g>
			<g>
				<path style="fill:#44444D;" d="M21.9,45.09c-8.957,0-16.243-7.287-16.243-16.244c0-8.956,7.287-16.242,16.243-16.242
					s16.243,7.286,16.243,16.242C38.143,37.803,30.856,45.09,21.9,45.09z M21.9,16.295c-6.92,0-12.551,5.631-12.551,12.551
					c0,6.921,5.63,12.553,12.551,12.553s12.551-5.632,12.551-12.553C34.451,21.926,28.82,16.295,21.9,16.295z"/>
			</g>
			<g>
				<polygon style="fill:#44444D;" points="24.598,32.711 26.265,27.58 21.9,24.41 17.535,27.58 19.203,32.711 				"/>
				<path style="fill:#44444D;" d="M26.023,19.816l-0.502-0.836c-1.131-0.414-2.348-0.65-3.622-0.65s-2.49,0.236-3.621,0.65
					l-0.503,0.836l4.124,1.617L26.023,19.816z"/>
				<path style="fill:#44444D;" d="M30.789,23.195l-0.93-0.309l-0.676,4.379l2.482,3.668l0.706-0.674
					c0.058-0.447,0.098-0.898,0.098-1.359C32.47,26.797,31.848,24.842,30.789,23.195z"/>
				<path style="fill:#44444D;" d="M25.968,35.16l-2.577,3.604l0.881,0.43c2.467-0.566,4.597-1.994,6.07-3.951l-0.033-0.973
					L25.968,35.16z"/>
				<path style="fill:#44444D;" d="M13.492,34.27l-0.034,0.973c1.474,1.957,3.604,3.385,6.07,3.951l0.881-0.43l-2.577-3.604
					L13.492,34.27z"/>
				<path style="fill:#44444D;" d="M13.941,22.887l-0.929,0.309c-1.061,1.646-1.682,3.602-1.682,5.705
					c0,0.461,0.041,0.912,0.097,1.357l0.707,0.676l2.482-3.67L13.941,22.887z"/>
			</g>
		</g>
	</g>
</g>
<g id="Layer_1">
</g>
</svg>
