<?xml version="1.0" encoding="iso-8859-1"?>
<!-- Generator: Adobe Illustrator 16.0.0, SVG Export Plug-In . SVG Version: 6.00 Build 0)  -->
<!DOCTYPE svg PUBLIC "-//W3C//DTD SVG 1.1//EN" "http://www.w3.org/Graphics/SVG/1.1/DTD/svg11.dtd">
<svg version="1.1" xmlns="http://www.w3.org/2000/svg" xmlns:xlink="http://www.w3.org/1999/xlink" x="0px" y="0px"
	 width="46.563px" height="57.691px" viewBox="0 0 46.563 57.691" style="enable-background:new 0 0 46.563 57.691;"
	 xml:space="preserve">
<g id="_x33_6_x5F_pad">
	<g>
		<g>
			<g>
				<g>
					<path style="fill:#44444D;" d="M39.297,57.691H7.267C3.26,57.691,0,54.433,0,50.426V7.266C0,3.259,3.26,0,7.267,0h32.03
						c4.007,0,7.267,3.259,7.267,7.266v43.16C46.563,54.433,43.304,57.691,39.297,57.691z M7.267,3.691
						c-1.971,0-3.574,1.604-3.574,3.574v43.16C3.692,52.396,5.296,54,7.267,54h32.03c1.971,0,3.574-1.604,3.574-3.574V7.266
						c0-1.971-1.604-3.574-3.574-3.574H7.267z"/>
				</g>
			</g>
			<g>
				<g>
					<g>
						<path style="fill:#44444D;" d="M39.066,46.766H7.5c-1.02,0-1.846-0.826-1.846-1.846S6.48,43.074,7.5,43.074h31.567
							c1.02,0,1.847,0.826,1.847,1.846S40.086,46.766,39.066,46.766z"/>
					</g>
				</g>
				<g>
					<g>
						<path style="fill:#44444D;" d="M39.066,13.17H7.5c-1.02,0-1.846-0.826-1.846-1.846S6.48,9.479,7.5,9.479h31.567
							c1.02,0,1.847,0.826,1.847,1.846S40.086,13.17,39.066,13.17z"/>
					</g>
				</g>
			</g>
		</g>
		<g>
			<path style="fill:#44444D;" d="M25.424,52.398h-4.285c-1.02,0-1.846-0.826-1.846-1.846s0.827-1.846,1.846-1.846h4.285
				c1.02,0,1.847,0.826,1.847,1.846S26.443,52.398,25.424,52.398z"/>
		</g>
		<g>
			<g>
				<path style="fill:#44444D;" d="M23.282,41.648c-7.409,0-13.437-6.027-13.437-13.436c0-7.41,6.028-13.438,13.437-13.438
					c7.41,0,13.437,6.027,13.437,13.438C36.719,35.621,30.691,41.648,23.282,41.648z M23.282,18.467
					c-5.373,0-9.745,4.372-9.745,9.746c0,5.373,4.372,9.744,9.745,9.744c5.373,0,9.745-4.371,9.745-9.744
					C33.026,22.839,28.654,18.467,23.282,18.467z"/>
			</g>
			<g>
				<polygon style="fill:#44444D;" points="25.453,31.324 26.796,27.193 23.282,24.641 19.768,27.193 21.11,31.324 				"/>
				<path style="fill:#44444D;" d="M26.602,20.941l-0.404-0.672c-0.91-0.334-1.89-0.523-2.916-0.523
					c-1.025,0-2.005,0.189-2.915,0.523l-0.405,0.672l3.32,1.303L26.602,20.941z"/>
				<path style="fill:#44444D;" d="M30.438,23.662l-0.749-0.248l-0.543,3.525l1.998,2.953l0.568-0.543
					c0.046-0.359,0.078-0.723,0.078-1.094C31.791,26.563,31.29,24.988,30.438,23.662z"/>
				<path style="fill:#44444D;" d="M26.557,33.295l-2.074,2.9l0.709,0.348c1.985-0.457,3.7-1.605,4.887-3.182l-0.027-0.783
					L26.557,33.295z"/>
				<path style="fill:#44444D;" d="M16.512,32.578l-0.027,0.783c1.186,1.576,2.901,2.725,4.887,3.182l0.709-0.348l-2.075-2.9
					L16.512,32.578z"/>
				<path style="fill:#44444D;" d="M16.874,23.414l-0.748,0.248c-0.854,1.326-1.354,2.9-1.354,4.594
					c0,0.371,0.033,0.734,0.079,1.094l0.569,0.543l1.998-2.953L16.874,23.414z"/>
			</g>
		</g>
	</g>
</g>
<g id="Layer_1">
</g>
</svg>
