<?xml version="1.0" encoding="iso-8859-1"?>
<!-- Generator: Adobe Illustrator 16.0.0, SVG Export Plug-In . SVG Version: 6.00 Build 0)  -->
<!DOCTYPE svg PUBLIC "-//W3C//DTD SVG 1.1//EN" "http://www.w3.org/Graphics/SVG/1.1/DTD/svg11.dtd">
<svg version="1.1" xmlns="http://www.w3.org/2000/svg" xmlns:xlink="http://www.w3.org/1999/xlink" x="0px" y="0px"
	 width="57.691px" height="57.69px" viewBox="0 0 57.691 57.69" style="enable-background:new 0 0 57.691 57.69;"
	 xml:space="preserve">
<g id="_x33_7_x5F_search">
	<g>
		<g>
			<path style="fill:#44444D;" d="M7.146,57.69c-1.793,0.001-3.586-0.682-4.951-2.047l-0.15-0.15C0.727,54.176,0,52.417,0,50.542
				c0-1.874,0.727-3.633,2.046-4.951l9.6-9.602c0.721-0.721,1.891-0.721,2.611,0s0.721,1.89,0,2.611l-9.601,9.602
				c-0.622,0.621-0.964,1.452-0.964,2.34c0,0.889,0.342,1.719,0.963,2.34l0.151,0.15c1.241,1.24,3.437,1.242,4.681,0l9.597-9.602
				c0.721-0.723,1.89-0.722,2.61-0.001c0.722,0.721,0.722,1.89,0.001,2.61l-9.597,9.603C10.733,57.008,8.94,57.69,7.146,57.69z"/>
		</g>
		<g>
			<g>
				<path style="fill:#44444D;" d="M35.22,44.936c-12.39,0-22.469-10.079-22.469-22.468S22.83,0,35.22,0
					c12.392,0,22.472,10.079,22.472,22.468S47.611,44.936,35.22,44.936z M35.22,3.691c-10.354,0-18.777,8.423-18.777,18.776
					s8.424,18.776,18.777,18.776c10.355,0,18.78-8.423,18.78-18.776S45.575,3.691,35.22,3.691z"/>
			</g>
			<g>
				<polygon style="fill:#44444D;" points="39.335,28.371 41.878,20.543 35.22,15.708 28.565,20.543 31.108,28.371 				"/>
				<path style="fill:#44444D;" d="M41.509,8.706L40.745,7.43c-1.727-0.633-3.582-0.994-5.525-0.994
					c-1.941,0-3.796,0.361-5.521,0.994l-0.768,1.276l6.289,2.466L41.509,8.706z"/>
				<path style="fill:#44444D;" d="M48.776,13.857l-1.416-0.469l-1.031,6.678l3.786,5.594l1.078-1.027
					c0.086-0.682,0.147-1.369,0.147-2.072C51.341,19.351,50.394,16.369,48.776,13.857z"/>
				<path style="fill:#44444D;" d="M41.425,32.104L37.497,37.6l1.342,0.656c3.761-0.863,7.01-3.042,9.258-6.025l-0.053-1.482
					L41.425,32.104z"/>
				<path style="fill:#44444D;" d="M22.397,30.748l-0.051,1.482c2.246,2.983,5.497,5.162,9.258,6.025l1.342-0.656l-3.929-5.496
					L22.397,30.748z"/>
				<path style="fill:#44444D;" d="M23.083,13.385l-1.417,0.473c-1.618,2.51-2.567,5.493-2.567,8.703c0,0.703,0.064,1.39,0.15,2.069
					l1.076,1.028l3.786-5.596L23.083,13.385z"/>
			</g>
		</g>
	</g>
</g>
<g id="Layer_1">
</g>
</svg>
