<?xml version="1.0" encoding="iso-8859-1"?>
<!-- Generator: Adobe Illustrator 16.0.0, SVG Export Plug-In . SVG Version: 6.00 Build 0)  -->
<!DOCTYPE svg PUBLIC "-//W3C//DTD SVG 1.1//EN" "http://www.w3.org/Graphics/SVG/1.1/DTD/svg11.dtd">
<svg version="1.1" xmlns="http://www.w3.org/2000/svg" xmlns:xlink="http://www.w3.org/1999/xlink" x="0px" y="0px"
	 width="57.692px" height="54.945px" viewBox="0 0 57.692 54.945" style="enable-background:new 0 0 57.692 54.945;"
	 xml:space="preserve">
<g id="_x33_8_x5F_cart">
	<g>
		<g>
			<path style="fill:#44444D;" d="M50.17,41.41H17.465c-0.8,0-1.508-0.515-1.756-1.274L6.75,12.609l-5.557-2.1
				C0.24,10.15-0.241,9.085,0.12,8.131c0.359-0.954,1.427-1.438,2.379-1.074l6.386,2.412c0.524,0.197,0.93,0.623,1.104,1.155
				l8.818,27.095h30.125l4.166-10.18h-0.832c-1.02,0-1.846-0.826-1.846-1.846s0.826-1.846,1.846-1.846h3.582
				c0.615,0,1.189,0.306,1.533,0.816c0.343,0.511,0.408,1.159,0.176,1.729l-5.677,13.871C51.595,40.957,50.92,41.41,50.17,41.41z"/>
		</g>
		<g>
			<path style="fill:#44444D;" d="M20.085,54.945c-3.026,0-5.488-2.461-5.488-5.486s2.462-5.486,5.488-5.486
				c3.024,0,5.484,2.461,5.484,5.486S23.11,54.945,20.085,54.945z M20.085,47.664c-0.99,0-1.797,0.806-1.797,1.795
				s0.807,1.795,1.797,1.795c0.988,0,1.793-0.806,1.793-1.795S21.074,47.664,20.085,47.664z"/>
		</g>
		<g>
			<path style="fill:#44444D;" d="M45.859,54.945c-3.025,0-5.486-2.461-5.486-5.486s2.461-5.486,5.486-5.486
				c3.026,0,5.488,2.461,5.488,5.486S48.886,54.945,45.859,54.945z M45.859,47.664c-0.989,0-1.795,0.806-1.795,1.795
				s0.806,1.795,1.795,1.795c0.99,0,1.797-0.806,1.797-1.795S46.85,47.664,45.859,47.664z"/>
		</g>
		<g>
			<g>
				<path style="fill:#44444D;" d="M32.881,35.561c-9.805,0-17.782-7.976-17.782-17.779C15.099,7.977,23.076,0,32.881,0
					c9.805,0,17.781,7.977,17.781,17.781C50.662,27.585,42.686,35.561,32.881,35.561z M32.881,3.691
					c-7.769,0-14.09,6.321-14.09,14.09c0,7.768,6.321,14.088,14.09,14.088c7.769,0,14.09-6.32,14.09-14.088
					C46.971,10.013,40.649,3.691,32.881,3.691z"/>
			</g>
			<g>
				<polygon style="fill:#44444D;" points="36.061,22.342 38.024,16.295 32.881,12.559 27.738,16.295 29.703,22.342 				"/>
				<path style="fill:#44444D;" d="M37.739,7.148L37.15,6.162c-1.335-0.49-2.77-0.768-4.27-0.768s-2.934,0.277-4.268,0.768
					L28.02,7.148l4.861,1.904L37.739,7.148z"/>
				<path style="fill:#44444D;" d="M43.355,11.129l-1.096-0.363l-0.795,5.16l2.925,4.322l0.833-0.795
					c0.066-0.527,0.113-1.059,0.113-1.602C45.336,15.371,44.604,13.068,43.355,11.129z"/>
				<path style="fill:#44444D;" d="M37.675,25.227l-3.035,4.246l1.038,0.508c2.904-0.668,5.416-2.352,7.151-4.656l-0.04-1.145
					L37.675,25.227z"/>
				<path style="fill:#44444D;" d="M22.972,24.18l-0.039,1.145c1.736,2.305,4.248,3.988,7.153,4.656l1.037-0.508l-3.036-4.246
					L22.972,24.18z"/>
				<path style="fill:#44444D;" d="M23.502,10.762l-1.095,0.367c-1.25,1.938-1.984,4.242-1.984,6.723c0,0.543,0.05,1.074,0.117,1.6
					l0.83,0.795l2.926-4.324L23.502,10.762z"/>
			</g>
		</g>
	</g>
</g>
<g id="Layer_1">
</g>
</svg>
