<?xml version="1.0" encoding="iso-8859-1"?>
<!-- Generator: Adobe Illustrator 16.0.0, SVG Export Plug-In . SVG Version: 6.00 Build 0)  -->
<!DOCTYPE svg PUBLIC "-//W3C//DTD SVG 1.1//EN" "http://www.w3.org/Graphics/SVG/1.1/DTD/svg11.dtd">
<svg version="1.1" xmlns="http://www.w3.org/2000/svg" xmlns:xlink="http://www.w3.org/1999/xlink" x="0px" y="0px" width="41.23px"
	 height="57.691px" viewBox="0 0 41.23 57.691" style="enable-background:new 0 0 41.23 57.691;" xml:space="preserve">
<g id="_x33_9_x5F_bag">
	<g>
		<g>
			<path style="fill:#44444D;" d="M39.385,57.691H1.846C0.826,57.691,0,56.865,0,55.846V15.328c0-1.02,0.826-1.846,1.846-1.846
				h37.539c1.02,0,1.846,0.826,1.846,1.846s-0.826,1.846-1.846,1.846H3.691V54h33.848V20.9c0-1.02,0.826-1.846,1.846-1.846
				s1.846,0.826,1.846,1.846v34.945C41.23,56.865,40.404,57.691,39.385,57.691z"/>
		</g>
		<g>
			<path style="fill:#44444D;" d="M28.219,21.979c-1.02,0-1.846-0.826-1.846-1.846V9.113c0-2.989-2.432-5.422-5.421-5.422h-0.547
				c-2.989,0-5.421,2.433-5.421,5.422v11.02c0,1.02-0.826,1.846-1.846,1.846s-1.846-0.826-1.846-1.846V9.113
				C11.293,4.088,15.381,0,20.405,0h0.547c5.024,0,9.112,4.088,9.112,9.113v11.02C30.064,21.152,29.238,21.979,28.219,21.979z"/>
		</g>
		<g>
			<g>
				<path style="fill:#44444D;" d="M20.615,52.092c-8.403,0-15.239-6.837-15.239-15.24s6.836-15.24,15.239-15.24
					s15.239,6.837,15.239,15.24S29.019,52.092,20.615,52.092z M20.615,25.303c-6.367,0-11.548,5.181-11.548,11.549
					S14.248,48.4,20.615,48.4s11.548-5.181,11.548-11.549S26.982,25.303,20.615,25.303z"/>
			</g>
			<g>
				<polygon style="fill:#44444D;" points="23.124,40.447 24.677,35.674 20.615,32.725 16.554,35.674 18.106,40.447 				"/>
				<path style="fill:#44444D;" d="M24.452,28.451l-0.469-0.777c-1.051-0.385-2.184-0.605-3.368-0.605s-2.317,0.221-3.368,0.605
					l-0.469,0.777l3.837,1.504L24.452,28.451z"/>
				<path style="fill:#44444D;" d="M28.885,31.594l-0.865-0.287l-0.628,4.074l2.309,3.414l0.658-0.627
					c0.053-0.416,0.091-0.836,0.091-1.266C30.449,34.945,29.87,33.127,28.885,31.594z"/>
				<path style="fill:#44444D;" d="M24.399,42.725l-2.396,3.354l0.818,0.4c2.295-0.527,4.277-1.855,5.646-3.678l-0.03-0.902
					L24.399,42.725z"/>
				<path style="fill:#44444D;" d="M12.793,41.898l-0.031,0.902c1.37,1.822,3.353,3.15,5.646,3.678l0.819-0.4l-2.397-3.354
					L12.793,41.898z"/>
				<path style="fill:#44444D;" d="M13.21,31.307l-0.863,0.287c-0.986,1.531-1.565,3.352-1.565,5.309c0,0.43,0.038,0.85,0.091,1.264
					l0.658,0.627l2.309-3.412L13.21,31.307z"/>
			</g>
		</g>
	</g>
</g>
<g id="Layer_1">
</g>
</svg>
