<?xml version="1.0" encoding="iso-8859-1"?>
<!-- Generator: Adobe Illustrator 16.0.0, SVG Export Plug-In . SVG Version: 6.00 Build 0)  -->
<!DOCTYPE svg PUBLIC "-//W3C//DTD SVG 1.1//EN" "http://www.w3.org/Graphics/SVG/1.1/DTD/svg11.dtd">
<svg version="1.1" xmlns="http://www.w3.org/2000/svg" xmlns:xlink="http://www.w3.org/1999/xlink" x="0px" y="0px"
	 width="57.691px" height="46.808px" viewBox="0 0 57.691 46.808" style="enable-background:new 0 0 57.691 46.808;"
	 xml:space="preserve">
<g id="_x34_0_x5F_tv">
	<g>
		<g>
			<path style="fill:#44444D;" d="M55.846,40.796h-54C0.826,40.796,0,39.97,0,38.95V1.846C0,0.826,0.826,0,1.846,0h54
				c1.02,0,1.846,0.826,1.846,1.846s-0.826,1.846-1.846,1.846H3.691v33.413H54V7.335c0-1.02,0.826-1.846,1.846-1.846
				s1.846,0.826,1.846,1.846V38.95C57.691,39.97,56.865,40.796,55.846,40.796z"/>
		</g>
		<g>
			<path style="fill:#44444D;" d="M39.697,46.808H17.993c-1.02,0-1.846-0.826-1.846-1.846s0.826-1.846,1.846-1.846h21.704
				c1.02,0,1.846,0.826,1.846,1.846S40.717,46.808,39.697,46.808z"/>
		</g>
		<g>
			<g>
				<path style="fill:#44444D;" d="M28.846,34.116c-7.564,0-13.719-6.154-13.719-13.719S21.281,6.68,28.846,6.68
					s13.718,6.153,13.718,13.718S36.41,34.116,28.846,34.116z M28.846,10.371c-5.529,0-10.027,4.498-10.027,10.026
					c0,5.529,4.498,10.027,10.027,10.027c5.528,0,10.026-4.498,10.026-10.027C38.872,14.869,34.374,10.371,28.846,10.371z"/>
			</g>
			<g>
				<polygon style="fill:#44444D;" points="31.07,23.586 32.445,19.354 28.846,16.738 25.245,19.354 26.621,23.586 				"/>
				<path style="fill:#44444D;" d="M32.246,12.952l-0.414-0.689c-0.934-0.343-1.936-0.537-2.986-0.537s-2.054,0.194-2.986,0.537
					l-0.414,0.689l3.4,1.334L32.246,12.952z"/>
				<path style="fill:#44444D;" d="M36.176,15.737l-0.767-0.254l-0.557,3.611l2.047,3.025l0.582-0.556
					c0.048-0.369,0.08-0.741,0.08-1.121C37.562,18.708,37.049,17.096,36.176,15.737z"/>
				<path style="fill:#44444D;" d="M32.2,25.605l-2.125,2.971l0.727,0.354c2.034-0.467,3.79-1.645,5.006-3.259l-0.028-0.8
					L32.2,25.605z"/>
				<path style="fill:#44444D;" d="M21.912,24.872l-0.028,0.8c1.215,1.614,2.972,2.792,5.005,3.259l0.728-0.354l-2.125-2.971
					L21.912,24.872z"/>
				<path style="fill:#44444D;" d="M22.282,15.483l-0.767,0.254c-0.874,1.358-1.386,2.971-1.386,4.706
					c0,0.38,0.032,0.752,0.079,1.12l0.583,0.557l2.047-3.025L22.282,15.483z"/>
			</g>
		</g>
	</g>
</g>
<g id="Layer_1">
</g>
</svg>
