<?xml version="1.0" encoding="iso-8859-1"?>
<!-- Generator: Adobe Illustrator 16.0.0, SVG Export Plug-In . SVG Version: 6.00 Build 0)  -->
<!DOCTYPE svg PUBLIC "-//W3C//DTD SVG 1.1//EN" "http://www.w3.org/Graphics/SVG/1.1/DTD/svg11.dtd">
<svg version="1.1" xmlns="http://www.w3.org/2000/svg" xmlns:xlink="http://www.w3.org/1999/xlink" x="0px" y="0px"
	 width="57.692px" height="56.1px" viewBox="0 0 57.692 56.1" style="enable-background:new 0 0 57.692 56.1;" xml:space="preserve"
	>
<g id="_x34_1_x5F_medkit">
	<g>
		<g>
			<path style="fill:#44444D;" d="M48.846,56.1h-40C3.968,56.1,0,52.132,0,47.254v-28.9c0-4.878,3.387-8.846,7.55-8.846h5.704
				c1.02,0,1.846,0.826,1.846,1.846s-0.827,1.846-1.846,1.846H7.55c-2.091,0-3.858,2.36-3.858,5.154v28.9
				c0,2.842,2.312,5.154,5.154,5.154h40c2.842,0,5.154-2.313,5.154-5.154v-28.9c0-2.794-1.768-5.154-3.858-5.154h-5.704
				c-1.02,0-1.847-0.826-1.847-1.846s0.827-1.846,1.847-1.846h5.704c4.163,0,7.551,3.968,7.551,8.846v28.9
				C57.692,52.132,53.725,56.1,48.846,56.1z"/>
		</g>
		<g>
			<path style="fill:#44444D;" d="M40.025,15.918H17.667c-0.342,0-0.677-0.095-0.968-0.274l-4.413-2.719
				c-0.868-0.534-1.138-1.672-0.604-2.54c0.534-0.866,1.672-1.139,2.54-0.603l3.968,2.444h21.312l3.967-2.444
				c0.867-0.536,2.004-0.264,2.54,0.603c0.534,0.868,0.265,2.006-0.604,2.54l-4.412,2.719
				C40.702,15.823,40.367,15.918,40.025,15.918z"/>
		</g>
		<g>
			<path style="fill:#44444D;" d="M44.177,8.292c-0.591,0-1.172-0.284-1.529-0.811l-2.571-3.79H17.617l-2.572,3.79
				c-0.573,0.845-1.721,1.064-2.564,0.491c-0.844-0.572-1.063-1.721-0.491-2.563l3.121-4.6C15.454,0.303,16.026,0,16.638,0h24.417
				c0.611,0,1.184,0.303,1.527,0.81l3.121,4.6c0.572,0.843,0.353,1.991-0.491,2.563C44.895,8.188,44.533,8.292,44.177,8.292z"/>
		</g>
		<g>
			<path style="fill:#44444D;" d="M33.893,49.355H23.798c-1.02,0-1.846-0.826-1.846-1.846v-6.252H15.7
				c-1.02,0-1.846-0.826-1.846-1.846V29.316c0-1.02,0.827-1.846,1.846-1.846h6.252v-6.252c0-1.02,0.827-1.846,1.846-1.846h10.094
				c1.02,0,1.846,0.826,1.846,1.846s-0.826,1.846-1.846,1.846h-8.248v6.252c0,1.02-0.827,1.846-1.846,1.846h-6.252v6.404h6.252
				c1.02,0,1.846,0.826,1.846,1.846v6.252h6.401v-6.252c0-1.02,0.827-1.846,1.847-1.846h6.254v-6.404h-6.254
				c-1.02,0-1.847-0.826-1.847-1.846v-3.42c0-1.02,0.827-1.846,1.847-1.846s1.846,0.826,1.846,1.846v1.574h6.254
				c1.02,0,1.847,0.826,1.847,1.846v10.096c0,1.02-0.827,1.846-1.847,1.846h-6.254v6.252C35.738,48.529,34.912,49.355,33.893,49.355
				z"/>
		</g>
	</g>
</g>
<g id="Layer_1">
</g>
</svg>
