<?xml version="1.0" encoding="iso-8859-1"?>
<!-- Generator: Adobe Illustrator 16.0.0, SVG Export Plug-In . SVG Version: 6.00 Build 0)  -->
<!DOCTYPE svg PUBLIC "-//W3C//DTD SVG 1.1//EN" "http://www.w3.org/Graphics/SVG/1.1/DTD/svg11.dtd">
<svg version="1.1" xmlns="http://www.w3.org/2000/svg" xmlns:xlink="http://www.w3.org/1999/xlink" x="0px" y="0px"
	 width="54.901px" height="57.691px" viewBox="0 0 54.901 57.691" style="enable-background:new 0 0 54.901 57.691;"
	 xml:space="preserve">
<g id="_x34_2_x5F_doping_x5F_control">
	<g>
		<g>
			<path style="fill:#44444D;" d="M53.055,57.691H1.846C0.827,57.691,0,56.865,0,55.846S0.827,54,1.846,54h51.208
				c1.02,0,1.847,0.826,1.847,1.846S54.074,57.691,53.055,57.691z"/>
		</g>
		<g>
			<path style="fill:#44444D;" d="M53.055,24.257H1.846C0.827,24.257,0,23.431,0,22.411s0.827-1.846,1.846-1.846h51.208
				c1.02,0,1.847,0.826,1.847,1.846S54.074,24.257,53.055,24.257z"/>
		</g>
		<g>
			<g>
				<g>
					<path style="fill:#44444D;" d="M16.419,18.87c-1.02,0-1.846-0.826-1.846-1.846V8.7H7.959v8.324c0,1.02-0.827,1.846-1.846,1.846
						s-1.846-0.826-1.846-1.846V6.854c0-1.02,0.827-1.846,1.846-1.846h10.306c1.02,0,1.846,0.826,1.846,1.846v10.17
						C18.265,18.044,17.438,18.87,16.419,18.87z"/>
				</g>
				<g>
					<path style="fill:#44444D;" d="M11.267,52.777c-1.753,0-3.409-0.528-4.664-1.487c-1.506-1.151-2.335-2.853-2.335-4.79V27.528
						c0-1.02,0.827-1.846,1.846-1.846s1.846,0.826,1.846,1.846V46.5c0,2.041,2.079,2.585,3.307,2.585s3.306-0.544,3.306-2.585
						V27.528c0-1.02,0.827-1.846,1.846-1.846s1.846,0.826,1.846,1.846V46.5C18.265,50.621,14.745,52.777,11.267,52.777z"/>
				</g>
				<g>
					<path style="fill:#44444D;" d="M16.478,3.691H6.055c-1.02,0-1.846-0.826-1.846-1.846S5.035,0,6.055,0h10.423
						c1.02,0,1.846,0.826,1.846,1.846S17.498,3.691,16.478,3.691z"/>
				</g>
			</g>
			<g>
				<g>
					<path style="fill:#44444D;" d="M32.604,18.87c-1.02,0-1.846-0.826-1.846-1.846V8.7h-6.613v8.324
						c0,1.02-0.827,1.846-1.846,1.846s-1.846-0.826-1.846-1.846V6.854c0-1.02,0.827-1.846,1.846-1.846h10.305
						c1.02,0,1.847,0.826,1.847,1.846v10.17C34.45,18.044,33.623,18.87,32.604,18.87z"/>
				</g>
				<g>
					<path style="fill:#44444D;" d="M27.452,52.777c-1.753,0-3.409-0.528-4.664-1.487c-1.506-1.151-2.335-2.853-2.335-4.79V27.528
						c0-1.02,0.827-1.846,1.846-1.846s1.846,0.826,1.846,1.846V46.5c0,2.041,2.079,2.585,3.307,2.585s3.306-0.544,3.306-2.585
						V27.528c0-1.02,0.826-1.846,1.846-1.846s1.847,0.826,1.847,1.846V46.5C34.45,50.621,30.93,52.777,27.452,52.777z"/>
				</g>
				<g>
					<path style="fill:#44444D;" d="M32.662,3.691H22.239c-1.02,0-1.846-0.826-1.846-1.846S21.22,0,22.239,0h10.423
						c1.02,0,1.847,0.826,1.847,1.846S33.682,3.691,32.662,3.691z"/>
				</g>
			</g>
			<g>
				<g>
					<path style="fill:#44444D;" d="M48.788,18.87c-1.02,0-1.847-0.826-1.847-1.846V8.7h-6.613v8.324
						c0,1.02-0.826,1.846-1.846,1.846s-1.846-0.826-1.846-1.846V6.854c0-1.02,0.826-1.846,1.846-1.846h10.306
						c1.02,0,1.847,0.826,1.847,1.846v10.17C50.635,18.044,49.808,18.87,48.788,18.87z"/>
				</g>
				<g>
					<path style="fill:#44444D;" d="M43.636,52.777c-1.753,0-3.409-0.528-4.664-1.487c-1.506-1.151-2.335-2.853-2.335-4.79V27.528
						c0-1.02,0.826-1.846,1.846-1.846s1.846,0.826,1.846,1.846V46.5c0,2.041,2.08,2.585,3.308,2.585s3.306-0.544,3.306-2.585V27.528
						c0-1.02,0.827-1.846,1.847-1.846s1.847,0.826,1.847,1.846V46.5C50.635,50.621,47.113,52.777,43.636,52.777z"/>
				</g>
				<g>
					<path style="fill:#44444D;" d="M48.847,3.691H38.423c-1.02,0-1.847-0.826-1.847-1.846S37.403,0,38.423,0h10.424
						c1.02,0,1.847,0.826,1.847,1.846S49.866,3.691,48.847,3.691z"/>
				</g>
			</g>
		</g>
	</g>
</g>
<g id="Layer_1">
</g>
</svg>
