<?xml version="1.0" encoding="iso-8859-1"?>
<!-- Generator: Adobe Illustrator 16.0.0, SVG Export Plug-In . SVG Version: 6.00 Build 0)  -->
<!DOCTYPE svg PUBLIC "-//W3C//DTD SVG 1.1//EN" "http://www.w3.org/Graphics/SVG/1.1/DTD/svg11.dtd">
<svg version="1.1" xmlns="http://www.w3.org/2000/svg" xmlns:xlink="http://www.w3.org/1999/xlink" x="0px" y="0px"
	 width="42.308px" height="57.691px" viewBox="0 0 42.308 57.691" style="enable-background:new 0 0 42.308 57.691;"
	 xml:space="preserve">
<g id="_x34_3_x5F_pills">
	<g>
		<g>
			<g>
				<path style="fill:#44444D;" d="M34.461,57.691H7.846C3.52,57.691,0,54.172,0,49.846v-42C0,3.52,3.52,0,7.846,0h26.615
					c4.326,0,7.847,3.52,7.847,7.846v42C42.308,54.172,38.787,57.691,34.461,57.691z M7.846,3.691c-2.291,0-4.154,1.864-4.154,4.154
					v42c0,2.29,1.863,4.154,4.154,4.154h26.615c2.291,0,4.154-1.864,4.154-4.154v-42c0-2.29-1.863-4.154-4.154-4.154H7.846z"/>
			</g>
		</g>
		<g>
			<g>
				<path style="fill:#44444D;" d="M13.534,20.511c-3.581,0-6.495-2.913-6.495-6.494c0-3.58,2.914-6.493,6.495-6.493
					s6.495,2.913,6.495,6.493C20.028,17.598,17.115,20.511,13.534,20.511z M13.534,11.215c-1.545,0-2.802,1.257-2.802,2.802
					s1.257,2.803,2.802,2.803s2.802-1.258,2.802-2.803S15.079,11.215,13.534,11.215z"/>
			</g>
			<g>
				<path style="fill:#44444D;" d="M28.773,20.511c-3.58,0-6.494-2.913-6.494-6.494c0-3.58,2.914-6.493,6.494-6.493
					c3.582,0,6.495,2.913,6.495,6.493C35.269,17.598,32.355,20.511,28.773,20.511z M28.773,11.215c-1.545,0-2.802,1.257-2.802,2.802
					s1.257,2.803,2.802,2.803c1.546,0,2.803-1.258,2.803-2.803S30.319,11.215,28.773,11.215z"/>
			</g>
			<g>
				<path style="fill:#44444D;" d="M13.534,35.34c-3.581,0-6.495-2.913-6.495-6.494s2.914-6.494,6.495-6.494
					s6.495,2.913,6.495,6.494S17.115,35.34,13.534,35.34z M13.534,26.043c-1.545,0-2.802,1.258-2.802,2.803s1.257,2.803,2.802,2.803
					s2.802-1.258,2.802-2.803S15.079,26.043,13.534,26.043z"/>
			</g>
			<g>
				<path style="fill:#44444D;" d="M28.773,35.34c-3.58,0-6.494-2.913-6.494-6.494s2.914-6.494,6.494-6.494
					c3.582,0,6.495,2.913,6.495,6.494S32.355,35.34,28.773,35.34z M28.773,26.043c-1.545,0-2.802,1.258-2.802,2.803
					s1.257,2.803,2.802,2.803c1.546,0,2.803-1.258,2.803-2.803S30.319,26.043,28.773,26.043z"/>
			</g>
			<g>
				<path style="fill:#44444D;" d="M13.534,50.17c-3.581,0-6.495-2.913-6.495-6.494s2.914-6.494,6.495-6.494
					s6.495,2.913,6.495,6.494S17.115,50.17,13.534,50.17z M13.534,40.873c-1.545,0-2.802,1.258-2.802,2.803s1.257,2.803,2.802,2.803
					s2.802-1.258,2.802-2.803S15.079,40.873,13.534,40.873z"/>
			</g>
			<g>
				<path style="fill:#44444D;" d="M28.773,50.17c-3.58,0-6.494-2.913-6.494-6.494s2.914-6.494,6.494-6.494
					c3.582,0,6.495,2.913,6.495,6.494S32.355,50.17,28.773,50.17z M28.773,40.873c-1.545,0-2.802,1.258-2.802,2.803
					s1.257,2.803,2.802,2.803c1.546,0,2.803-1.258,2.803-2.803S30.319,40.873,28.773,40.873z"/>
			</g>
		</g>
	</g>
</g>
<g id="Layer_1">
</g>
</svg>
