<?xml version="1.0" encoding="iso-8859-1"?>
<!-- Generator: Adobe Illustrator 16.0.0, SVG Export Plug-In . SVG Version: 6.00 Build 0)  -->
<!DOCTYPE svg PUBLIC "-//W3C//DTD SVG 1.1//EN" "http://www.w3.org/Graphics/SVG/1.1/DTD/svg11.dtd">
<svg version="1.1" xmlns="http://www.w3.org/2000/svg" xmlns:xlink="http://www.w3.org/1999/xlink" x="0px" y="0px"
	 width="48.788px" height="57.691px" viewBox="0 0 48.788 57.691" style="enable-background:new 0 0 48.788 57.691;"
	 xml:space="preserve">
<g id="_x34_4_x5F_physical_x5F_disabilities">
	<g>
		<g>
			<path style="fill:#44444D;" d="M41.836,48.472c-0.593,0-1.164-0.287-1.515-0.792l-7.83-11.252H20.79
				c-1.02,0-1.846-0.826-1.846-1.846V13.783c0-1.02,0.827-1.846,1.846-1.846s1.846,0.826,1.846,1.846v18.953h10.819
				c0.604,0,1.17,0.295,1.516,0.791l7.618,10.947l3.825-1.141c0.979-0.286,2.006,0.266,2.297,1.242
				c0.291,0.978-0.265,2.005-1.242,2.297l-5.105,1.521C42.189,48.446,42.012,48.472,41.836,48.472z"/>
		</g>
		<g>
			<path style="fill:#44444D;" d="M33.604,21.746h-7.797c-1.019,0-1.846-0.826-1.846-1.846s0.827-1.846,1.846-1.846h7.797
				c1.02,0,1.847,0.826,1.847,1.846S34.623,21.746,33.604,21.746z"/>
		</g>
		<g>
			<path style="fill:#44444D;" d="M20.79,15.629c-4.31,0-7.817-3.505-7.817-7.814S16.479,0,20.79,0c4.309,0,7.815,3.505,7.815,7.814
				S25.099,15.629,20.79,15.629z M20.79,3.691c-2.274,0-4.125,1.85-4.125,4.123s1.85,4.123,4.125,4.123
				c2.273,0,4.123-1.85,4.123-4.123S23.063,3.691,20.79,3.691z"/>
		</g>
		<g>
			<g>
				<path style="fill:#44444D;" d="M23.784,42.768l1.326-4.165c0,0-2.628,0-4.22,0c-2.528,0-3.838-1.935-3.838-3.877
					c0-0.397,0-0.865,0-0.865l-2.837,1.95l2.26,6.957H23.784z"/>
				<path style="fill:#44444D;" d="M16.799,23.679c-0.538,0.131-1.065,0.292-1.579,0.479l-0.682,1.134l2.261,0.81V23.679z"/>
				<path style="fill:#44444D;" d="M25.641,46.083l-3.49,4.885l1.192,0.583c3.342-0.767,6.229-2.704,8.227-5.354l-0.047-1.316
					L25.641,46.083z"/>
				<path style="fill:#44444D;" d="M8.734,44.88l-0.045,1.316c1.995,2.65,4.885,4.588,8.226,5.354l1.192-0.583l-3.491-4.885
					L8.734,44.88z"/>
				<path style="fill:#44444D;" d="M9.343,29.45l-1.259,0.42c-1.438,2.23-2.282,4.881-2.282,7.733c0,0.625,0.057,1.234,0.134,1.84
					l0.956,0.913l3.364-4.973L9.343,29.45z"/>
			</g>
			<g>
				<path style="fill:#44444D;" d="M20.127,57.691C9.029,57.691,0,48.662,0,37.563c0-9.111,6.142-17.109,14.936-19.448
					c0.989-0.261,1.997,0.325,2.259,1.31c0.262,0.985-0.324,1.996-1.31,2.259c-7.179,1.909-12.193,8.439-12.193,15.88
					C3.692,46.626,11.065,54,20.127,54c5.717,0,10.939-2.903,13.966-7.767c0.539-0.864,1.676-1.129,2.543-0.592
					c0.865,0.539,1.13,1.678,0.592,2.543C33.521,54.138,27.129,57.691,20.127,57.691z"/>
			</g>
		</g>
	</g>
</g>
<g id="Layer_1">
</g>
</svg>
