<?xml version="1.0" encoding="iso-8859-1"?>
<!-- Generator: Adobe Illustrator 16.0.0, SVG Export Plug-In . SVG Version: 6.00 Build 0)  -->
<!DOCTYPE svg PUBLIC "-//W3C//DTD SVG 1.1//EN" "http://www.w3.org/Graphics/SVG/1.1/DTD/svg11.dtd">
<svg version="1.1" xmlns="http://www.w3.org/2000/svg" xmlns:xlink="http://www.w3.org/1999/xlink" x="0px" y="0px"
	 width="45.438px" height="57.691px" viewBox="0 0 45.438 57.691" style="enable-background:new 0 0 45.438 57.691;"
	 xml:space="preserve">
<g id="_x34_5_x5F_fan">
	<g>
		<g>
			<path style="fill:#44444D;" d="M43.592,57.691H1.846C0.826,57.691,0,56.865,0,55.846S0.826,54,1.846,54h39.892
				c-0.063-6.506-0.468-10.772-1.207-12.698c-0.945-2.468-5.078-4.775-7.671-5.949c-2.386,4.04-6.089,6.402-10.167,6.402
				c0,0,0,0-0.001,0c-4.028,0-7.698-2.364-10.077-6.408c-2.967,1.332-6.789,3.665-7.663,5.953c-0.967,2.513-0.923,4.916-0.875,7.461
				c0.01,0.553,0.02,1.104,0.02,1.654c0,1.02-0.826,1.846-1.846,1.846s-1.846-0.826-1.846-1.846c0-0.527-0.011-1.056-0.021-1.586
				c-0.052-2.787-0.104-5.67,1.12-8.852c1.962-5.133,10.376-8.359,11.329-8.71c0.903-0.331,1.912,0.085,2.315,0.962
				c1.703,3.707,4.453,5.833,7.544,5.833l0,0c3.104,0,5.958-2.181,7.638-5.834c0.403-0.876,1.413-1.292,2.315-0.961
				c0.953,0.351,9.365,3.576,11.332,8.713c1.309,3.41,1.46,10.688,1.46,15.865C45.438,56.865,44.611,57.691,43.592,57.691z"/>
		</g>
		<g>
			<g>
				<path style="fill:#44444D;" d="M22.719,33.25c-9.168,0-16.627-7.456-16.627-16.622C6.092,7.459,13.551,0,22.719,0
					c9.169,0,16.629,7.459,16.629,16.628C39.348,25.794,31.888,33.25,22.719,33.25z M22.719,3.691
					c-7.133,0-12.936,5.804-12.936,12.937c0,7.13,5.803,12.931,12.936,12.931c7.134,0,12.938-5.801,12.938-12.931
					C35.656,9.495,29.853,3.691,22.719,3.691z"/>
			</g>
			<g>
				<polygon style="fill:#44444D;" points="25.436,20.52 27.115,15.347 22.719,12.156 18.322,15.347 20.002,20.52 				"/>
				<path style="fill:#44444D;" d="M26.871,7.529l-0.502-0.844c-1.141-0.417-2.365-0.655-3.65-0.655
					c-1.283,0-2.506,0.238-3.646,0.655l-0.51,0.844l4.156,1.628L26.871,7.529z"/>
				<path style="fill:#44444D;" d="M31.674,10.932L30.74,10.62l-0.684,4.412l2.5,3.697l0.713-0.679c0.057-0.45,0.1-0.906,0.1-1.37
					C33.369,14.561,32.74,12.589,31.674,10.932z"/>
				<path style="fill:#44444D;" d="M26.816,22.982l-2.596,3.632l0.889,0.435c2.484-0.571,4.631-2.01,6.117-3.979l-0.037-0.983
					L26.816,22.982z"/>
				<path style="fill:#44444D;" d="M14.25,22.087l-0.035,0.983c1.482,1.969,3.631,3.407,6.115,3.979l0.885-0.435l-2.594-3.632
					L14.25,22.087z"/>
				<path style="fill:#44444D;" d="M14.699,10.62l-0.932,0.312c-1.072,1.657-1.699,3.629-1.699,5.749c0,0.464,0.043,0.92,0.1,1.368
					l0.711,0.681l2.5-3.699L14.699,10.62z"/>
			</g>
		</g>
	</g>
</g>
<g id="Layer_1">
</g>
</svg>
