<?xml version="1.0" encoding="iso-8859-1"?>
<!-- Generator: Adobe Illustrator 16.0.0, SVG Export Plug-In . SVG Version: 6.00 Build 0)  -->
<!DOCTYPE svg PUBLIC "-//W3C//DTD SVG 1.1//EN" "http://www.w3.org/Graphics/SVG/1.1/DTD/svg11.dtd">
<svg version="1.1" xmlns="http://www.w3.org/2000/svg" xmlns:xlink="http://www.w3.org/1999/xlink" x="0px" y="0px"
	 width="42.645px" height="57.686px" viewBox="0 0 42.645 57.686" style="enable-background:new 0 0 42.645 57.686;"
	 xml:space="preserve">
<g id="_x34_7_x5F_fan_x5F_glove">
	<g>
		<g>
			<path style="fill:#44444D;" d="M24.078,34.794c-2.983,0-5.5-0.7-7.218-2.08c-1.339-1.074-2.044-2.503-1.936-3.918
				c0.248-3.254,3.091-3.821,6.69-4.539c1.417-0.282,3.022-0.603,4.941-1.112c5.371-1.427,10.956,3.717,11.576,4.308
				c0.737,0.704,0.765,1.873,0.062,2.61c-0.706,0.737-1.874,0.764-2.61,0.062c-1.276-1.209-5.207-4.175-8.078-3.411
				c-2.032,0.54-3.771,0.887-5.169,1.165c-1.527,0.305-3.428,0.684-3.704,1.042l0,0c0,0-0.018,0.044-0.026,0.156
				c-0.007,0.095,0.122,0.402,0.565,0.76c1.514,1.215,5.353,2.005,11.188,0.238c0.975-0.299,2.007,0.255,2.302,1.231
				c0.296,0.976-0.256,2.007-1.231,2.302C28.81,34.401,26.313,34.794,24.078,34.794z"/>
		</g>
		<g>
			<path style="fill:#44444D;" d="M32.754,48.388c-0.564,0-1.121-0.259-1.483-0.746c-6.198-8.353-4.646-15.313-4.578-15.604
				c0.234-0.992,1.231-1.603,2.222-1.372c0.988,0.233,1.602,1.221,1.375,2.209c-0.056,0.254-1.156,5.691,3.946,12.566
				c0.607,0.819,0.437,1.976-0.382,2.583C33.522,48.269,33.137,48.387,32.754,48.388z"/>
		</g>
		<g>
			<path style="fill:#44444D;" d="M26.127,45.119c-1.458,0-2.709-0.595-3.438-1.666c-0.165-0.243-0.661-0.974-2.551-4.65
				c-0.467-0.906-0.109-2.02,0.798-2.485c0.908-0.466,2.021-0.107,2.485,0.798c1.556,3.025,2.122,3.97,2.321,4.263
				c0.053,0.029,0.462,0.126,1.063-0.063c0.61-0.194,1.018-0.563,1.105-0.826c0.321-0.967,1.364-1.494,2.334-1.17
				c0.968,0.321,1.491,1.366,1.17,2.334c-0.67,2.016-2.746,3.166-4.506,3.412C26.644,45.102,26.382,45.119,26.127,45.119z"/>
		</g>
		<g>
			<path style="fill:#44444D;" d="M20.206,49.229c-1.599,0-3.189-0.713-4.442-2.073C13.041,44.2,7.009,32.93,6.33,31.654
				c-0.479-0.899-0.138-2.018,0.763-2.497S9.11,29.021,9.59,29.92c1.782,3.35,6.855,12.526,8.89,14.734
				c0.807,0.875,1.751,1.111,2.597,0.649c0.728-0.397,1.436-1.403,1.035-2.933c-0.258-0.986,0.333-1.995,1.319-2.253
				c0.984-0.26,1.995,0.333,2.253,1.319c0.761,2.907-0.38,5.764-2.837,7.106C22.003,49.005,21.104,49.229,20.206,49.229z"/>
		</g>
		<g>
			<path style="fill:#44444D;" d="M39.75,57.686H15.11c-1.02,0-1.846-0.826-1.846-1.846s0.826-1.846,1.846-1.846h22.99
				c0.8-7.326,1.054-13.187,0.677-15.861c-0.249-1.766-2.31-6.139-3.55-8.48c-0.041-0.077-0.076-0.156-0.105-0.238
				c-2.255-6.249-8.295-22.871-9.164-24.703c-0.571-1.205-1.954-1.103-2.602-0.881c-0.494,0.169-1.608,0.718-1.291,2.161
				c0.51,2.307,4.034,14.71,4.069,14.835c0.229,0.801-0.108,1.655-0.821,2.085c-0.717,0.432-1.628,0.328-2.229-0.244
				c-1.29-1.229-2.906-1.66-4.321-1.154c-1.278,0.457-2.12,1.613-2.312,3.171c-0.07,0.58-0.412,1.093-0.921,1.381
				c-0.508,0.289-1.125,0.318-1.658,0.083c-0.979-0.435-2.35-0.776-3.307,0.055c-0.937,0.811-1.277,2.491-0.829,4.086
				c0.177,0.63,0.007,1.307-0.447,1.779c-0.453,0.471-1.125,0.665-1.76,0.515c-1.191-0.285-2.358,0.054-3.12,0.907
				c-0.73,0.819-0.913,1.94-0.5,3.076c1.037,2.85,4.843,7.451,7.117,10.199c0.563,0.681,1.063,1.286,1.46,1.784
				c0.881,1.107,2.041,0.738,2.533,0.387c0.775-0.556,0.832-1.438,0.159-2.486c-0.552-0.857-0.304-2,0.555-2.551
				c0.857-0.55,2-0.303,2.551,0.555c2.022,3.145,0.84,6.084-1.114,7.484c-2.071,1.48-5.431,1.604-7.573-1.09
				c-0.385-0.483-0.87-1.069-1.415-1.729c-2.738-3.309-6.487-7.841-7.742-11.29c-0.88-2.418-0.425-4.959,1.215-6.798
				c1.091-1.222,2.583-1.979,4.188-2.181c0.003-2.155,0.816-4.148,2.305-5.438c1.39-1.204,3.211-1.64,5.174-1.281
				c0.774-1.929,2.254-3.397,4.197-4.094c1.262-0.451,2.607-0.53,3.915-0.271c-1.099-3.909-2.633-9.434-2.975-10.979
				c-0.625-2.838,0.897-5.489,3.7-6.449c2.487-0.847,5.731-0.162,7.134,2.792c1.087,2.292,8.237,22.086,9.258,24.912
				c0.565,1.076,3.48,6.726,3.882,9.576c0.619,4.399-0.267,13.439-0.85,18.437C41.475,56.984,40.687,57.686,39.75,57.686z"/>
		</g>
	</g>
</g>
<g id="Layer_1">
</g>
</svg>
