<?xml version="1.0" encoding="iso-8859-1"?>
<!-- Generator: Adobe Illustrator 16.0.0, SVG Export Plug-In . SVG Version: 6.00 Build 0)  -->
<!DOCTYPE svg PUBLIC "-//W3C//DTD SVG 1.1//EN" "http://www.w3.org/Graphics/SVG/1.1/DTD/svg11.dtd">
<svg version="1.1" xmlns="http://www.w3.org/2000/svg" xmlns:xlink="http://www.w3.org/1999/xlink" x="0px" y="0px"
	 width="56.681px" height="56.679px" viewBox="0 0 56.681 56.679" style="enable-background:new 0 0 56.681 56.679;"
	 xml:space="preserve">
<g id="_x34_8_x5F_hotdog">
	<g>
		<g>
			<path style="fill:#44444D;" d="M15.145,51.189c-2.597,0-5.026-0.999-6.841-2.813c-1.834-1.834-2.833-4.29-2.813-6.916
				c0.02-2.614,1.049-5.072,2.898-6.923L34.552,8.374c1.869-1.869,4.355-2.899,6.998-2.899c2.597,0,5.026,0.999,6.841,2.813
				c3.79,3.792,3.752,10-0.086,13.839L22.143,48.29C20.273,50.159,17.787,51.189,15.145,51.189z M41.55,9.167
				c-1.656,0-3.215,0.646-4.387,1.818L11,37.148c-1.16,1.159-1.805,2.701-1.817,4.34c-0.013,1.629,0.603,3.147,1.731,4.276
				c1.118,1.117,2.62,1.732,4.23,1.732c1.656,0,3.215-0.646,4.387-1.818l26.162-26.162c2.399-2.399,2.438-6.266,0.086-8.617
				C44.662,9.782,43.16,9.167,41.55,9.167z"/>
		</g>
		<g>
			<g>
				<path style="fill:#44444D;" d="M24.701,56.679c-2.048,0-3.939-0.818-5.524-2.402c-0.721-0.721-0.721-1.89,0-2.611
					c0.721-0.721,1.89-0.721,2.61,0c1.031,1.03,2.207,1.454,3.514,1.279c1.314-0.185,2.743-0.991,4.023-2.271l21.361-21.365
					c1.001-1,4.03-4.499,0.998-7.535c-0.721-0.722-0.721-1.89,0.001-2.61c0.722-0.722,1.891-0.721,2.61,0.001
					c3.516,3.519,3.114,8.646-0.999,12.756l-21.36,21.364c-1.871,1.871-3.988,3.018-6.123,3.317
					C25.438,56.652,25.067,56.679,24.701,56.679z"/>
			</g>
			<g>
				<path style="fill:#44444D;" d="M3.706,38.04c-0.473,0-0.944-0.18-1.305-0.54c-1.867-1.866-2.671-4.161-2.322-6.635
					c0.3-2.135,1.448-4.252,3.319-6.122l21.36-21.362c4.11-4.109,9.236-4.512,12.758-0.995c0.722,0.721,0.722,1.889,0.001,2.61
					c-0.721,0.723-1.89,0.722-2.61,0.001c-3.038-3.032-6.537-0.006-7.537,0.995L6.009,27.354c-1.281,1.28-2.089,2.709-2.273,4.024
					c-0.183,1.3,0.246,2.48,1.275,3.51c0.722,0.721,0.722,1.89,0.001,2.61C4.651,37.86,4.179,38.04,3.706,38.04z"/>
			</g>
		</g>
		<g>
			<g>
				<path style="fill:#44444D;" d="M18.573,42.163c-1.452,0-2.924-0.539-3.906-0.897l-0.26-0.095
					c-0.96-0.346-1.457-1.403-1.112-2.362c0.347-0.96,1.409-1.456,2.362-1.112l0.278,0.102c1.66,0.607,2.433,0.727,2.782,0.68
					c-0.015-0.456-0.185-1.261-0.294-1.779c-0.352-1.668-0.749-3.559,0.493-4.802c1.522-1.521,3.681-0.904,5.258-0.454
					c0.287,0.082,0.657,0.188,0.972,0.26c-0.073-0.316-0.19-0.697-0.273-0.97c-0.447-1.46-1.123-3.667,0.542-5.333
					c1.667-1.667,3.874-0.989,5.332-0.542c0.272,0.084,0.654,0.201,0.97,0.274c-0.072-0.315-0.178-0.686-0.26-0.973
					c-0.45-1.576-1.067-3.733,0.455-5.255c1.239-1.242,3.132-0.845,4.801-0.494c0.521,0.109,1.331,0.279,1.786,0.294
					c0.042-0.34-0.073-1.111-0.688-2.789l-0.099-0.27c-0.347-0.959,0.149-2.018,1.108-2.364c0.96-0.343,2.018,0.15,2.364,1.108
					l0.093,0.254c0.621,1.693,1.777,4.846-0.214,6.838c-1.338,1.336-3.34,0.913-5.11,0.542c-0.362-0.076-0.881-0.186-1.287-0.242
					c0.07,0.416,0.23,0.978,0.341,1.362c0.428,1.497,0.961,3.36-0.325,4.717c-1.519,1.601-3.623,0.955-5.017,0.527
					c-0.495-0.151-1.418-0.436-1.682-0.353c-0.014,0.2,0.269,1.121,0.42,1.616c0.427,1.394,1.071,3.499-0.528,5.017
					c-1.355,1.284-3.217,0.754-4.715,0.325c-0.386-0.11-0.948-0.271-1.365-0.343c0.057,0.406,0.166,0.924,0.242,1.287
					c0.372,1.769,0.795,3.773-0.541,5.109C20.661,41.881,19.622,42.163,18.573,42.163z"/>
			</g>
		</g>
	</g>
</g>
<g id="Layer_1">
</g>
</svg>
