<?xml version="1.0" encoding="iso-8859-1"?>
<!-- Generator: Adobe Illustrator 16.0.0, SVG Export Plug-In . SVG Version: 6.00 Build 0)  -->
<!DOCTYPE svg PUBLIC "-//W3C//DTD SVG 1.1//EN" "http://www.w3.org/Graphics/SVG/1.1/DTD/svg11.dtd">
<svg version="1.1" xmlns="http://www.w3.org/2000/svg" xmlns:xlink="http://www.w3.org/1999/xlink" x="0px" y="0px" width="42.44px"
	 height="57.696px" viewBox="0 0 42.44 57.696" style="enable-background:new 0 0 42.44 57.696;" xml:space="preserve">
<g id="_x34_9_x5F_map_x5F_marker">
	<g>
		<g>
			<path style="fill:#44444D;" d="M20.837,57.696c-0.519,0-1.033-0.217-1.398-0.64C11.296,47.623-10.332,22.563,5.864,6.135
				c4.729-4.798,12.048-7.026,19.097-5.806c6.99,1.207,12.543,5.524,15.636,12.157c6.355,13.633-5.213,28.271-12.125,37.018
				c-0.759,0.959-1.46,1.847-2.073,2.652c-0.618,0.811-1.777,0.97-2.587,0.351C23,51.89,22.843,50.731,23.461,49.92
				c0.625-0.822,1.341-1.728,2.113-2.705c6.385-8.078,17.069-21.599,11.676-33.168c-2.566-5.505-7.153-9.084-12.918-10.08
				c-5.786-1.001-12.003,0.869-15.839,4.76c-12.374,12.552,1.916,32.218,13.74,45.918c0.666,0.771,0.581,1.938-0.191,2.604
				C21.694,57.549,21.265,57.696,20.837,57.696z"/>
		</g>
		<g>
			<g>
				<path style="fill:#44444D;" d="M21.207,35.573c-7.743,0-14.042-6.298-14.042-14.039c0-7.742,6.299-14.041,14.042-14.041
					c7.742,0,14.041,6.299,14.041,14.041C35.248,29.275,28.949,35.573,21.207,35.573z M21.207,11.185
					c-5.707,0-10.35,4.643-10.35,10.35c0,5.705,4.643,10.348,10.35,10.348c5.706,0,10.349-4.643,10.349-10.348
					C31.556,15.827,26.913,11.185,21.207,11.185z"/>
			</g>
			<g>
				<polygon style="fill:#44444D;" points="23.49,24.808 24.903,20.46 21.207,17.774 17.51,20.46 18.922,24.808 				"/>
				<path style="fill:#44444D;" d="M24.7,13.886l-0.426-0.709c-0.959-0.352-1.989-0.551-3.067-0.551c-1.08,0-2.11,0.199-3.068,0.551
					l-0.424,0.709l3.493,1.369L24.7,13.886z"/>
				<path style="fill:#44444D;" d="M28.736,16.747l-0.788-0.262l-0.571,3.709l2.103,3.107l0.598-0.57
					c0.049-0.379,0.083-0.762,0.083-1.152C30.16,19.798,29.632,18.142,28.736,16.747z"/>
				<path style="fill:#44444D;" d="M24.652,26.882l-2.183,3.053l0.746,0.363c2.088-0.48,3.893-1.689,5.142-3.348l-0.028-0.822
					L24.652,26.882z"/>
				<path style="fill:#44444D;" d="M14.085,26.128l-0.029,0.822c1.249,1.658,3.053,2.867,5.141,3.348l0.746-0.363l-2.182-3.053
					L14.085,26.128z"/>
				<path style="fill:#44444D;" d="M14.464,16.485l-0.787,0.262c-0.897,1.395-1.423,3.051-1.423,4.832
					c0,0.391,0.032,0.773,0.081,1.152l0.599,0.57l2.103-3.107L14.464,16.485z"/>
			</g>
		</g>
	</g>
</g>
<g id="Layer_1">
</g>
</svg>
