<?xml version="1.0" encoding="iso-8859-1"?>
<!-- Generator: Adobe Illustrator 16.0.0, SVG Export Plug-In . SVG Version: 6.00 Build 0)  -->
<!DOCTYPE svg PUBLIC "-//W3C//DTD SVG 1.1//EN" "http://www.w3.org/Graphics/SVG/1.1/DTD/svg11.dtd">
<svg version="1.1" xmlns="http://www.w3.org/2000/svg" xmlns:xlink="http://www.w3.org/1999/xlink" x="0px" y="0px"
	 width="50.391px" height="57.71px" viewBox="0 0 50.391 57.71" style="enable-background:new 0 0 50.391 57.71;"
	 xml:space="preserve">
<g id="_x35_0_x5F_like">
	<g>
		<g>
			<path style="fill:#44444D;" d="M1.846,57.71C0.827,57.71,0,56.884,0,55.864V18.005c0-1.02,0.827-1.846,1.846-1.846
				s1.846,0.826,1.846,1.846v37.859C3.692,56.884,2.866,57.71,1.846,57.71z"/>
		</g>
		<g>
			<path style="fill:#44444D;" d="M40.555,57.71H7.889c-1.02,0-1.846-0.826-1.846-1.846s0.827-1.846,1.846-1.846h32.666
				c2.943,0,4.012-1.976,4.012-3.303c0-0.461-0.114-1.12-0.662-1.649c-0.541-0.523-1.402-0.801-2.488-0.801
				c-1.02,0-1.846-0.826-1.846-1.846s0.826-1.846,1.846-1.846c2.855,0,4.349-1.649,4.349-3.278c0-0.448-0.122-1.095-0.707-1.627
				c-0.607-0.554-1.568-0.847-2.778-0.847c-1.02,0-1.847-0.826-1.847-1.846s0.827-1.846,1.847-1.846
				c2.787,0,4.246-1.651,4.246-3.282c0-0.452-0.12-1.103-0.693-1.633c-0.589-0.546-1.521-0.834-2.695-0.834
				c-1.02,0-1.847-0.826-1.847-1.846s0.827-1.846,1.847-1.846c1.178,0,2.133-0.327,2.764-0.945c0.514-0.505,0.797-1.189,0.797-1.926
				c0-1.436-1.101-2.884-3.561-2.884H23.798c-1.02,0-1.846-0.826-1.846-1.846s0.827-1.846,1.846-1.846h19.338
				c4.762,0,7.254,3.308,7.254,6.575c0,1.735-0.677,3.355-1.904,4.561c-0.045,0.044-0.091,0.088-0.139,0.133
				c1.205,1.12,1.87,2.66,1.87,4.336c0,1.893-0.872,3.853-2.546,5.211c1.152,1.112,1.785,2.61,1.785,4.236
				c0,1.959-0.947,3.988-2.759,5.349c1.009,1.09,1.562,2.523,1.562,4.071C48.26,54.106,45.559,57.71,40.555,57.71z"/>
		</g>
		<g>
			<path style="fill:#44444D;" d="M7.89,19.937c-0.713,0-1.392-0.415-1.694-1.11c-0.407-0.935,0.021-2.022,0.957-2.429
				c4.258-1.853,7.357-5.719,10.092-9.13c3.557-4.438,6.918-8.626,11.936-6.85c1.496,0.53,2.597,1.601,3.181,3.096
				c2.002,5.117-2.746,14.396-3.293,15.436c-0.476,0.903-1.591,1.249-2.493,0.774s-1.249-1.591-0.775-2.493
				c1.764-3.359,4.172-9.69,3.122-12.373c-0.195-0.499-0.486-0.786-0.975-0.959c-2.426-0.859-4.452,1.475-7.822,5.679
				c-3.002,3.745-6.405,7.989-11.5,10.205C8.386,19.887,8.136,19.937,7.89,19.937z"/>
		</g>
	</g>
</g>
<g id="Layer_1">
</g>
</svg>
