<?xml version="1.0" encoding="iso-8859-1"?>
<!-- Generator: Adobe Illustrator 16.0.0, SVG Export Plug-In . SVG Version: 6.00 Build 0)  -->
<!DOCTYPE svg PUBLIC "-//W3C//DTD SVG 1.1//EN" "http://www.w3.org/Graphics/SVG/1.1/DTD/svg11.dtd">
<svg version="1.1" xmlns="http://www.w3.org/2000/svg" xmlns:xlink="http://www.w3.org/1999/xlink" x="0px" y="0px"
	 width="57.691px" height="55.226px" viewBox="0 0 57.691 55.226" style="enable-background:new 0 0 57.691 55.226;"
	 xml:space="preserve">
<g id="_x35_1_x5F_star">
	<g>
		<g>
			<path style="fill:#44444D;" d="M44.366,55.226c-0.856,0-1.788-0.248-2.733-0.744l-12.787-6.727l-7.854,4.134
				c-0.901,0.476-2.018,0.129-2.494-0.774c-0.475-0.902-0.128-2.019,0.774-2.493l8.714-4.586c0.538-0.283,1.181-0.283,1.719,0
				l13.645,7.178c0.639,0.334,1.013,0.342,1.09,0.317c-0.029-0.013,0.079-0.369-0.043-1.083l-2.604-15.188
				c-0.104-0.6,0.096-1.21,0.53-1.635L53.355,22.87c0.52-0.507,0.643-0.86,0.645-0.943c-0.025,0.02-0.327-0.189-1.048-0.294
				l-15.246-2.217c-0.601-0.088-1.121-0.465-1.39-1.01l-4.389-8.893c-0.451-0.915-0.076-2.021,0.838-2.473
				c0.915-0.451,2.021-0.076,2.473,0.838l3.96,8.022l14.286,2.077c2.074,0.304,3.545,1.344,4.036,2.855
				c0.49,1.512-0.088,3.218-1.588,4.68L45.595,35.591l2.441,14.232c0.353,2.063-0.183,3.782-1.468,4.717
				C45.939,54.997,45.188,55.226,44.366,55.226z"/>
		</g>
		<g>
			<path style="fill:#44444D;" d="M13.327,55.226c-0.821,0-1.573-0.229-2.203-0.686c-1.286-0.934-1.822-2.652-1.47-4.715
				l2.443-14.234L1.76,25.515c-1.5-1.462-2.08-3.168-1.589-4.68c0.49-1.512,1.961-2.553,4.036-2.856l14.289-2.077l6.393-12.95
				C25.814,1.075,27.256,0,28.846,0c0,0,0,0,0,0c1.59,0,3.034,1.077,3.96,2.956c0.45,0.914,0.075,2.021-0.84,2.472
				c-0.914,0.453-2.021,0.076-2.472-0.839c-0.321-0.65-0.619-0.876-0.697-0.903c0.017,0.027-0.279,0.252-0.6,0.9l-6.822,13.82
				c-0.269,0.545-0.789,0.922-1.39,1.01L4.739,21.633c-0.719,0.104-1.026,0.319-1.077,0.386c0.031-0.012,0.153,0.343,0.675,0.852
				L15.37,33.624c0.435,0.425,0.634,1.035,0.531,1.635l-2.607,15.189c-0.122,0.713-0.013,1.069,0.035,1.138
				c0.003-0.031,0.375-0.038,1.015-0.374c0.903-0.474,2.019-0.127,2.493,0.777c0.474,0.902,0.126,2.019-0.777,2.492
				C15.115,54.978,14.183,55.226,13.327,55.226z"/>
		</g>
	</g>
</g>
<g id="Layer_1">
</g>
</svg>
