<?xml version="1.0" encoding="iso-8859-1"?>
<!-- Generator: Adobe Illustrator 16.0.0, SVG Export Plug-In . SVG Version: 6.00 Build 0)  -->
<!DOCTYPE svg PUBLIC "-//W3C//DTD SVG 1.1//EN" "http://www.w3.org/Graphics/SVG/1.1/DTD/svg11.dtd">
<svg version="1.1" xmlns="http://www.w3.org/2000/svg" xmlns:xlink="http://www.w3.org/1999/xlink" x="0px" y="0px"
	 width="57.695px" height="52.982px" viewBox="0 0 57.695 52.982" style="enable-background:new 0 0 57.695 52.982;"
	 xml:space="preserve">
<g id="_x35_2_x5F_message">
	<g>
		<g>
			<path style="fill:#44444D;" d="M15.535,52.982c-0.232,0-0.466-0.043-0.689-0.134c-0.708-0.285-1.167-0.976-1.156-1.738
				l0.167-11.628c-3.432-1.499-12.675-6.417-13.761-16.269c-0.555-5.02,1.302-10.097,5.229-14.296
				c5.691-6.087,14.889-9.315,25.229-8.879c9.721,0.417,17.78,3.978,22.692,10.026c3.487,4.294,5.035,9.485,4.249,14.243
				c-1.843,11.132-12.089,18.046-26.74,18.046c-1.019,0-1.846-0.826-1.846-1.846s0.827-1.846,1.846-1.846
				c12.913,0,21.548-5.592,23.098-14.957c0.614-3.715-0.651-7.839-3.473-11.313c-4.236-5.217-11.334-8.294-19.984-8.664
				c-9.27-0.411-17.419,2.412-22.374,7.711c-3.179,3.399-4.69,7.438-4.255,11.369C4.822,32.388,16.213,36.46,16.328,36.5
				c0.751,0.261,1.25,0.975,1.239,1.77l-0.117,8.115l6.596-7.058c0.696-0.745,1.864-0.785,2.609-0.088
				c0.745,0.696,0.784,1.864,0.088,2.609l-9.859,10.549C16.528,52.778,16.037,52.982,15.535,52.982z"/>
		</g>
		<g>
			<g>
				<path style="fill:#44444D;" d="M28.964,35.773c-7.871,0-14.274-6.402-14.274-14.273S21.094,7.226,28.964,7.226
					S43.238,13.629,43.238,21.5S36.835,35.773,28.964,35.773z M28.964,10.917c-5.835,0-10.582,4.748-10.582,10.583
					s4.747,10.582,10.582,10.582c5.834,0,10.582-4.747,10.582-10.582S34.799,10.917,28.964,10.917z"/>
			</g>
			<g>
				<polygon style="fill:#44444D;" points="31.293,24.837 32.732,20.406 28.964,17.67 25.197,20.406 26.636,24.837 				"/>
				<path style="fill:#44444D;" d="M32.523,13.705l-0.433-0.723c-0.978-0.356-2.027-0.562-3.126-0.562
					c-1.1,0-2.148,0.205-3.126,0.562l-0.434,0.723l3.56,1.397L32.523,13.705z"/>
				<path style="fill:#44444D;" d="M36.639,16.621l-0.804-0.266l-0.583,3.779l2.144,3.167l0.609-0.581
					c0.049-0.386,0.083-0.774,0.083-1.175C38.088,19.731,37.552,18.042,36.639,16.621z"/>
				<path style="fill:#44444D;" d="M32.476,26.95l-2.225,3.109l0.761,0.372c2.13-0.49,3.968-1.722,5.24-3.411l-0.029-0.838
					L32.476,26.95z"/>
				<path style="fill:#44444D;" d="M21.707,26.183l-0.029,0.838c1.272,1.689,3.11,2.921,5.24,3.411l0.761-0.372l-2.225-3.109
					L21.707,26.183z"/>
				<path style="fill:#44444D;" d="M22.093,16.354l-0.801,0.267c-0.915,1.421-1.452,3.11-1.452,4.925c0,0.4,0.035,0.788,0.084,1.174
					l0.61,0.581l2.143-3.167L22.093,16.354z"/>
			</g>
		</g>
	</g>
</g>
<g id="Layer_1">
</g>
</svg>
