<?xml version="1.0" encoding="iso-8859-1"?>
<!-- Generator: Adobe Illustrator 16.0.0, SVG Export Plug-In . SVG Version: 6.00 Build 0)  -->
<!DOCTYPE svg PUBLIC "-//W3C//DTD SVG 1.1//EN" "http://www.w3.org/Graphics/SVG/1.1/DTD/svg11.dtd">
<svg version="1.1" xmlns="http://www.w3.org/2000/svg" xmlns:xlink="http://www.w3.org/1999/xlink" x="0px" y="0px"
	 width="51.797px" height="57.691px" viewBox="0 0 51.797 57.691" style="enable-background:new 0 0 51.797 57.691;"
	 xml:space="preserve">
<g id="_x35_3_x5F_time">
	<g>
		<g>
			<path style="fill:#44444D;" d="M25.898,57.691C11.618,57.691,0,46.073,0,31.793c0-14.281,11.618-25.9,25.898-25.9
				s25.898,11.619,25.898,25.9C51.797,46.073,40.179,57.691,25.898,57.691z M25.898,9.584c-12.245,0-22.207,9.963-22.207,22.209
				C3.691,44.038,13.653,54,25.898,54s22.207-9.962,22.207-22.207C48.105,19.547,38.144,9.584,25.898,9.584z"/>
		</g>
		<g>
			<path style="fill:#44444D;" d="M25.898,33.639c-1.02,0-1.846-0.826-1.846-1.846V17.836c0-1.02,0.826-1.846,1.846-1.846
				s1.846,0.826,1.846,1.846v13.957C27.744,32.813,26.918,33.639,25.898,33.639z"/>
		</g>
		<g>
			<path style="fill:#44444D;" d="M34.51,42.246c-0.473,0-0.944-0.18-1.305-0.54l-8.611-8.607c-0.722-0.721-0.722-1.89-0.001-2.61
				c0.721-0.723,1.89-0.722,2.61-0.001l8.611,8.607c0.722,0.721,0.722,1.89,0.001,2.61C35.455,42.066,34.982,42.246,34.51,42.246z"
				/>
		</g>
		<g>
			<path style="fill:#44444D;" d="M49.951,33.639h-4.262c-1.02,0-1.846-0.826-1.846-1.846s0.826-1.846,1.846-1.846h4.262
				c1.02,0,1.846,0.826,1.846,1.846S50.971,33.639,49.951,33.639z"/>
		</g>
		<g>
			<path style="fill:#44444D;" d="M6.107,33.639H1.846C0.826,33.639,0,32.813,0,31.793s0.826-1.846,1.846-1.846h4.262
				c1.02,0,1.846,0.826,1.846,1.846S7.127,33.639,6.107,33.639z"/>
		</g>
		<g>
			<path style="fill:#44444D;" d="M25.898,57.691c-1.02,0-1.846-0.826-1.846-1.846v-4.262c0-1.02,0.826-1.846,1.846-1.846
				s1.846,0.826,1.846,1.846v4.262C27.744,56.865,26.918,57.691,25.898,57.691z"/>
		</g>
		<g>
			<path style="fill:#44444D;" d="M25.898,13.844c-1.02,0-1.846-0.826-1.846-1.846v-4.26c0-1.02,0.826-1.846,1.846-1.846
				s1.846,0.826,1.846,1.846v4.26C27.744,13.018,26.918,13.844,25.898,13.844z"/>
		</g>
		<g>
			<path style="fill:#44444D;" d="M30.504,3.691h-9.211c-1.02,0-1.846-0.826-1.846-1.846S20.273,0,21.293,0h9.211
				c1.02,0,1.846,0.826,1.846,1.846S31.523,3.691,30.504,3.691z"/>
		</g>
	</g>
</g>
<g id="Layer_1">
</g>
</svg>
