<?xml version="1.0" encoding="iso-8859-1"?>
<!-- Generator: Adobe Illustrator 16.0.0, SVG Export Plug-In . SVG Version: 6.00 Build 0)  -->
<!DOCTYPE svg PUBLIC "-//W3C//DTD SVG 1.1//EN" "http://www.w3.org/Graphics/SVG/1.1/DTD/svg11.dtd">
<svg version="1.1" xmlns="http://www.w3.org/2000/svg" xmlns:xlink="http://www.w3.org/1999/xlink" x="0px" y="0px"
	 width="54.691px" height="54.69px" viewBox="0 0 54.691 54.69" style="enable-background:new 0 0 54.691 54.69;"
	 xml:space="preserve">
<g id="_x35_4_x5F_timer">
	<g>
		<g>
			<path style="fill:#44444D;" d="M27.347,54.69C12.268,54.69,0,42.424,0,27.345C0,12.267,12.268,0,27.347,0
				c1.02,0,1.846,0.826,1.846,1.846s-0.826,1.846-1.846,1.846c-13.043,0-23.655,10.611-23.655,23.653
				c0,13.043,10.612,23.654,23.655,23.654C40.389,50.999,51,40.388,51,27.345c0-1.02,0.826-1.846,1.846-1.846
				s1.846,0.826,1.846,1.846C54.691,42.424,42.425,54.69,27.347,54.69z"/>
		</g>
		<g>
			<path style="fill:#44444D;" d="M27.347,29.19c-1.02,0-1.846-0.826-1.846-1.846V12.549c0-1.02,0.826-1.846,1.846-1.846
				s1.846,0.826,1.846,1.846v14.796C29.192,28.364,28.366,29.19,27.347,29.19z"/>
		</g>
		<g>
			<path style="fill:#44444D;" d="M36.476,38.315c-0.473,0-0.944-0.18-1.305-0.54l-9.129-9.125c-0.722-0.721-0.722-1.89-0.001-2.61
				c0.721-0.723,1.89-0.722,2.61-0.001l9.129,9.125c0.722,0.721,0.722,1.89,0.001,2.61C37.421,38.136,36.948,38.315,36.476,38.315z"
				/>
		</g>
		<g>
			<path style="fill:#44444D;" d="M52.846,29.19H35.738c-1.02,0-1.846-0.826-1.846-1.846s0.826-1.846,1.846-1.846h17.107
				c1.02,0,1.846,0.826,1.846,1.846S53.865,29.19,52.846,29.19z"/>
		</g>
		<g>
			<path style="fill:#44444D;" d="M6.363,29.19H1.846C0.826,29.19,0,28.364,0,27.345s0.826-1.846,1.846-1.846h4.518
				c1.02,0,1.846,0.826,1.846,1.846S7.383,29.19,6.363,29.19z"/>
		</g>
		<g>
			<path style="fill:#44444D;" d="M27.347,54.69c-1.02,0-1.846-0.826-1.846-1.846v-4.519c0-1.02,0.826-1.846,1.846-1.846
				s1.846,0.826,1.846,1.846v4.519C29.192,53.864,28.366,54.69,27.347,54.69z"/>
		</g>
		<g>
			<path style="fill:#44444D;" d="M27.347,8.207c-1.02,0-1.846-0.826-1.846-1.846V1.846c0-1.02,0.826-1.846,1.846-1.846
				s1.846,0.826,1.846,1.846v4.516C29.192,7.381,28.366,8.207,27.347,8.207z"/>
		</g>
	</g>
</g>
<g id="Layer_1">
</g>
</svg>
