<?xml version="1.0" encoding="iso-8859-1"?>
<!-- Generator: Adobe Illustrator 16.0.0, SVG Export Plug-In . SVG Version: 6.00 Build 0)  -->
<!DOCTYPE svg PUBLIC "-//W3C//DTD SVG 1.1//EN" "http://www.w3.org/Graphics/SVG/1.1/DTD/svg11.dtd">
<svg version="1.1" xmlns="http://www.w3.org/2000/svg" xmlns:xlink="http://www.w3.org/1999/xlink" x="0px" y="0px"
	 width="57.692px" height="44.146px" viewBox="0 0 57.692 44.146" style="enable-background:new 0 0 57.692 44.146;"
	 xml:space="preserve">
<g id="_x35_5_x5F_watching">
	<g>
		<g>
			<path style="fill:#44444D;" d="M55.844,23.902c-0.97,0-1.783-0.757-1.841-1.737c-0.046-0.777-0.623-1.784-1.82-3.613
				C45.549,8.414,38.134,3.691,28.846,3.691C27.826,3.691,27,2.865,27,1.846S27.826,0,28.846,0C39.35,0,47.994,5.407,55.272,16.53
				c1.393,2.127,2.313,3.653,2.416,5.419c0.06,1.018-0.717,1.891-1.735,1.95C55.917,23.901,55.88,23.902,55.844,23.902z"/>
		</g>
		<g>
			<path style="fill:#44444D;" d="M1.848,23.902c-0.036,0-0.073-0.001-0.109-0.003c-1.019-0.06-1.795-0.933-1.735-1.95
				c0.104-1.766,1.023-3.292,2.416-5.419C9.697,5.407,18.342,0,28.846,0c1.02,0,1.846,0.826,1.846,1.846s-0.826,1.846-1.846,1.846
				c-9.288,0-16.703,4.723-23.337,14.86c-1.197,1.829-1.774,2.836-1.82,3.613C3.631,23.146,2.817,23.902,1.848,23.902z"/>
		</g>
		<g>
			<path style="fill:#44444D;" d="M28.598,44.146c-0.002,0-0.002,0-0.003,0c-9.907-0.001-19.642-5.918-26.038-15.829
				c-0.553-0.856-0.307-1.999,0.55-2.552c0.857-0.555,1.999-0.307,2.552,0.55c5.714,8.853,14.289,14.139,22.937,14.14
				c0.001,0,0.002,0,0.003,0c8.694,0,16.566-5.076,22.77-14.682c0.553-0.854,1.692-1.104,2.553-0.549
				c0.856,0.553,1.102,1.695,0.549,2.553C47.651,38.333,38.463,44.146,28.598,44.146z"/>
		</g>
		<g>
			<g>
				<path style="fill:#44444D;" d="M28.511,37.883c-8.908,0-16.154-7.245-16.154-16.15c0-8.909,7.246-16.156,16.154-16.156
					c8.91,0,16.158,7.247,16.158,16.156C44.669,30.638,37.421,37.883,28.511,37.883z M28.511,9.268
					c-6.872,0-12.463,5.592-12.463,12.465c0,6.87,5.591,12.459,12.463,12.459c6.874,0,12.467-5.589,12.467-12.459
					C40.978,14.859,35.385,9.268,28.511,9.268z"/>
			</g>
			<g>
				<polygon style="fill:#44444D;" points="31.142,25.5 32.769,20.492 28.511,17.402 24.255,20.492 25.882,25.5 				"/>
				<path style="fill:#44444D;" d="M32.532,12.924l-0.486-0.816c-1.104-0.404-2.291-0.635-3.535-0.635
					c-1.242,0-2.426,0.23-3.529,0.635l-0.494,0.816l4.023,1.576L32.532,12.924z"/>
				<path style="fill:#44444D;" d="M37.181,16.217l-0.904-0.301l-0.66,4.271l2.42,3.578l0.689-0.656
					c0.055-0.436,0.096-0.877,0.096-1.326C38.821,19.73,38.214,17.822,37.181,16.217z"/>
				<path style="fill:#44444D;" d="M32.479,27.885L29.968,31.4l0.857,0.42c2.404-0.553,4.484-1.945,5.922-3.852l-0.035-0.951
					L32.479,27.885z"/>
				<path style="fill:#44444D;" d="M20.312,27.018l-0.033,0.951c1.438,1.906,3.516,3.299,5.92,3.852l0.859-0.42l-2.514-3.516
					L20.312,27.018z"/>
				<path style="fill:#44444D;" d="M20.747,15.916l-0.902,0.301c-1.037,1.605-1.645,3.514-1.645,5.566
					c0,0.449,0.043,0.891,0.098,1.324l0.688,0.658l2.422-3.58L20.747,15.916z"/>
			</g>
		</g>
	</g>
</g>
<g id="Layer_1">
</g>
</svg>
