<?xml version="1.0" encoding="iso-8859-1"?>
<!-- Generator: Adobe Illustrator 16.0.0, SVG Export Plug-In . SVG Version: 6.00 Build 0)  -->
<!DOCTYPE svg PUBLIC "-//W3C//DTD SVG 1.1//EN" "http://www.w3.org/Graphics/SVG/1.1/DTD/svg11.dtd">
<svg version="1.1" xmlns="http://www.w3.org/2000/svg" xmlns:xlink="http://www.w3.org/1999/xlink" x="0px" y="0px"
	 width="57.691px" height="57.691px" viewBox="0 0 57.691 57.691" style="enable-background:new 0 0 57.691 57.691;"
	 xml:space="preserve">
<g id="_x35_6_x5F_global">
	<g>
		<g>
			<g>
				<path style="fill:#44444D;" d="M28.844,57.691C12.939,57.691,0,44.752,0,28.846S12.939,0,28.844,0
					c15.907,0,28.848,12.939,28.848,28.846S44.751,57.691,28.844,57.691z M28.844,3.691c-13.869,0-25.152,11.284-25.152,25.154
					S14.975,54,28.844,54C42.715,54,54,42.716,54,28.846S42.715,3.691,28.844,3.691z"/>
			</g>
		</g>
		<g>
			<path style="fill:#44444D;" d="M28.793,51.699c-1.02,0-1.846-0.826-1.846-1.846V7.844c0-1.02,0.826-1.846,1.846-1.846
				s1.846,0.826,1.846,1.846v42.01C30.639,50.873,29.813,51.699,28.793,51.699z"/>
		</g>
		<g>
			<path style="fill:#44444D;" d="M50.005,30.691H7.577c-1.02,0-1.846-0.826-1.846-1.846S6.558,27,7.577,27h42.428
				c1.02,0,1.846,0.826,1.846,1.846S51.024,30.691,50.005,30.691z"/>
		</g>
		<g>
			<path style="fill:#44444D;" d="M45.717,18.137H11.971c-1.02,0-1.846-0.826-1.846-1.846s0.826-1.846,1.846-1.846h33.746
				c1.02,0,1.846,0.826,1.846,1.846S46.736,18.137,45.717,18.137z"/>
		</g>
		<g>
			<path style="fill:#44444D;" d="M45.717,43.512H11.971c-1.02,0-1.846-0.826-1.846-1.846s0.826-1.846,1.846-1.846h33.746
				c1.02,0,1.846,0.826,1.846,1.846S46.736,43.512,45.717,43.512z"/>
		</g>
	</g>
</g>
<g id="Layer_1">
</g>
</svg>
